<svg width="60" height="60" viewBox="0 0 60 60" fill="none" xmlns="http://www.w3.org/2000/svg">
    <g clip-path="url(#clip0_1:570)">
        <path d="M49.6301 49.9433H46.7143V48.122H49.6301C51.4622 48.122 52.9529 46.6314 52.9529 44.7993C52.9529 43.9116 52.6072 43.0773 51.9797 42.4498L50.9323 41.4025C48.9267 39.3966 48.9267 36.1332 50.9323 34.1275L52.3198 32.74L53.6078 34.028L52.2203 35.4155C50.9247 36.711 50.9247 38.819 52.2203 40.1146L53.2676 41.1618C54.2391 42.1333 54.7743 43.425 54.7743 44.7993C54.7743 47.6357 52.4667 49.9433 49.6301 49.9433Z" fill="#FA4954"/>
        <path d="M17.3451 27.2987H12.1084V21.3173C12.1084 19.8712 13.2807 18.699 14.7268 18.699C16.1729 18.699 17.3451 19.8712 17.3451 21.3173V27.2987Z" fill="#ED4322"/>
        <path d="M35.2883 27.2987H30.0516V21.3173C30.0516 19.8712 31.2238 18.699 32.6699 18.699C34.116 18.699 35.2883 19.8712 35.2883 21.3173V27.2987Z" fill="#ED4322"/>
        <path d="M17.3451 27.2987H12.1084V21.3173C12.1084 19.8712 13.2807 18.699 14.7268 18.699C16.1729 18.699 17.3451 19.8712 17.3451 21.3173V27.2987Z" fill="#FA4954"/>
        <path d="M35.2883 27.2987H30.0516V21.3173C30.0516 19.8712 31.2238 18.699 32.6699 18.699C34.116 18.699 35.2883 19.8712 35.2883 21.3173V27.2987Z" fill="#FA4954"/>
        <path d="M14.7267 18.6987C14.3514 18.6987 13.9948 18.7783 13.6721 18.9206C14.5927 19.3264 15.2357 20.2463 15.2357 21.3171V27.2985H17.3451V21.3171C17.3451 19.8711 16.1728 18.6987 14.7267 18.6987Z" fill="#FA2A3B"/>
        <path d="M32.6699 18.6987C32.2946 18.6987 31.938 18.7783 31.6152 18.9206C32.5358 19.3264 33.1789 20.2463 33.1789 21.3171V27.2985H35.2882V21.3171C35.2882 19.8711 34.1159 18.6987 32.6699 18.6987Z" fill="#FA2A3B"/>
        <path d="M39.1439 32.2553V27.7699C39.1439 26.8349 38.3859 26.0769 37.4509 26.0769H9.94559C9.01055 26.0769 8.25258 26.8349 8.25258 27.7699V32.2553C8.25258 33.7176 7.66242 35.1183 6.61582 36.1397L0.785391 41.8296C0.283242 42.3198 0 42.9919 0 43.6936V54.6274C0 57.5885 2.40047 59.989 5.36156 59.989H42.035C44.9961 59.989 47.3966 57.5885 47.3966 54.6274V43.6936C47.3966 42.9918 47.1134 42.3197 46.6112 41.8296L40.7808 36.1396C39.7341 35.1182 39.1439 33.7176 39.1439 32.2553Z" fill="#FC8086"/>
        <path d="M46.6111 41.8295L40.7807 36.1394C39.7341 35.118 39.144 33.7175 39.144 32.255V27.7697C39.144 26.8346 38.386 26.0767 37.4509 26.0767H31.0977C32.0328 26.0767 32.7908 26.8346 32.7908 27.7697V32.255C32.7908 33.7174 33.3809 35.118 34.4275 36.1394L40.2579 41.8295C40.7602 42.3197 41.0433 42.9917 41.0433 43.6935V54.6273C41.0433 57.5884 38.6429 59.9888 35.6819 59.9888H42.0351C44.9962 59.9888 47.3965 57.5884 47.3965 54.6273V43.6935C47.3965 42.9917 47.1134 42.3197 46.6111 41.8295Z" fill="#FB636F"/>
        <path d="M23.6983 55.4398C29.3397 55.4398 33.913 50.8665 33.913 45.225C33.913 39.5836 29.3397 35.0103 23.6983 35.0103C18.0568 35.0103 13.4835 39.5836 13.4835 45.225C13.4835 50.8665 18.0568 55.4398 23.6983 55.4398Z" fill="#E0DDE2"/>
        <path d="M29.0157 36.502C29.9618 38.0509 30.5073 39.8713 30.5073 41.8193C30.5073 47.4609 25.934 52.0341 20.2926 52.0341C18.3447 52.0341 16.5242 51.4886 14.9752 50.5424C16.7693 53.4794 20.0048 55.4399 23.6983 55.4399C29.3398 55.4399 33.913 50.8666 33.913 45.2252C33.913 41.5315 31.9526 38.2961 29.0157 36.502Z" fill="#C8C1C9"/>
        <path d="M23.6982 48.3833C25.4425 48.3833 26.8565 46.9693 26.8565 45.225C26.8565 43.4807 25.4425 42.0667 23.6982 42.0667C21.9539 42.0667 20.5399 43.4807 20.5399 45.225C20.5399 46.9693 21.9539 48.3833 23.6982 48.3833Z" fill="#FA4954"/>
        <path d="M24.6954 42.2283C24.7997 42.5419 24.857 42.8768 24.857 43.2254C24.857 44.9698 23.4431 46.3837 21.6987 46.3837C21.3501 46.3837 21.0152 46.3264 20.7016 46.2221C21.1191 47.4776 22.3026 48.3833 23.6983 48.3833C25.4426 48.3833 26.8566 46.9693 26.8566 45.225C26.8566 43.8292 25.9509 42.6458 24.6954 42.2283Z" fill="#FA2A3B"/>
        <path d="M23.689 39.802C24.3264 39.802 24.8431 39.2853 24.8431 38.648C24.8431 38.0106 24.3264 37.4939 23.689 37.4939C23.0516 37.4939 22.5349 38.0106 22.5349 38.648C22.5349 39.2853 23.0516 39.802 23.689 39.802Z" fill="#8F818F"/>
        <path d="M20.1152 40.844C20.7526 40.844 21.2693 40.3273 21.2693 39.6899C21.2693 39.0526 20.7526 38.5359 20.1152 38.5359C19.4779 38.5359 18.9612 39.0526 18.9612 39.6899C18.9612 40.3273 19.4779 40.844 20.1152 40.844Z" fill="#8F818F"/>
        <path d="M27.2664 40.844C27.9038 40.844 28.4205 40.3273 28.4205 39.6899C28.4205 39.0526 27.9038 38.5359 27.2664 38.5359C26.629 38.5359 26.1123 39.0526 26.1123 39.6899C26.1123 40.3273 26.629 40.844 27.2664 40.844Z" fill="#8F818F"/>
        <path d="M29.7124 43.6565C30.3498 43.6565 30.8665 43.1398 30.8665 42.5025C30.8665 41.8651 30.3498 41.3484 29.7124 41.3484C29.075 41.3484 28.5583 41.8651 28.5583 42.5025C28.5583 43.1398 29.075 43.6565 29.7124 43.6565Z" fill="#8F818F"/>
        <path d="M17.6772 43.6565C18.3146 43.6565 18.8312 43.1398 18.8312 42.5025C18.8312 41.8651 18.3146 41.3484 17.6772 41.3484C17.0398 41.3484 16.5231 41.8651 16.5231 42.5025C16.5231 43.1398 17.0398 43.6565 17.6772 43.6565Z" fill="#8F818F"/>
        <path d="M18.7004 50.7534C19.3378 50.7534 19.8545 50.2368 19.8545 49.5994C19.8545 48.962 19.3378 48.4453 18.7004 48.4453C18.0631 48.4453 17.5464 48.962 17.5464 49.5994C17.5464 50.2368 18.0631 50.7534 18.7004 50.7534Z" fill="#8F818F"/>
        <path d="M21.835 52.7444C22.4724 52.7444 22.9891 52.2277 22.9891 51.5903C22.9891 50.953 22.4724 50.4363 21.835 50.4363C21.1977 50.4363 20.681 50.953 20.681 51.5903C20.681 52.2277 21.1977 52.7444 21.835 52.7444Z" fill="#8F818F"/>
        <path d="M25.5606 52.7444C26.198 52.7444 26.7147 52.2277 26.7147 51.5903C26.7147 50.953 26.198 50.4363 25.5606 50.4363C24.9233 50.4363 24.4066 50.953 24.4066 51.5903C24.4066 52.2277 24.9233 52.7444 25.5606 52.7444Z" fill="#8F818F"/>
        <path d="M17.1493 47.3648C17.7866 47.3648 18.3033 46.8481 18.3033 46.2107C18.3033 45.5733 17.7866 45.0566 17.1493 45.0566C16.5119 45.0566 15.9952 45.5733 15.9952 46.2107C15.9952 46.8481 16.5119 47.3648 17.1493 47.3648Z" fill="#8F818F"/>
        <path d="M30.2495 47.3648C30.8868 47.3648 31.4035 46.8481 31.4035 46.2107C31.4035 45.5733 30.8868 45.0566 30.2495 45.0566C29.6121 45.0566 29.0954 45.5733 29.0954 46.2107C29.0954 46.8481 29.6121 47.3648 30.2495 47.3648Z" fill="#8F818F"/>
        <path d="M59.2729 24.5352C57.7845 20.1572 54.872 15.3039 50.776 10.821C46.6799 6.33813 42.1083 3.00087 37.8821 1.12458C32.8518 -1.10878 29.7638 0.317742 27.0961 2.75536C26.2159 3.56196 26.1546 4.94313 26.9599 5.8245L33.4034 12.8765C34.2133 13.7628 35.5884 13.8248 36.4747 13.015L39.2961 10.437C39.6817 10.0846 40.2656 10.0579 40.6792 10.3772C42.4955 11.7795 44.2755 13.419 45.9397 15.2402C47.6037 17.0614 49.0764 18.9816 50.3096 20.9168C50.5904 21.3575 50.5113 21.9365 50.1256 22.289L47.3042 24.867C46.4179 25.6769 46.3559 27.052 47.1657 27.9382L53.6092 34.9902C54.4146 35.8716 55.7956 35.9349 56.6781 35.1309C59.3459 32.693 61.0445 29.746 59.2729 24.5352Z" fill="#FB636F"/>
        <path d="M59.273 24.5354C57.7846 20.1574 54.8721 15.304 50.7761 10.8211C46.68 6.33825 42.1084 3.00099 37.8822 1.1247C35.408 0.0261832 33.4044 -0.185457 31.6889 0.171613C32.5986 0.340832 33.581 0.649035 34.6522 1.1247C38.8785 3.00099 43.4501 6.33837 47.5461 10.8211C51.6422 15.304 54.5547 20.1574 56.0431 24.5354C57.7797 29.6431 56.1812 32.5754 53.6047 34.9852L53.6093 34.9902C54.4146 35.8716 55.7957 35.9349 56.6782 35.1309C59.346 32.6931 61.0446 29.7461 59.273 24.5354Z" fill="#FA4954"/>
    </g>
    <defs>
        <clipPath id="clip0_1:570">
            <rect width="60" height="60" fill="white"/>
        </clipPath>
    </defs>
</svg>
