<svg width="60" height="60" viewBox="0 0 60 60" fill="none" xmlns="http://www.w3.org/2000/svg">
    <g clip-path="url(#clip0_1:303)">
        <path d="M4.72802 30.6896L6.58208 32.5437L17.9853 44.4721L27.0782 51.6508L33.2692 48.6724C37.4938 52.5734 43.2923 46.768 39.3932 42.5483L24.9724 25.0418L4.71665 7.87189C-1.57594 14.1769 -1.57228 24.3893 4.72802 30.6896Z" fill="#FFCFBC"/>
        <path d="M29.4955 9.79843L27.5572 7.86018C21.2498 1.55189 11.0175 1.55677 4.71661 7.87196L39.393 42.5484C43.6178 46.4463 49.4159 40.6517 45.5171 36.4243C48.7115 39.5531 53.9054 36.4484 52.7506 32.202L48.4227 14.8001L29.4955 9.79843Z" fill="#FFB89B"/>
        <path d="M32.3664 6.92766C30.9974 8.29658 26.6895 12.6045 25.2546 14.0395L27.8415 16.6264C30.6379 19.4246 35.1731 19.4183 37.967 16.6264L42.5317 21.1911L50.3371 16.1404L55.9087 7.81401C50.4772 1.6216 40.6109 -0.690257 32.3664 6.92766Z" fill="#FFA07A"/>
        <path d="M42.5317 21.1909L51.6412 30.3004C52.1886 30.8478 52.5577 31.5057 52.7507 32.2021L55.1958 29.7571C62.1169 22.2627 60.8419 13.4379 55.9087 7.8139L42.5317 21.1909Z" fill="#FF8756"/>
        <path d="M19.6137 44.1087C19.5504 44.1654 19.488 44.2239 19.4274 44.2849C19.3735 44.345 19.3181 44.4043 19.2605 44.4621L19.6137 44.1087Z" fill="#FFD8C1"/>
        <path d="M19.2603 44.4622C19.3181 44.4044 19.3735 44.3452 19.4272 44.285C19.3704 44.3422 19.3146 44.4011 19.2603 44.4622Z" fill="#FFD8C1"/>
        <path d="M17.7294 45.993C17.6716 46.0508 17.6162 46.11 17.5625 46.1702C17.6193 46.113 17.6751 46.0541 17.7294 45.993Z" fill="#FFD8C1"/>
        <path d="M19.2295 45.9078C19.2295 45.9078 19.3705 44.3422 19.4274 44.2849C20.9491 42.5846 20.8937 39.9713 19.2605 38.3381C17.5694 36.647 14.8275 36.647 13.1364 38.3381L13.7488 37.7257C15.4399 36.0346 15.4399 33.2928 13.7488 31.6017C12.0577 29.9107 9.31594 29.9107 7.62472 31.6017L5.88965 33.3368C4.19857 35.0279 4.19857 37.7697 5.88965 39.4609C7.58073 41.1521 10.3225 41.152 12.0136 39.4609L11.4012 40.0733C9.71011 41.7643 9.71011 44.5062 11.4012 46.1973C13.1082 47.9168 15.883 47.8604 17.5623 46.1704C17.6164 46.1101 19.2295 45.9078 19.2295 45.9078Z" fill="#FFB89B"/>
        <path d="M27.2215 48.7489L25.5885 50.3819C27.2796 48.6908 27.2796 45.9491 25.5885 44.258C23.9432 42.6006 21.3061 42.5937 19.6138 44.1087L19.2603 44.4621L17.7294 45.9931C17.6751 46.0541 17.6193 46.113 17.5625 46.1702C16.0407 47.8705 16.0961 50.4837 17.7294 52.1171C19.4205 53.8082 22.1622 53.8082 23.8533 52.1171L25.4863 50.4841C23.7952 52.1752 23.7952 54.9169 25.4863 56.6082C27.1774 58.2992 29.9192 58.2992 31.6104 56.6082L33.3456 54.873C35.0367 53.1819 35.0367 50.4401 33.3456 48.7489C31.6544 47.0578 28.9126 47.0578 27.2215 48.7489Z" fill="#FFA07A"/>
    </g>
    <defs>
        <clipPath id="clip0_1:303">
            <rect width="60" height="60" fill="white"/>
        </clipPath>
    </defs>
</svg>
