<svg width="60" height="60" viewBox="0 0 60 60" fill="none" xmlns="http://www.w3.org/2000/svg">
    <path d="M20.911 52.9688H35.5735V56.4844H20.911V52.9688Z" fill="#FFDFEA"/>
    <path d="M28.2422 52.9688H35.5734V56.4844H28.2422V52.9688Z" fill="#FFBFBF"/>
    <path d="M16.4013 47.1579L23.2297 35.9997L26.2285 37.8348L19.4002 48.9931L16.4013 47.1579Z" fill="#FFDFEA"/>
    <path d="M30.2614 37.829L33.2602 35.9939L40.0886 47.1521L37.0898 48.9873L30.2614 37.829Z" fill="#FFBFBF"/>
    <path d="M51.0938 17.5781C51.0938 18.5489 50.3067 19.3359 49.3359 19.3359H47.5781V14.0625C47.5781 10.1855 50.7323 7.03125 54.6094 7.03125V10.5469C52.6709 10.5469 51.0938 12.124 51.0938 14.0625V17.5781Z" fill="#FFBFBF"/>
    <path d="M37.8697 0H17.6953C14.6863 0 11.9265 1.08633 9.78633 2.88656L14.8828 14.2969L28.2422 17.5781L37.8697 0Z" fill="#FFDFEA"/>
    <path d="M51.0938 17.5781V26.3671C51.0938 33.1523 45.5742 38.6718 38.7891 38.6718H17.6953C10.9245 38.6718 5.39062 33.1825 5.39062 26.3671V12.3047C5.39062 8.52887 7.10039 5.14567 9.78633 2.88629L28.2422 17.5781H51.0938Z" fill="#FF9C9C"/>
    <path d="M51.0938 17.5781V26.3672C51.0938 33.1523 45.5742 38.6719 38.7891 38.6719H28.2422V17.5781H51.0938Z" fill="#FF8088"/>
    <path d="M15.9375 60C12.0605 60 8.90625 56.8458 8.90625 52.9688C8.90625 49.0917 12.0605 45.9375 15.9375 45.9375C19.8145 45.9375 22.9688 49.0917 22.9688 52.9688C22.9688 56.8458 19.8145 60 15.9375 60Z" fill="#966641"/>
    <path d="M15.9375 56.4844C17.8791 56.4844 19.4531 54.9104 19.4531 52.9688C19.4531 51.0271 17.8791 49.4531 15.9375 49.4531C13.9959 49.4531 12.4219 51.0271 12.4219 52.9688C12.4219 54.9104 13.9959 56.4844 15.9375 56.4844Z" fill="#FFF5F5"/>
    <path d="M40.5469 60C36.6698 60 33.5156 56.8458 33.5156 52.9688C33.5156 49.0917 36.6698 45.9375 40.5469 45.9375C44.4239 45.9375 47.5781 49.0917 47.5781 52.9688C47.5781 56.8458 44.4239 60 40.5469 60Z" fill="#7E5436"/>
    <path d="M40.5469 56.4844C42.4885 56.4844 44.0625 54.9104 44.0625 52.9688C44.0625 51.0271 42.4885 49.4531 40.5469 49.4531C38.6052 49.4531 37.0312 51.0271 37.0312 52.9688C37.0312 54.9104 38.6052 56.4844 40.5469 56.4844Z" fill="#FFDFEA"/>
</svg>
