<svg width="60" height="60" viewBox="0 0 60 60" fill="none" xmlns="http://www.w3.org/2000/svg">
    <g clip-path="url(#clip0_1:222)">
        <path d="M30 12.2073C33.3696 12.2073 36.1012 9.47569 36.1012 6.10609C36.1012 2.73648 33.3696 0.00488281 30 0.00488281C26.6304 0.00488281 23.8988 2.73648 23.8988 6.10609C23.8988 9.47569 26.6304 12.2073 30 12.2073Z" fill="#B3EBFF"/>
        <path d="M10.9259 22.1157C13.2899 24.4528 13.3118 28.2639 10.9747 30.6279C10.9585 30.6443 10.9423 30.6606 10.9259 30.6767C8.53596 33.0412 4.68814 33.0412 2.29837 30.6767C-0.0657153 28.3396 -0.0874507 24.5285 2.24956 22.1645C2.26571 22.1481 2.28198 22.132 2.29837 22.1157C4.68814 19.7512 8.53596 19.7512 10.9259 22.1157Z" fill="#F77C6A"/>
        <path d="M35.027 2.65198L26.5458 11.1332C29.3208 13.0422 33.118 12.3402 35.027 9.56515C36.4593 7.48324 36.4593 4.73376 35.027 2.65198Z" fill="#8CE2FF"/>
        <path d="M33.5958 1.2074L34.9876 2.59924C33.0561 -0.158379 29.2549 -0.827986 26.4973 1.10355C23.7397 3.03509 23.0702 6.83627 25.0016 9.59376C25.0301 9.63443 25.0591 9.67473 25.0885 9.71464L33.5958 1.2074Z" fill="#8CE2FF"/>
        <path d="M36.1012 16.2747H23.8988C21.6524 16.2747 19.8313 18.0958 19.8313 20.3422C19.8313 22.5886 21.6524 24.4097 23.8988 24.4097H36.1012C38.3476 24.4097 40.1687 22.5886 40.1687 20.3422C40.1687 18.0958 38.3476 16.2747 36.1012 16.2747Z" fill="#EDE3E3"/>
        <path d="M36.1012 16.2747H30V24.4097H36.1012C38.3476 24.4097 40.1687 22.5886 40.1687 20.3422C40.1687 18.0958 38.3476 16.2747 36.1012 16.2747Z" fill="#27AE60"/>
        <path d="M58.2979 1.19614C56.7094 -0.392204 54.1341 -0.392204 52.5456 1.19614L43.9172 9.82464C42.3357 11.4201 42.3472 13.9955 43.9425 15.5768C45.5281 17.1484 48.0838 17.1484 49.6694 15.5768L58.2978 6.94843C59.8862 5.35996 59.8862 2.78462 58.2979 1.19614Z" fill="#EDE3E3"/>
        <path d="M52.5456 1.19612L48.2314 5.5103L53.9837 11.2626L58.2979 6.94841C59.8864 5.35993 59.8864 2.78459 58.2979 1.19612C56.7095 -0.392358 54.1341 -0.392358 52.5456 1.19612Z" fill="#FD614B"/>
        <path d="M5.69054 20.4357H7.59131C5.65965 20.1151 3.69137 20.7398 2.29827 22.1158C-0.065823 24.4585 -0.0831095 28.2742 2.25963 30.6381C3.18459 31.5716 4.38945 32.177 5.69041 32.3624V20.4357H5.69054Z" fill="#FD614B"/>
        <path d="M10.9259 22.1158C10.0521 21.2486 8.93574 20.6672 7.72427 20.4482V32.3442C8.93562 32.1253 10.052 31.5438 10.9259 30.6766C13.29 28.3395 13.3117 24.5284 10.9746 22.1643C10.9584 22.1482 10.9421 22.1319 10.9259 22.1158Z" fill="#FD614B"/>
        <path d="M16.0828 9.82449L7.45439 1.19612C5.86591 -0.392358 3.29057 -0.392358 1.7021 1.19612C0.113624 2.78459 0.113624 5.35993 1.7021 6.94841L10.3305 15.5768C11.9189 17.1653 14.4943 17.1653 16.0828 15.5768C17.6712 13.9883 17.6712 11.413 16.0828 9.82449Z" fill="#EDE3E3"/>
        <path d="M1.7021 6.94841L6.01628 11.2626L11.7686 5.5103L7.45439 1.19612C5.86592 -0.392358 3.29057 -0.392358 1.7021 1.19612C0.113624 2.78459 0.113624 5.35993 1.7021 6.94841Z" fill="#FECD0D"/>
        <path d="M56.8059 24.8334C55.4416 24.0149 53.6794 24.3601 52.7248 25.6328L47.0201 33.2391C45.8866 34.7503 44.2103 35.762 42.345 36.0604L22.8819 38.6458L36.2774 33.267C37.1765 32.9374 37.764 32.0695 37.7359 31.1122C37.6762 29.9166 36.6586 28.9959 35.463 29.0557C35.2837 29.0646 35.1064 29.0959 34.935 29.1485L17.1328 34.6231C14.9543 35.2455 13.1121 36.7079 12.0117 38.6885L8.64589 44.747L3.56155 60H18.8146L19.5795 53.8801C19.7334 52.6488 20.5807 51.6152 21.7579 51.2228L47.6191 42.6024C49.366 42.0201 50.8275 40.7976 51.7093 39.1811L57.8582 29.1138C58.7519 27.6505 58.2902 25.7397 56.827 24.846C56.8199 24.8418 56.8129 24.8376 56.8059 24.8334Z" fill="#EFCB9A"/>
    </g>
    <defs>
        <clipPath id="clip0_1:222">
            <rect width="60" height="60" fill="white"/>
        </clipPath>
    </defs>
</svg>
