<svg width="60" height="60" viewBox="0 0 60 60" fill="none" xmlns="http://www.w3.org/2000/svg">
    <g clip-path="url(#clip0_1:332)">
        <path d="M23.4151 4.74336H20.6055C20.0883 4.74336 19.6689 4.32447 19.6689 3.80681V0.997158C19.6689 0.479952 20.0883 0.0606079 20.6055 0.0606079C21.1227 0.0606079 21.542 0.479952 21.542 0.997158V2.87026H23.4151C23.9323 2.87026 24.3517 3.2896 24.3517 3.80681C24.3517 4.32447 23.9323 4.74336 23.4151 4.74336Z" fill="#9B3244"/>
        <path d="M17.7959 4.74336H14.9862C14.469 4.74336 14.0497 4.32447 14.0497 3.80681C14.0497 3.2896 14.469 2.87026 14.9862 2.87026H16.8593V0.997158C16.8593 0.479952 17.2786 0.0606079 17.7959 0.0606079C18.3131 0.0606079 18.7324 0.479952 18.7324 0.997158V3.80681C18.7324 4.32447 18.3131 4.74336 17.7959 4.74336Z" fill="#9B3244"/>
        <path d="M17.7959 10.3626C17.2786 10.3626 16.8593 9.94373 16.8593 9.42607V7.55297H14.9862C14.469 7.55297 14.0497 7.13408 14.0497 6.61642C14.0497 6.09921 14.469 5.67987 14.9862 5.67987H17.7959C18.3131 5.67987 18.7324 6.09921 18.7324 6.61642V9.42607C18.7324 9.94373 18.3131 10.3626 17.7959 10.3626Z" fill="#9B3244"/>
        <path d="M20.6055 10.3626C20.0883 10.3626 19.6689 9.94373 19.6689 9.42607V6.61642C19.6689 6.09921 20.0883 5.67987 20.6055 5.67987H23.4151C23.9323 5.67987 24.3517 6.09921 24.3517 6.61642C24.3517 7.13408 23.9323 7.55297 23.4151 7.55297H21.542V9.42607C21.542 9.94373 21.1227 10.3626 20.6055 10.3626Z" fill="#9B3244"/>
        <path d="M57.1309 6.61644H55.2578C54.7406 6.61644 54.3213 6.19755 54.3213 5.67989V3.80679C54.3213 3.28958 54.7406 2.87024 55.2578 2.87024C55.775 2.87024 56.1944 3.28958 56.1944 3.80679V4.74334H57.1309C57.6481 4.74334 58.0675 5.16268 58.0675 5.67989C58.0675 6.19755 57.6481 6.61644 57.1309 6.61644Z" fill="#9B3244"/>
        <path d="M52.4481 6.61644H50.5751C50.0578 6.61644 49.6385 6.19755 49.6385 5.67989C49.6385 5.16268 50.0578 4.74334 50.5751 4.74334H51.5116V3.80679C51.5116 3.28958 51.9309 2.87024 52.4481 2.87024C52.9654 2.87024 53.3847 3.28958 53.3847 3.80679V5.67989C53.3847 6.19755 52.9654 6.61644 52.4481 6.61644Z" fill="#9B3244"/>
        <path d="M52.4481 11.2992C51.9309 11.2992 51.5116 10.8804 51.5116 10.3627V9.42614H50.5751C50.0578 9.42614 49.6385 9.00725 49.6385 8.48959C49.6385 7.97238 50.0578 7.55304 50.5751 7.55304H52.4481C52.9654 7.55304 53.3847 7.97238 53.3847 8.48959V10.3627C53.3847 10.8804 52.9654 11.2992 52.4481 11.2992Z" fill="#9B3244"/>
        <path d="M55.2578 11.2992C54.7406 11.2992 54.3213 10.8804 54.3213 10.3627V8.48959C54.3213 7.97238 54.7406 7.55304 55.2578 7.55304H57.1309C57.6481 7.55304 58.0675 7.97238 58.0675 8.48959C58.0675 9.00725 57.6481 9.42614 57.1309 9.42614H56.1944V10.3627C56.1944 10.8804 55.775 11.2992 55.2578 11.2992Z" fill="#9B3244"/>
        <path d="M38.4 37.5226H36.5269C36.0097 37.5226 35.5904 37.1037 35.5904 36.5861V34.713C35.5904 34.1958 36.0097 33.7764 36.5269 33.7764C37.0441 33.7764 37.4635 34.1958 37.4635 34.713V35.6495H38.4C38.9172 35.6495 39.3366 36.0689 39.3366 36.5861C39.3366 37.1037 38.9172 37.5226 38.4 37.5226Z" fill="#9B3244"/>
        <path d="M33.7173 37.5226H31.8442C31.327 37.5226 30.9077 37.1037 30.9077 36.5861C30.9077 36.0689 31.327 35.6495 31.8442 35.6495H32.7808V34.713C32.7808 34.1958 33.2001 33.7764 33.7173 33.7764C34.2345 33.7764 34.6539 34.1958 34.6539 34.713V36.5861C34.6539 37.1037 34.2345 37.5226 33.7173 37.5226Z" fill="#9B3244"/>
        <path d="M33.7173 42.2054C33.2001 42.2054 32.7808 41.7865 32.7808 41.2689V40.3323H31.8442C31.327 40.3323 30.9077 39.9134 30.9077 39.3958C30.9077 38.8786 31.327 38.4592 31.8442 38.4592H33.7173C34.2345 38.4592 34.6539 38.8786 34.6539 39.3958V41.2689C34.6539 41.7865 34.2345 42.2054 33.7173 42.2054Z" fill="#9B3244"/>
        <path d="M36.5269 42.2054C36.0097 42.2054 35.5904 41.7865 35.5904 41.2689V39.3958C35.5904 38.8786 36.0097 38.4592 36.5269 38.4592H38.4C38.9172 38.4592 39.3366 38.8786 39.3366 39.3958C39.3366 39.9134 38.9172 40.3323 38.4 40.3323H37.4635V41.2689C37.4635 41.7865 37.0441 42.2054 36.5269 42.2054Z" fill="#9B3244"/>
        <path d="M1.37139 45.4197L1.21911 44.7251C0.868365 43.1314 1.36042 41.4691 2.5215 40.3231L3.23992 39.6125C4.14949 38.712 5.37688 38.2076 6.65641 38.2076L6.30246 40.549L1.37231 45.4188" fill="#FFD9C0"/>
        <path d="M20.1889 15.8772C19.8679 14.5044 18.9674 13.3383 17.7208 12.6797L17.6609 12.6491C14.6414 10.6877 12.4765 10.5025 10.9505 11.0316C9.88181 11.4011 8.71661 11.3764 7.66437 10.9621C6.99488 10.7005 6.39079 10.2963 5.89324 9.77726L4.65442 8.4895L5.21598 11.4089C5.49722 12.8476 6.47676 15.1121 7.73936 15.7688L7.74851 15.777L7.82991 15.065H12.9315C13.1062 16.3102 13.4204 17.5317 13.8681 18.7065L13.9788 18.9013C14.4813 18.7714 15.0155 18.8816 15.4257 19.1999C15.8359 19.5187 16.075 20.0089 16.0737 20.5279V20.6834C16.0714 20.9729 16.0041 21.2582 15.877 21.518L17.3061 22.2561L17.3998 22.7376H18.2522L19.6571 19.5895C20.3019 18.4655 20.4921 17.137 20.1889 15.8772Z" fill="#A97C50"/>
        <path d="M17.306 22.2571L15.8769 21.519C16.0041 21.2592 16.0713 20.9739 16.0736 20.6844V20.5289C16.0749 20.0099 15.8358 19.5197 15.4256 19.2009C15.0154 18.8826 14.4812 18.7724 13.9787 18.9023L13.868 18.7075C13.4203 17.5327 13.1061 16.3112 12.9315 15.0665H7.82981L6.83839 23.7556C6.75562 25.5254 8.11837 27.0294 9.88766 27.1204C10.2581 27.1172 10.6244 27.04 10.9646 26.8941L11.6144 29.3123L12.8565 28.5422C14.4735 27.5197 16.3447 26.9714 18.2576 26.9595L17.306 22.2571Z" fill="#FFD9C0"/>
        <path d="M18.1703 26.3196L20.6142 29.5454C20.9855 30.0357 21.3115 30.5584 21.5891 31.1076C22.6158 33.1375 22.929 35.4547 22.4786 37.6849L21.8137 40.9779C20.7248 46.3654 20.4271 51.8827 20.9297 57.3561L21.1739 59.9998H5.16565V45.8431C5.16474 41.47 6.19137 37.1577 8.16234 33.2541L11.0397 27.9298" fill="#567E99"/>
        <path d="M21.591 31.1076C21.3134 30.5584 20.9873 30.0357 20.616 29.5454L18.1704 26.3196L15.3758 26.9512L17.3427 29.5454C19.1019 31.8658 19.781 34.83 19.2071 37.6849L18.5422 40.9779C17.4538 46.3654 17.1556 51.8827 17.6582 57.3561L17.9019 59.9998H21.1799L20.9361 57.3561C20.4336 51.8827 20.7317 46.3654 21.8201 40.9779L22.4786 37.6849C22.93 35.4547 22.6172 33.138 21.591 31.1076Z" fill="#415F73"/>
        <path d="M59.4948 46.2273C61.2568 42.9951 57.8449 40.7388 57.8449 40.7388L56.5338 43.349L59.493 46.2273" fill="#FFD9C0"/>
        <path d="M43.5587 13.8957L41.0756 17.8788C40.5826 17.7978 40.0842 17.7544 39.5848 17.7484C34.844 17.7379 36.8895 22.2076 36.8895 26.6992C36.8895 31.5904 29.0372 30.6164 29.0372 30.6164C29.0372 30.6164 35.9086 28.6573 31.9886 20.8224C30.4328 17.7315 30.635 15.3563 31.6045 13.7045C32.3732 12.4913 33.6074 11.6485 35.0173 11.3737C36.4267 11.0984 37.8873 11.4157 39.0557 12.2508C39.5601 12.5773 40.0993 12.8457 40.6636 13.0515C41.601 13.4201 42.57 13.7022 43.5587 13.8957Z" fill="#FFC55F"/>
        <path d="M43.5587 13.8958L41.0756 17.8788C40.5826 17.7979 40.0842 17.7545 39.5848 17.7485C37.3893 15.6701 40.6494 13.0658 40.6494 13.0658L40.6599 13.0543C41.5988 13.422 42.5687 13.7037 43.5587 13.8958Z" fill="#CC5065"/>
        <path d="M53.9468 19.9531C54.6666 19.9307 55.3319 19.5635 55.7339 18.9658C56.1363 18.3681 56.2264 17.6136 55.9763 16.9381L55.9648 16.9111C54.5705 13.4197 50.8975 11.4057 47.2039 12.1068C43.5103 12.8078 40.831 16.0272 40.8122 19.7866C40.7935 23.5466 43.4412 26.7925 47.1275 27.5297C47.797 27.6591 48.4798 27.7039 49.1602 27.6636V19.9568L53.9468 19.9531Z" fill="#FFC55F"/>
        <path d="M43.7683 31.5965C42.4888 35.4259 42.2496 39.527 43.0755 43.4794L43.6663 46.5438C44.4401 50.5525 44.2722 54.6865 43.1765 58.6197L43.1523 58.7048C43.0672 59.0139 43.1317 59.345 43.3265 59.5993C43.5218 59.8535 43.8245 60.0017 44.1451 59.9999H57.5179L57.2248 57.0274C56.7684 52.4818 56.5402 47.9226 56.5402 43.3491L57.8513 40.7388C58.2688 39.9015 58.3365 38.9325 58.0388 38.0453C57.7086 37.0603 56.9614 36.2701 55.996 35.886C53.7621 34.9947 51.7322 33.6598 50.0292 31.9614C49.1859 31.1209 47.9782 30.756 46.8102 30.9896L43.7701 31.5965" fill="#CC5065"/>
        <path d="M46.3475 59.676L46.3712 59.5823C47.4678 55.2951 47.6357 50.8227 46.8628 46.4651L46.272 43.1419C45.5014 39.1131 45.6665 34.9608 46.7531 31.0051L43.7683 31.601C42.4888 35.4304 42.2496 39.5315 43.0755 43.4839L43.6663 46.5483C44.4391 50.5556 44.2713 54.6878 43.1765 58.6196L43.1523 58.7047C43.0672 59.0138 43.1317 59.3449 43.3265 59.5992C43.5218 59.8534 43.8245 60.0016 44.1451 59.9998H46.315C46.3104 59.8909 46.3218 59.7821 46.3475 59.676Z" fill="#993C4C"/>
        <path d="M47.6973 25.3671C48.022 26.3009 48.5854 27.1336 49.3312 27.7825L49.8832 28.1497C50.3789 28.479 50.9606 28.6546 51.5555 28.6546C53.2192 28.6573 54.5691 27.3106 54.5714 25.6474L53.8791 20.1776C53.6875 18.8615 52.5954 17.8628 51.2674 17.7887H48.6786C48.6786 17.7887 49.2567 20.6459 48.6786 22.1184H47.523C46.6844 22.1253 46.0098 22.8103 46.0158 23.6485C46.0135 24.2728 46.3899 24.8352 46.9674 25.0712L47.6973 25.3643" fill="#FFD9C0"/>
        <path d="M45.986 35.8269C46.4104 35.2649 47.0621 34.9196 47.7654 34.8835C48.4687 34.8474 49.1519 35.1241 49.6321 35.6394L59.4947 46.2273C60.0361 46.8067 60.0197 47.7112 59.4572 48.2705C59.3012 48.4237 59.116 48.5444 58.913 48.6254C57.7949 49.042 56.5382 48.8069 55.6465 48.014L46.9702 40.7438C45.815 39.8233 45.2571 38.3434 45.5178 36.8897C45.5937 36.5051 45.7537 36.1425 45.986 35.8269Z" fill="#993C4C"/>
        <path d="M43.6941 27.5324H52.7322C53.7666 27.5324 54.6053 28.3711 54.6053 29.4055V29.9881C54.6053 31.0225 53.7666 31.8612 52.7322 31.8612H43.6941C42.6597 31.8612 41.821 31.0225 41.821 29.9881V29.4055C41.821 28.3711 42.6597 27.5324 43.6941 27.5324Z" fill="#A9A2DA"/>
        <path d="M0.750911 46.0316L5.73594 41.0959C7.6758 39.1753 9.39068 37.0401 10.8476 34.7317L11.7476 33.3072C12.2543 32.5115 13.0591 31.9527 13.9815 31.756C14.9043 31.5594 15.8674 31.7414 16.6544 32.2613C17.4382 32.7822 17.976 33.5999 18.1448 34.5259C18.3135 35.4519 18.0981 36.4068 17.5485 37.1705L16.434 38.7161C15.2542 40.3505 13.869 41.8272 12.3133 43.1094L4.21587 49.7915C3.29762 50.5511 1.97968 50.5849 1.02346 49.8738C0.429887 49.4321 0.0585594 48.7534 0.00642716 48.0153C-0.0461623 47.2773 0.225931 46.5529 0.750911 46.0316Z" fill="#314756"/>
    </g>
    <defs>
        <clipPath id="clip0_1:332">
            <rect width="60" height="60" fill="white"/>
        </clipPath>
    </defs>
</svg>
