<svg width="60" height="60" viewBox="0 0 60 60" fill="none" xmlns="http://www.w3.org/2000/svg">
    <g clip-path="url(#clip0_1:206)">
        <path d="M35.5494 25.2674C35.3599 26.442 34.9763 27.577 34.4146 28.6259H34.3993C34.3993 28.6259 31.5013 33.7326 27.6012 34.8002C24.8932 35.5414 24.0413 36.0695 22.0053 34.1363C21.7378 33.8975 21.4828 33.645 21.2413 33.3799H21.2566L12.9906 18.8877C12.9906 13.1123 14.894 7.90606 20.6221 7.02191C25.6577 6.24461 30.5125 9.34566 32.3933 14.081C33.8178 17.6933 34.87 21.4415 35.5341 25.2673L35.5494 25.2674Z" fill="#D8B99C"/>
        <path d="M24.1398 34.0854C23.502 34.0227 22.8709 33.9047 22.2535 33.7327L24.1398 34.0854Z" fill="#EBCDAF"/>
        <path d="M28.5852 41.9523L39.4513 53.8504C28.0335 57.5125 30.1756 57.367 23.4371 56.4484C20.9846 55.6544 18.7302 54.3451 16.8251 52.6083C13.483 48.4243 11.701 46.0503 11.629 44.3163C10.783 41.3838 10.9294 38.3268 11.401 37.0322L12.025 36.8162C15.4418 37.5797 18.9919 36.2981 21.1331 33.5282C21.1697 33.5351 22.2118 33.7321 22.2491 33.7321C22.949 33.9176 23.6638 34.0421 24.3851 34.1042C25.9931 34.0442 28.9092 33.2882 30.8052 29.9281C31.5435 28.6938 33.0469 28.1475 34.4053 28.62H34.4172C36.0266 29.1675 36.8875 30.9159 36.3401 32.5253C36.3243 32.5719 36.3073 32.6182 36.2892 32.664C34.1665 37.9807 30.7118 40.339 28.5852 41.9523Z" fill="#D35B5B"/>
        <path d="M24.1398 34.0854C23.502 34.0227 22.8709 33.9047 22.2535 33.7327L24.1398 34.0854Z" fill="#EBCDAF"/>
        <path d="M21.2566 33.38H21.2412C21.2201 33.4399 21.183 33.4929 21.1339 33.5333C15.8601 40.3213 4.87804 36.5686 4.87804 27.9357C4.88388 22.9072 8.95891 18.8322 13.9874 18.8264C21.5139 18.8264 25.7275 27.4779 21.2566 33.38Z" fill="#EBCDAF"/>
        <path d="M35.5341 25.2673C35.5341 25.2673 34.7826 20.9273 30.1819 13.2594C23.1929 17.1322 12.9446 8.08085 12.9446 18.5196C12.9446 18.5196 5.5068 9.30289 15.8585 2.6624C20.2136 -1.30943 29.5378 -1.69276 36.8222 7.50864C45.6842 18.7028 41.9648 25.2673 35.5341 25.2673Z" fill="#966050"/>
        <path d="M42.0703 41.7163L43.7541 45.0198C42.5521 45.4406 36.6722 47.7563 34.1692 48.4243L28.5871 41.9526C30.502 40.5005 34.1265 38.0949 36.2855 32.6591C36.9067 31.0806 36.1305 29.2973 34.552 28.6761C34.5066 28.6582 34.4608 28.6415 34.4145 28.6258C34.9764 27.5769 35.3598 26.442 35.5494 25.2673C36.8537 25.2673 40.3014 24.9188 44.2141 27.4603C47.3887 29.5154 48.6768 31.9231 50.0571 34.9748L42.0703 41.7163Z" fill="#7AD2F5"/>
        <path d="M52.9095 51.6448L29.3538 59.7573C28.0627 60.2004 26.6403 60.031 25.4892 59.2973H25.4739C24.5544 58.7431 23.8636 57.8782 23.5263 56.8589C23.4812 56.7246 23.4503 56.5857 23.4342 56.4448C22.8782 54.1381 24.176 51.7886 26.4246 51.0313C26.7768 50.9128 34.0416 48.4583 34.3992 48.3629C41.9447 45.8207 43.3982 45.1442 43.7539 45.0197L40.9322 39.4835L49.4742 35.2662L54.8416 47.2587C55.5683 48.892 54.8333 50.805 53.2001 51.5317C53.1052 51.5742 53.0081 51.6118 52.9095 51.6448Z" fill="#D8B99C"/>
        <path d="M16.8251 52.6084C16.1064 53.0714 15.2679 53.3134 14.4131 53.3045H12.5411C10.0326 53.3045 7.99896 51.271 7.99896 48.7624C7.99896 46.2539 10.0325 44.2203 12.5411 44.2203H14.4131C19.0807 44.2204 20.6036 50.405 16.8251 52.6084Z" fill="#D8B99C"/>
    </g>
    <defs>
        <clipPath id="clip0_1:206">
            <rect width="60" height="60" fill="white"/>
        </clipPath>
    </defs>
</svg>
