<svg width="60" height="60" viewBox="0 0 60 60" fill="none" xmlns="http://www.w3.org/2000/svg">
    <g clip-path="url(#clip0_1:319)">
        <path d="M60 14.1797V8.90625C60 8.47195 59.8386 8.05313 59.5468 7.73039C59.3339 7.49004 57.3667 5.39062 54.7266 5.39062C53.3018 5.39062 51.9555 6.00176 51.0938 6.60258C50.232 6.00176 49.0029 5.39062 47.5781 5.39062C46.1534 5.39062 44.9243 6.00176 44.0625 6.60258C43.2007 6.00176 41.9716 5.39062 40.5469 5.39062C39.1221 5.39062 37.893 6.00176 37.0312 6.60258C36.1695 6.00176 34.9404 5.39062 33.5156 5.39062C32.0909 5.39062 30.8618 6.00176 30 6.60258C29.1382 6.00176 27.9091 5.39062 26.4844 5.39062C25.0596 5.39062 23.8305 6.00176 22.9688 6.60258C22.107 6.00176 20.8779 5.39062 19.4531 5.39062C18.0284 5.39062 16.7993 6.00176 15.9375 6.60258C15.0757 6.00176 13.8466 5.39062 12.4219 5.39062C10.9971 5.39062 9.76805 6.00176 8.90625 6.60258C8.04445 6.00176 6.6982 5.39062 5.27344 5.39062C2.63332 5.39062 0.666094 7.49004 0.453164 7.73039C0.161367 8.05313 0 8.47195 0 8.90625V14.1797L1.75781 17.6953V21.2109L0 24.7266C0 26.149 0.134297 27.5375 0.327422 28.9073L23.6453 53.9135C25.6956 54.3596 27.818 54.6094 30 54.6094C32.182 54.6094 34.3044 54.3596 36.3547 53.9135L59.6726 28.9073C59.8657 27.5375 60 26.149 60 24.7266L58.2422 21.2109V17.6953L60 14.1797Z" fill="#ECF2FF"/>
        <path d="M59.6726 28.9073C59.8657 27.5375 60 26.149 60 24.7266L58.2422 21.2109V17.6953L60 14.1797V8.90625C60 8.47195 59.8386 8.05313 59.5468 7.73039C59.3339 7.49004 57.3667 5.39062 54.7266 5.39062C53.3018 5.39062 51.9555 6.00176 51.0938 6.60258C50.232 6.00176 49.0029 5.39062 47.5781 5.39062C46.1534 5.39062 44.9243 6.00176 44.0625 6.60258C43.2007 6.00176 41.9716 5.39062 40.5469 5.39062C39.1221 5.39062 37.893 6.00176 37.0312 6.60258C36.1695 6.00176 34.9404 5.39062 33.5156 5.39062C32.0909 5.39062 30.8618 6.00176 30 6.60258V54.6094C32.182 54.6094 34.3044 54.3596 36.3547 53.9135L59.6726 28.9073Z" fill="#D9E5FF"/>
        <path d="M5.27347 28.2422C3.59101 28.2422 1.93339 28.4829 0.327454 28.9073C0.492454 30.0772 0.724836 31.2229 1.02156 32.3453C3.95452 43.4402 13.0626 51.6096 23.6453 53.9134C24.3462 51.8957 24.7266 49.7597 24.7266 47.5781C24.7266 36.9163 15.9337 28.2422 5.27347 28.2422Z" fill="#D9E5FF"/>
        <path d="M47.5781 14.1797C45.2895 14.1797 43.3566 15.6537 42.6285 17.6953H30H17.3715C16.6434 15.6537 14.7105 14.1797 12.4219 14.1797H0V24.7266H12.4219C14.7105 24.7266 16.6434 23.2526 17.3715 21.2109H30H42.6285C43.3566 23.2526 45.2895 24.7266 47.5781 24.7266H60V14.1797H47.5781Z" fill="#7ADFE3"/>
        <path d="M47.5781 24.7266H60V14.1797H47.5781C45.2895 14.1797 43.3566 15.6537 42.6285 17.6953H30V21.2109H42.6285C43.3566 23.2526 45.2895 24.7266 47.5781 24.7266Z" fill="#68C9E0"/>
        <path d="M54.7266 28.2422C44.0664 28.2422 35.2734 36.9163 35.2734 47.5781C35.2734 49.7597 35.6538 51.8957 36.3547 53.9135C48.1175 51.3527 57.8837 41.5897 59.6726 28.9073C58.0666 28.4829 56.409 28.2422 54.7266 28.2422Z" fill="#BFD6FF"/>
    </g>
    <defs>
        <clipPath id="clip0_1:319">
            <rect width="60" height="60" fill="white"/>
        </clipPath>
    </defs>
</svg>
