<svg width="60" height="60" viewBox="0 0 60 60" fill="none" xmlns="http://www.w3.org/2000/svg">
    <path d="M58.8819 18.3154C56.885 20.4877 54.0279 21.857 50.851 21.8833C44.858 21.9326 39.8705 17.1093 39.7298 11.1176C39.6016 5.6574 43.4399 1.07091 48.5652 0.0375543C48.9773 -0.0455317 49.2865 0.404586 49.0685 0.764C48.0578 2.43041 47.4763 4.38509 47.4763 6.47584C47.4763 12.5684 52.4153 17.5075 58.508 17.5075H58.519C58.941 17.507 59.1676 18.0047 58.8819 18.3154Z" fill="#FEE97D"/>
    <path d="M58.8823 18.3158C58.5173 18.7131 58.1235 19.0842 57.7032 19.4238C57.625 19.3768 57.5321 19.3503 57.4298 19.3503H57.4178C50.7061 19.3503 45.2661 13.9103 45.2661 7.19853C45.2661 4.89462 45.9068 2.7413 47.0196 0.905912C47.11 0.756615 47.1184 0.592787 47.0689 0.451928C47.553 0.279662 48.0528 0.141264 48.5647 0.03767C48.9778 -0.0454159 49.2861 0.405053 49.0682 0.763881C48.0578 2.43064 47.4761 4.38533 47.4761 6.47595C47.4761 12.5686 52.415 17.5076 58.5077 17.5076H58.5186C58.9412 17.5065 59.1676 18.005 58.8823 18.3158Z" fill="#FEE45A"/>
    <path d="M56.2159 0.273994L57.1113 2.12497C57.1802 2.26747 57.3149 2.36696 57.4714 2.39099L59.5038 2.70271C59.8979 2.76317 60.0517 3.24927 59.764 3.52524L58.2804 4.94884C58.1661 5.05841 58.1132 5.21732 58.1387 5.37353L58.4704 7.40274C58.5347 7.79626 58.1198 8.09263 57.7684 7.90431L55.9561 6.93317C55.8165 6.85841 55.6492 6.85712 55.5084 6.92966L53.681 7.87208C53.3266 8.05478 52.9166 7.75196 52.987 7.3595L53.3505 5.33579C53.3786 5.17993 53.328 5.02032 53.2155 4.90888L51.7546 3.46208C51.4712 3.18153 51.6326 2.6979 52.0276 2.64376L54.0647 2.36415C54.2216 2.34259 54.3578 2.24532 54.4289 2.10388L55.3534 0.267315C55.5325 -0.0889353 56.0422 -0.0849509 56.2159 0.273994Z" fill="#FEE97D"/>
    <path d="M58.28 4.94895C58.1657 5.05852 58.1126 5.21754 58.1391 5.37293L58.4702 7.40227C58.5341 7.79613 58.1198 8.09238 57.7682 7.90453L56.0519 6.98566L55.8906 5.99332C55.8677 5.85117 55.9159 5.70668 56.0195 5.60672L57.3683 4.31203C57.6296 4.0616 57.49 3.61957 57.1323 3.56414L55.2837 3.28113C55.1415 3.25945 55.0187 3.1691 54.9561 3.03902L54.4671 2.02863L55.3535 0.267891C55.5329 -0.0885938 56.0423 -0.084961 56.2158 0.273867L57.1118 2.12496C57.1805 2.26711 57.3153 2.36707 57.4719 2.39109L59.5036 2.70305C59.8975 2.76328 60.0516 3.24984 59.7638 3.52559L58.28 4.94895Z" fill="#FEE45A"/>
    <path d="M6.43652 37.1173L7.67121 39.6694C7.76624 39.8659 7.95199 40.003 8.16773 40.0362L10.97 40.4659C11.5134 40.5493 11.7254 41.2196 11.3287 41.6001L9.28312 43.563C9.12562 43.7141 9.0525 43.933 9.08777 44.1486L9.54503 46.9465C9.63374 47.4891 9.06175 47.8977 8.57718 47.6382L6.07828 46.2992C5.88585 46.1961 5.65499 46.1943 5.46105 46.2944L2.94128 47.5939C2.45273 47.8458 1.8873 47.4282 1.98445 46.8871L2.48566 44.0968C2.52421 43.882 2.4546 43.6618 2.29956 43.5082L0.285112 41.5134C-0.105474 41.1265 0.116948 40.4597 0.661635 40.385L3.47039 39.9994C3.68671 39.9698 3.87445 39.8355 3.97265 39.6405L5.2473 37.1082C5.49421 36.6169 6.19722 36.6224 6.43652 37.1173Z" fill="#FEE97D"/>
    <path d="M9.28394 43.56C9.12633 43.7111 9.0532 43.9301 9.08976 44.1443L9.54621 46.9411C9.63422 47.4839 9.06316 47.8922 8.57859 47.6334L6.21328 46.3668L5.99086 44.9991C5.95933 44.8033 6.02566 44.6041 6.16851 44.4663L8.02746 42.682C8.38758 42.3367 8.19515 41.7276 7.70215 41.6512L5.15437 41.2612C4.95855 41.2313 4.78922 41.1068 4.70297 40.9275L4.02902 39.535L5.2507 37.1084C5.49797 36.617 6.20015 36.6221 6.4391 37.1167L7.67402 39.6679C7.76859 39.8637 7.95457 40.0015 8.17031 40.0347L10.9704 40.4645C11.5132 40.5475 11.7257 41.2181 11.329 41.5982L9.28394 43.56Z" fill="#FEE45A"/>
    <path d="M36.9943 28.1608H39.1535C40.3622 28.1608 41.342 27.181 41.342 25.9724V25.8512C41.342 24.6425 40.3622 23.6627 39.1535 23.6627H36.9943V28.1608Z" fill="#FFCEBF"/>
    <path d="M39.2033 59.9999H12.8992V53.4433C12.8992 46.7187 18.3505 41.2674 25.0751 41.2674H27.0272C33.7517 41.2674 39.2031 46.7187 39.2031 53.4433V59.9999H39.2033Z" fill="#FE7AB6"/>
    <path d="M39.2033 53.7808V60H36.8054V53.7808C36.8054 47.0571 31.504 41.5725 24.8524 41.2811C25.0379 41.2715 25.2246 41.2679 25.4124 41.2679H26.6902C33.6007 41.2678 39.2033 46.8691 39.2033 53.7808Z" fill="#FE5CA7"/>
    <path d="M28.5689 42.4348V38.4313H23.5336V42.4348C23.5336 43.8252 24.6608 44.9524 26.0512 44.9524C27.4418 44.9524 28.5689 43.8252 28.5689 42.4348Z" fill="#FFCEBF"/>
    <path d="M19.6306 53.6457V59.9997H17.8242V53.6457C17.8242 53.147 18.2288 52.7424 18.7275 52.7424C19.226 52.7425 19.6306 53.1471 19.6306 53.6457Z" fill="#FE3D97"/>
    <path d="M34.279 53.6457V59.9997H32.4725V53.6457C32.4725 53.147 32.876 52.7424 33.3758 52.7424C33.8743 52.7425 34.279 53.1471 34.279 53.6457Z" fill="#FE3D97"/>
    <path d="M37.6345 21.1295V27.7756C37.6345 34.173 32.4487 39.3589 26.0512 39.3589C19.6538 39.3589 14.4679 34.1731 14.4679 27.7756V21.8836L15.1092 18.6088L26.3286 15.8186L37.6345 21.1295Z" fill="#FFCEBF"/>
    <path d="M37.6346 21.1296V27.776C37.6346 34.1729 32.4482 39.3595 26.0512 39.3595C25.6113 39.3595 25.1767 39.3348 24.7498 39.2866C30.5492 38.6203 35.0617 33.448 35.0617 27.1683V21.0842L37.6346 21.1296Z" fill="#FFB09E"/>
    <path d="M15.1092 28.1608H12.9492C11.7405 28.1608 10.7607 27.181 10.7607 25.9724V25.8512C10.7607 24.6425 11.7405 23.6627 12.9492 23.6627H15.1092V28.1608Z" fill="#FFCEBF"/>
    <path d="M35.0071 13.1337C33.3368 11.1539 30.975 9.71098 28.3507 9.08379C27.5807 8.89981 26.8126 8.81965 26.0514 8.82926C25.2901 8.81965 24.5221 8.89981 23.752 9.08379C21.1277 9.71098 18.7658 11.1539 17.0955 13.1337C15.3984 15.1453 14.4681 17.6586 14.4681 20.2134V23.6045C19.8689 23.145 22.5581 19.9849 25.809 16.5649C25.9405 16.4266 26.1621 16.4266 26.2936 16.5649C29.5446 19.985 32.2337 23.145 37.6345 23.6045V20.2134C37.6345 17.6586 36.7042 15.1453 35.0071 13.1337Z" fill="#596C76"/>
    <path d="M37.6351 20.2135V23.6046C36.7187 23.5261 35.8794 23.3705 35.1035 23.1489V20.2135C35.1035 17.659 34.1731 15.1451 32.4757 13.1338C30.8048 11.154 28.4441 9.711 25.8187 9.08323C25.4744 9.00096 25.1301 8.93885 24.7858 8.89713C25.2086 8.84651 25.6313 8.82377 26.0517 8.82881C26.8125 8.8199 27.5808 8.89971 28.3504 9.08323C30.9745 9.71112 33.3365 11.154 35.0074 13.1338C36.7047 15.1451 37.6351 17.659 37.6351 20.2135Z" fill="#465A61"/>
    <path d="M30.063 2.78121C28.8497 -0.920865 23.2567 -0.932818 22.0397 2.78132C21.3286 4.95128 22.2594 7.54675 24.1875 8.77031H24.6349H27.468H27.9155C29.8433 7.54663 30.7741 4.95117 30.063 2.78121Z" fill="#596C76"/>
    <path d="M27.9148 8.77052H25.3832C27.3111 7.54649 28.2427 4.95149 27.5313 2.78071C27.0756 1.39333 26.006 0.523796 24.7807 0.175632C26.825 -0.407845 29.3021 0.462975 30.0629 2.78071C30.7743 4.95149 29.8427 7.54649 27.9148 8.77052Z" fill="#465A61"/>
    <path d="M31.2894 6.91943C31.2501 6.4208 30.8374 6.03467 30.3372 6.03467H21.7654C21.2652 6.03467 20.8525 6.42068 20.8133 6.91943C20.7547 7.6644 20.7654 8.74475 21.1593 9.61615C21.3151 9.96057 21.6553 10.1844 22.0332 10.1844H30.0696C30.4475 10.1844 30.7877 9.96057 30.9434 9.61615C31.3373 8.74475 31.348 7.6644 31.2894 6.91943Z" fill="#8AC9FE"/>
    <path d="M30.9427 9.61599C30.787 9.96029 30.4479 10.1843 30.0693 10.1843H27.4149C27.7921 10.1843 28.1326 9.96029 28.2883 9.61599C28.682 8.74505 28.6934 7.66411 28.6339 6.91974C28.5946 6.42099 28.182 6.03497 27.682 6.03497H30.3377C30.8377 6.03497 31.2504 6.42111 31.2896 6.91974C31.3477 7.66411 31.3377 8.74517 30.9427 9.61599Z" fill="#60B7FF"/>
    <path d="M21.7213 28.017C22.3873 28.017 22.9273 27.4771 22.9273 26.811C22.9273 26.145 22.3873 25.605 21.7213 25.605C21.0553 25.605 20.5153 26.145 20.5153 26.811C20.5153 27.4771 21.0553 28.017 21.7213 28.017Z" fill="#596C76"/>
    <path d="M30.3815 28.017C31.0475 28.017 31.5874 27.4771 31.5874 26.811C31.5874 26.145 31.0475 25.605 30.3815 25.605C29.7154 25.605 29.1755 26.145 29.1755 26.811C29.1755 27.4771 29.7154 28.017 30.3815 28.017Z" fill="#596C76"/>
    <path d="M21.2802 31.3417C20.0074 31.3417 18.7983 30.7902 17.9628 29.8288C17.6357 29.4521 17.6756 28.8818 18.0523 28.5546C18.4289 28.2271 18.9993 28.2674 19.3264 28.644C19.8186 29.2104 20.5308 29.5352 21.2802 29.5352C22.0042 29.5352 22.6754 29.2438 23.1701 28.7147C23.5106 28.3505 24.0821 28.3309 24.4467 28.6718C24.8111 29.0125 24.8304 29.5841 24.4896 29.9484C23.6619 30.8339 22.4921 31.3417 21.2802 31.3417Z" fill="#596C76"/>
    <path d="M30.9082 31.3417C29.6353 31.3417 28.4263 30.7902 27.5908 29.8288C27.2638 29.4522 27.3037 28.8817 27.6804 28.5545C28.057 28.2273 28.6272 28.2674 28.9547 28.6441C29.4466 29.2104 30.1588 29.5353 30.9082 29.5353C31.6322 29.5353 32.3034 29.2438 32.7981 28.7147C33.1386 28.3505 33.7102 28.3309 34.0747 28.6718C34.439 29.0125 34.4584 29.5841 34.1176 29.9485C33.2898 30.8339 32.12 31.3417 30.9082 31.3417Z" fill="#596C76"/>
    <path d="M28.7286 35.8542C27.7682 35.8542 27.2446 35.4774 26.8624 35.2023C26.5741 34.9949 26.4295 34.8907 26.0514 34.8907C25.6732 34.8907 25.5286 34.9948 25.2403 35.2023C24.8581 35.4774 24.3346 35.8542 23.3741 35.8542C22.8752 35.8542 22.4708 35.4499 22.4708 34.951C22.4708 34.4521 22.8751 34.0477 23.3741 34.0477C23.7523 34.0477 23.8969 33.9436 24.1852 33.7361C24.5674 33.461 25.0909 33.0842 26.0514 33.0842C27.0118 33.0842 27.5354 33.461 27.9176 33.7361C28.2059 33.9435 28.3505 34.0477 28.7286 34.0477C29.2275 34.0477 29.6319 34.452 29.6319 34.951C29.6319 35.4498 29.2275 35.8542 28.7286 35.8542Z" fill="#596C76"/>
</svg>
