<svg width="60" height="60" viewBox="0 0 60 60" fill="none" xmlns="http://www.w3.org/2000/svg">
    <g clip-path="url(#clip0_1:267)">
        <path d="M31.9791 11.0578C35.0326 11.0578 37.508 8.58244 37.508 5.52891C37.508 2.47538 35.0326 0 31.9791 0C28.9255 0 26.4502 2.47538 26.4502 5.52891C26.4502 8.58244 28.9255 11.0578 31.9791 11.0578Z" fill="#BCBCBC"/>
        <path opacity="0.1" d="M31.9791 11.0578C35.0326 11.0578 37.508 8.58244 37.508 5.52891C37.508 2.47538 35.0326 0 31.9791 0C28.9255 0 26.4502 2.47538 26.4502 5.52891C26.4502 8.58244 28.9255 11.0578 31.9791 11.0578Z" fill="black"/>
        <path d="M44.3734 60H47.3841C47.8952 60 48.3097 59.5857 48.3097 59.0744V56.7671C48.3097 53.0051 46.492 49.4751 43.4299 47.2899L43.2425 47.1562L40.9563 50.3607L41.1427 50.4936C43.1699 51.9399 44.3733 54.2767 44.3733 56.7671V60H44.3734Z" fill="#DF85C6"/>
        <path opacity="0.15" d="M44.3734 60H47.3841C47.8952 60 48.3097 59.5857 48.3097 59.0744V56.7671C48.3097 53.0051 46.492 49.4751 43.4299 47.2899L43.2425 47.1562L40.9563 50.3607L41.1427 50.4936C43.1699 51.9399 44.3733 54.2767 44.3733 56.7671V60H44.3734Z" fill="black"/>
        <path d="M11.3429 37.754L12.9718 46.7067C13.1802 47.8517 14.2495 48.6508 15.4068 48.5275L20.4073 47.9919C21.7501 47.8473 22.9569 48.8206 23.1008 50.1644C23.2447 51.508 22.2721 52.714 20.9284 52.8579L15.9279 53.3935C15.6748 53.4205 15.4229 53.4338 15.1732 53.4338C11.78 53.4338 8.77618 50.9861 8.15707 47.5826L6.52817 38.6298L11.3429 37.754Z" fill="#DF85C6"/>
        <path opacity="0.15" d="M11.3429 37.754L12.9718 46.7067C13.1802 47.8517 14.2495 48.6508 15.4068 48.5275L20.4073 47.9919C21.7501 47.8473 22.9569 48.8206 23.1008 50.1644C23.2447 51.508 22.2721 52.714 20.9284 52.8579L15.9279 53.3935C15.6748 53.4205 15.4229 53.4338 15.1732 53.4338C11.78 53.4338 8.77618 50.9861 8.15707 47.5826L6.52817 38.6298L11.3429 37.754Z" fill="black"/>
        <path d="M31.9788 38.7368C39.0213 38.7368 44.7303 44.4458 44.7303 51.4883V60H20.153C19.6418 60 19.2273 59.5856 19.2273 59.0744V51.4883C19.2273 44.4458 24.9363 38.7368 31.9788 38.7368Z" fill="#DF85C6"/>
        <g opacity="0.1">
            <path opacity="0.1" d="M25.0894 50.8911C24.8881 50.8911 24.6857 50.8223 24.5203 50.6815L23.488 49.8033C23.1183 49.4888 23.0735 48.934 23.3882 48.5644C23.7027 48.1947 24.2575 48.1501 24.6271 48.4646L25.6594 49.3428C26.0291 49.6573 26.0739 50.212 25.7593 50.5817C25.5854 50.7861 25.3382 50.8911 25.0894 50.8911Z" fill="black"/>
            <path opacity="0.1" d="M40.1314 56.9636C39.8536 56.9636 39.5802 56.8323 39.4094 56.587C39.1319 56.1887 39.23 55.641 39.6284 55.3636L40.8894 54.4854C41.2877 54.2079 41.8356 54.306 42.1128 54.7043C42.3903 55.1026 42.2923 55.6503 41.8939 55.9277L40.6329 56.8059C40.48 56.9126 40.3048 56.9636 40.1314 56.9636Z" fill="black"/>
            <path opacity="0.1" d="M39.1766 49.0583C38.8737 49.0583 38.5788 48.9015 38.4157 48.6205L37.6856 47.3631C37.4419 46.9433 37.5846 46.4054 38.0044 46.1617C38.4241 45.918 38.9619 46.0606 39.2058 46.4805L39.9358 47.7379C40.1796 48.1577 40.0369 48.6956 39.617 48.9393C39.4781 49.02 39.3264 49.0583 39.1766 49.0583Z" fill="black"/>
            <path opacity="0.1" d="M23.4831 57.7091C23.3682 57.7091 23.2516 57.6865 23.1394 57.6387C22.6926 57.4486 22.4846 56.9325 22.6747 56.4859L23.2351 55.1686C23.4252 54.7218 23.9415 54.5141 24.3879 54.7039C24.8346 54.894 25.0426 55.4101 24.8525 55.8567L24.2921 57.174C24.15 57.5085 23.8249 57.7091 23.4831 57.7091Z" fill="black"/>
        </g>
        <path opacity="0.1" d="M38.2256 41.0696L34.2273 46.0745C33.0752 47.5168 30.8824 47.5168 29.7303 46.0745L25.732 41.0696H38.2256Z" fill="black"/>
        <path opacity="0.1" d="M31.9788 38.7368C28.3245 38.7368 25.0295 40.2744 22.7046 42.7376C25.4436 44.2864 28.6077 45.1714 31.9788 45.1714C35.35 45.1714 38.514 44.2864 41.2531 42.7376C38.9281 40.2746 35.6332 38.7368 31.9788 38.7368Z" fill="black"/>
        <path d="M13.1084 27.7522C14.9464 27.7522 16.4364 26.2622 16.4364 24.4242C16.4364 22.5862 14.9464 21.0962 13.1084 21.0962C11.2704 21.0962 9.78036 22.5862 9.78036 24.4242C9.78036 26.2622 11.2704 27.7522 13.1084 27.7522Z" fill="#FFD4B8"/>
        <path d="M50.8498 27.7522C52.6878 27.7522 54.1778 26.2622 54.1778 24.4242C54.1778 22.5862 52.6878 21.0962 50.8498 21.0962C49.0118 21.0962 47.5218 22.5862 47.5218 24.4242C47.5218 26.2622 49.0118 27.7522 50.8498 27.7522Z" fill="#FFD4B8"/>
        <path d="M31.9791 43.2703C42.4011 43.2703 50.8498 34.8216 50.8498 24.3996C50.8498 13.9776 42.4011 5.52887 31.9791 5.52887C21.5571 5.52887 13.1084 13.9776 13.1084 24.3996C13.1084 34.8216 21.5571 43.2703 31.9791 43.2703Z" fill="#FFD4B8"/>
        <path d="M31.9788 5.5293C23.582 5.5293 16.4674 11.0141 14.019 18.5961C17.9604 20.8272 25.806 22.7814 31.9788 16.6391C38.1517 22.7814 45.9973 20.8272 49.9386 18.5961C47.4901 11.014 40.3755 5.5293 31.9788 5.5293Z" fill="#BCBCBC"/>
        <path d="M31.9788 31.4286C30.9831 31.4286 30.0212 31.0114 29.3395 30.2838C29.0077 29.9295 29.0258 29.3733 29.38 29.0415C29.7342 28.7097 30.2904 28.7278 30.6223 29.0819C30.978 29.4616 31.4598 29.6708 31.9788 29.6708C32.4978 29.6708 32.9796 29.4616 33.3354 29.0819C33.6671 28.7278 34.2234 28.7096 34.5777 29.0415C34.9318 29.3733 34.95 29.9295 34.6181 30.2838C33.9364 31.0113 32.9744 31.4286 31.9788 31.4286Z" fill="#4A5058"/>
        <path d="M24.1145 26.1901C23.6291 26.1901 23.2356 25.7966 23.2356 25.3112C23.2356 24.856 22.8651 24.4855 22.41 24.4855C21.9547 24.4855 21.5843 24.856 21.5843 25.3112C21.5843 25.7966 21.1908 26.1901 20.7054 26.1901C20.22 26.1901 19.8265 25.7966 19.8265 25.3112C19.8265 23.8867 20.9855 22.7277 22.41 22.7277C23.8345 22.7277 24.9934 23.8867 24.9934 25.3112C24.9934 25.7966 24.5999 26.1901 24.1145 26.1901Z" fill="#4A5058"/>
        <path d="M43.2521 26.1901C42.7668 26.1901 42.3732 25.7966 42.3732 25.3112C42.3732 24.856 42.0028 24.4855 41.5475 24.4855C41.0923 24.4855 40.7218 24.856 40.7218 25.3112C40.7218 25.7966 40.3283 26.1901 39.8429 26.1901C39.3575 26.1901 38.964 25.7966 38.964 25.3112C38.964 23.8867 40.123 22.7277 41.5475 22.7277C42.9721 22.7277 44.1311 23.8867 44.1311 25.3112C44.1311 25.7966 43.7375 26.1901 43.2521 26.1901Z" fill="#4A5058"/>
        <path opacity="0.1" d="M34.7754 40.8883C24.3534 40.8883 15.9048 32.4396 15.9048 22.0177C15.9048 16.9239 17.9238 12.3021 21.2044 8.9071C16.3111 12.3166 13.1082 17.9837 13.1082 24.3999C13.1082 34.8218 21.5569 43.2705 31.9788 43.2705C37.3069 43.2705 42.1185 41.0616 45.5499 37.5105C42.4948 39.6391 38.7812 40.8883 34.7754 40.8883Z" fill="#513130"/>
        <path d="M8.93272 40.6393C7.77291 40.6393 6.74307 39.8115 6.52815 38.63L5.86217 34.9694C5.6203 33.6398 6.50202 32.366 7.83151 32.124C9.16135 31.8818 10.4351 32.7639 10.6769 34.0934L11.3429 37.7539C11.5848 39.0836 10.7031 40.3575 9.37358 40.5994C9.22545 40.6263 9.07803 40.6393 8.93272 40.6393Z" fill="#FFD4B8"/>
        <g opacity="0.1">
            <path opacity="0.1" d="M21.246 31.8349C20.7606 31.8349 20.3671 31.4414 20.3671 30.956C20.3671 30.4707 20.7606 30.0771 21.246 30.0771C22.0319 30.0771 23.7051 29.1653 24.5011 28.303C24.8301 27.9465 25.3863 27.924 25.743 28.2535C26.0996 28.5828 26.1219 29.1387 25.7926 29.4954C24.91 30.4516 22.783 31.8349 21.246 31.8349Z" fill="#513130"/>
            <path opacity="0.1" d="M42.7117 31.835C41.1748 31.835 39.0477 30.4517 38.1649 29.4955C37.8356 29.1389 37.8579 28.5828 38.2145 28.2535C38.5712 27.9244 39.1273 27.9465 39.4564 28.3031C40.2524 29.1653 41.9256 30.0772 42.7116 30.0772C43.1969 30.0772 43.5905 30.4707 43.5905 30.9561C43.5905 31.4415 43.1971 31.835 42.7117 31.835Z" fill="#513130"/>
        </g>
        <path d="M31.9791 51.1844C32.4641 51.1844 32.8573 50.7913 32.8573 50.3062C32.8573 49.8212 32.4641 49.428 31.9791 49.428C31.494 49.428 31.1009 49.8212 31.1009 50.3062C31.1009 50.7913 31.494 51.1844 31.9791 51.1844Z" fill="white"/>
        <path d="M31.9791 57.6368C32.4641 57.6368 32.8573 57.2436 32.8573 56.7586C32.8573 56.2736 32.4641 55.8804 31.9791 55.8804C31.494 55.8804 31.1009 56.2736 31.1009 56.7586C31.1009 57.2436 31.494 57.6368 31.9791 57.6368Z" fill="white"/>
    </g>
    <defs>
        <clipPath id="clip0_1:267">
            <rect width="60" height="60" fill="white"/>
        </clipPath>
    </defs>
</svg>
