<svg width="30" height="30" viewBox="0 0 30 30" fill="none" xmlns="http://www.w3.org/2000/svg">
    <g clip-path="url(#clip0_1:1132)">
        <path d="M30 6.26797V21.2094C30 23.1483 28.0295 24.725 25.6055 24.725C24.4547 24.725 23.4053 24.3693 22.6219 23.7887C21.7547 23.1459 21.2109 22.2277 21.2109 21.2094C21.2109 20.191 21.7547 19.2729 22.6219 18.6301C23.4053 18.0494 24.4547 17.6938 25.6055 17.6938C26.5986 17.6938 27.5057 17.9686 28.2422 18.4145V11.1166L22.6219 13.5254L17.6953 15.6365V26.4828C17.6953 28.4217 15.7248 29.9984 13.3008 29.9984C10.8768 29.9984 8.90625 28.4217 8.90625 26.4828C8.90625 24.544 10.8768 22.9672 13.3008 22.9672C14.2939 22.9672 15.201 23.242 15.9375 23.6879V11.5414C15.9375 11.1893 16.1467 10.8717 16.4695 10.734L28.7742 5.46055C29.0473 5.3416 29.3596 5.37207 29.6051 5.53438C29.8523 5.69727 30 5.97266 30 6.26797Z" fill="#FF8FB8"/>
        <path d="M14.0626 9.66742C14.0626 11.724 12.252 13.6049 12.041 13.7982C11.707 14.1498 11.1446 14.1498 10.8106 13.7982C10.459 13.4642 10.459 12.9017 10.8106 12.5678C11.2148 12.1459 12.3047 10.8099 12.3047 9.66742C12.3047 7.78656 10.3712 5.04437 8.78906 3.16351V15.8198C8.78906 15.9603 8.77149 16.1362 8.75385 16.3119C8.57813 17.2612 7.94531 18.0873 7.03125 18.6322C6.31061 19.0717 5.37891 19.3354 4.39453 19.3354C1.96875 19.3354 0 17.7533 0 15.8198C0 13.8861 1.96875 12.3041 4.39453 12.3041C5.39648 12.3041 6.29303 12.5853 7.03125 13.0248V0.878358C7.03125 0.526795 7.24219 0.210389 7.57617 0.0697053C7.91016 -0.0709783 8.29682 0.0170296 8.52533 0.263065C9.10553 0.825565 14.0626 5.9057 14.0626 9.66742Z" fill="#979FEF"/>
        <path d="M14.0626 9.66639C14.0626 11.723 12.252 13.6039 12.041 13.7972C11.707 14.1487 11.1446 14.1487 10.8106 13.7972C10.459 13.4632 10.459 12.9007 10.8106 12.5667C11.2148 12.1448 12.3047 10.8089 12.3047 9.66639C12.3047 7.78553 10.3712 5.04334 8.78906 3.16248V15.8187C8.78906 15.9593 8.77148 16.1351 8.75385 16.3109C8.57812 17.2601 7.94531 18.0863 7.03125 18.6312V0.87732C7.03125 0.525758 7.24219 0.209351 7.57617 0.0686678C7.91016 -0.0720159 8.29682 0.015992 8.52533 0.262027C9.10553 0.824527 14.0626 5.90467 14.0626 9.66639Z" fill="#6B77E8"/>
        <path d="M29.6051 5.53436C29.3596 5.37206 29.0473 5.34159 28.7742 5.46053L22.6219 8.09725V13.5254L28.2422 11.1166V18.4144C27.5057 17.9685 26.5986 17.6937 25.6055 17.6937C24.4547 17.6937 23.4053 18.0494 22.6219 18.6301C21.7547 19.2728 21.2109 20.191 21.2109 21.2094C21.2109 22.2277 21.7547 23.1459 22.6219 23.7887C23.4053 24.3693 24.4547 24.725 25.6055 24.725C28.0295 24.725 30 23.1482 30 21.2094V6.26796C30 5.97264 29.8523 5.69725 29.6051 5.53436Z" fill="#FF5F96"/>
    </g>
    <defs>
        <clipPath id="clip0_1:1132">
            <rect width="30" height="30" fill="white"/>
        </clipPath>
    </defs>
</svg>
