<svg width="30" height="30" viewBox="0 0 30 30" fill="none" xmlns="http://www.w3.org/2000/svg">
    <g clip-path="url(#clip0_1:1066)">
        <path d="M4.40548 13.9101C3.99464 13.6432 3.51559 13.5008 3.02556 13.4999C2.00108 13.5008 1.08098 14.1264 0.703321 15.0787C0.325895 16.0309 0.567594 17.1172 1.31306 17.8196C2.05876 18.522 3.15739 18.6985 4.08551 18.265L4.40548 13.9101Z" fill="#F09372"/>
        <path d="M25.9657 18.265C26.8938 18.6994 27.9934 18.5234 28.7395 17.8207C29.4857 17.1181 29.7274 16.0311 29.3495 15.0785C28.9716 14.1257 28.0506 13.5001 27.0257 13.4999C26.5356 13.5008 26.0566 13.6432 25.6455 13.9101L25.9657 18.265Z" fill="#F09372"/>
        <path d="M5.48938 24.0782C7.54657 27.5832 11.0519 30 15.0257 30C18.9996 30 22.5049 27.5832 24.5621 24.0782L26.0986 20.2451C26.2512 19.604 26.3593 18.953 26.4215 18.2971C26.4632 17.8649 26.484 17.422 26.484 16.9794C26.4877 15.894 26.3545 14.8128 26.0883 13.7606C24.8796 8.62771 20.2989 5.00039 15.0257 5.00039C9.7523 5.00039 5.17169 8.62771 3.96319 13.7606C3.69677 14.8128 3.56379 15.894 3.56746 16.9794C3.56746 17.422 3.58828 17.8649 3.62994 18.2971C3.6922 18.953 3.80023 19.604 3.95289 20.2451L5.48938 24.0782Z" fill="#FDD7AD"/>
        <path d="M15.0257 5.99991C14.7495 6.00014 14.5256 5.77652 14.5254 5.50049C14.5252 5.22423 14.7488 5.00015 15.025 4.99993C15.1475 4.99947 18.0257 4.96765 18.0257 2.99996C18.0257 1.03226 15.1475 1.00044 15.025 0.999985C14.7488 0.999756 14.5252 0.775681 14.5254 0.499649C14.5256 0.223389 14.7495 -0.000228706 15.0257 1.75546e-07C16.4093 1.75546e-07 19.0257 0.626908 19.0257 2.99996C19.0257 5.373 16.4093 5.99991 15.0257 5.99991Z" fill="#AF8066"/>
        <path d="M15.0254 18.9999C13.9212 18.9988 13.0265 18.1041 13.0254 17C13.0254 16.7239 13.2492 16.5001 13.5253 16.5001C13.8015 16.5001 14.0254 16.7239 14.0254 17C14.0254 17.5523 14.4731 18 15.0254 18C15.5777 18 16.0253 17.5523 16.0253 17C16.0253 16.7239 16.2492 16.5001 16.5255 16.5001C16.8015 16.5001 17.0253 16.7239 17.0253 17C17.0242 18.1041 16.1295 18.9988 15.0254 18.9999Z" fill="#F09372"/>
        <path d="M8.02564 16.5557C7.82354 16.5557 7.64135 16.4337 7.56398 16.2469C7.48662 16.0602 7.52919 15.8452 7.67225 15.7022C8.47265 14.8766 9.5532 14.3806 10.701 14.3115C9.86905 14.0224 8.98099 13.9323 8.10804 14.0488C7.83635 14.0929 7.58001 13.9091 7.53492 13.6377C7.4896 13.366 7.67225 13.109 7.94347 13.0625C8.07897 13.0396 11.2625 12.5374 12.9255 14.7558C13.0601 14.9352 13.0588 15.1819 12.9223 15.3598C12.7862 15.5379 12.5481 15.6031 12.3401 15.52C10.9585 15.0297 9.41861 15.3756 8.37926 16.4092C8.28565 16.5031 8.15839 16.5557 8.02564 16.5557Z" fill="#35495E"/>
        <path d="M22.0256 16.5557C21.8931 16.5557 21.7658 16.5031 21.6722 16.4092C20.6321 15.3756 19.0915 15.03 17.7098 15.5205C17.5017 15.6029 17.2644 15.5367 17.1287 15.3591C16.9927 15.1813 16.9916 14.935 17.1257 14.7558C18.789 12.5382 21.9732 13.0396 22.108 13.0625C22.3758 13.1122 22.5548 13.3672 22.5101 13.6359C22.4655 13.9048 22.214 14.0884 21.9443 14.0488C21.073 13.9362 20.1877 14.0261 19.3568 14.312C20.5024 14.3823 21.5804 14.878 22.379 15.702C22.522 15.845 22.5651 16.06 22.4877 16.247C22.4103 16.4337 22.2279 16.5557 22.0256 16.5557Z" fill="#35495E"/>
        <path d="M18.9159 26.8C17.9958 27.315 16.5957 27.4999 15.0258 27.4999C13.4559 27.4999 12.0558 27.315 11.1357 26.8C11.5557 25.48 13.1357 24.5 15.0258 24.5C16.9159 24.5 18.4959 25.48 18.9159 26.8Z" fill="#FB7B76"/>
        <path d="M20.0255 25.0001C20.0383 25.7652 19.6051 26.4679 18.9157 26.8C18.5659 25.8801 17.823 25.1647 16.8905 24.8499C15.691 24.3833 14.3602 24.3833 13.1607 24.8499C12.2282 25.1647 11.4853 25.8801 11.1355 26.8C10.4461 26.4679 10.0126 25.7652 10.0257 25.0001C10.0257 23.79 10.9007 22.335 12.2305 21.4151C13.8942 20.1949 16.157 20.1949 17.8207 21.4151C19.1505 22.335 20.0255 23.79 20.0255 25.0001Z" fill="#D75E72"/>
        <path d="M6.55882 23.2846C6.09992 23.8321 5.38374 24.0935 4.67993 23.9699C3.97612 23.8463 3.39179 23.3565 3.14688 22.6852C2.90221 22.0141 3.03404 21.2631 3.49295 20.7154C4.20226 19.8688 7.27385 19.3172 7.27385 19.3172C7.27385 19.3172 7.26836 22.4378 6.55882 23.2846Z" fill="#2FA8CC"/>
        <path d="M23.4929 23.2846C24.2022 24.131 25.4638 24.2423 26.3104 23.533C27.157 22.8234 27.2683 21.5621 26.5587 20.7154C25.8494 19.8688 22.7778 19.3172 22.7778 19.3172C22.7778 19.3172 22.7833 22.4378 23.4929 23.2846Z" fill="#2FA8CC"/>
        <path d="M1.8843 6.48011C1.36634 5.89326 1.41898 4.99856 2.00217 4.47648C2.52402 3.89329 3.41895 3.84042 4.00581 4.35838C4.52628 4.87908 4.8307 7.305 4.8307 7.305C4.8307 7.305 2.40501 7.00059 1.8843 6.48011Z" fill="#2FA8CC"/>
        <path d="M28.1676 6.48012C28.6855 5.89327 28.6329 4.99857 28.0497 4.47649C27.5279 3.89329 26.6332 3.84065 26.0463 4.35861C25.5256 4.87932 25.2212 7.30501 25.2212 7.30501C25.2212 7.30501 27.6469 7.0006 28.1676 6.48012Z" fill="#2FA8CC"/>
        <path d="M18.0258 22.5C18.0254 23.4153 17.6077 24.2807 16.8908 24.8499C15.6912 24.3833 14.3605 24.3833 13.1609 24.8499C12.4441 24.2807 12.0262 23.4153 12.0259 22.5C12.0239 22.1285 12.0934 21.76 12.2308 21.4151C13.8945 20.1949 16.1572 20.1949 17.821 21.4151C17.9583 21.76 18.0279 22.1285 18.0258 22.5Z" fill="#802D40"/>
    </g>
    <defs>
        <clipPath id="clip0_1:1066">
            <rect width="30" height="30" fill="white"/>
        </clipPath>
    </defs>
</svg>
