<svg width="30" height="30" viewBox="0 0 30 30" fill="none" xmlns="http://www.w3.org/2000/svg">
    <g clip-path="url(#clip0_1:1084)">
        <path d="M28.1533 11.3149L27.1193 10.9093C26.2476 10.567 25.6108 9.80342 25.4321 8.8841L24.2201 2.65895C23.9195 1.11489 22.5674 0 20.9943 0H9.00518C7.43214 0 6.08003 1.11489 5.77942 2.65895L4.56735 8.8841C4.38868 9.80342 3.75186 10.567 2.88023 10.9093L1.84623 11.3149C0.797734 11.7266 0.108398 12.7376 0.108398 13.8634V28.372C0.108398 29.2708 0.837574 30 1.73637 30H7.21725C8.11604 30 8.84522 29.2708 8.84522 28.372V28.0787C8.84522 27.8795 8.88506 27.6899 8.95689 27.5167C9.17721 26.9849 9.70116 26.6113 10.3126 26.6113H19.6869C20.2983 26.6113 20.8223 26.9849 21.0426 27.5167C21.1144 27.6899 21.1543 27.8795 21.1543 28.0787V28.372C21.1543 29.2708 21.8834 30 22.7822 30H28.2631C29.1619 30 29.8911 29.2708 29.8911 28.372V13.8634C29.8911 12.7376 29.2018 11.7266 28.1533 11.3149ZM17.2995 4.57666H12.6999C11.9756 4.57666 11.3889 3.98934 11.3889 3.26499C11.3889 2.90282 11.5356 2.57505 11.7728 2.33722C12.01 2.1 12.3378 1.95332 12.6999 1.95332H17.2995C18.0239 1.95332 18.6106 2.54064 18.6106 3.26499C18.6106 3.98934 18.0239 4.57666 17.2995 4.57666Z" fill="#E4F6F9"/>
        <path d="M5.80747 16.6745C5.70564 16.6745 5.60327 16.6403 5.51876 16.5702L4.84113 16.0084C4.14588 15.432 3.74707 14.5834 3.74707 13.6803V13.0453C3.74707 12.7953 3.94977 12.5926 4.19979 12.5926C4.44981 12.5926 4.6525 12.7953 4.6525 13.0453V13.6803C4.6525 14.313 4.93186 14.9075 5.41898 15.3114L6.09667 15.8732C6.2891 16.0328 6.31578 16.3182 6.15618 16.5107C6.06673 16.6186 5.93755 16.6745 5.80747 16.6745Z" fill="#D4F2F6"/>
        <path d="M24.1922 16.6745C24.0621 16.6745 23.933 16.6187 23.8435 16.5107C23.6839 16.3183 23.7106 16.0328 23.903 15.8732L24.5806 15.3114C25.0678 14.9075 25.3471 14.313 25.3471 13.6803V13.0453C25.3471 12.7953 25.5497 12.5926 25.7998 12.5926C26.0499 12.5926 26.2525 12.7953 26.2525 13.0453V13.6803C26.2525 14.5835 25.8538 15.432 25.1585 16.0084L24.4809 16.5702C24.3965 16.6403 24.294 16.6745 24.1922 16.6745Z" fill="#D4F2F6"/>
        <path d="M12.7 1.9534H11.2662C10.5419 1.9534 9.95459 2.5406 9.95459 3.26501C9.95459 3.98936 10.5418 4.57662 11.2662 4.57662H12.7C11.9756 4.57662 11.3884 3.98942 11.3884 3.26501C11.3884 2.54066 11.9756 1.9534 12.7 1.9534Z" fill="#D4F2F6"/>
        <path d="M28.1532 11.3151L27.1191 10.9093C26.2473 10.5671 25.6108 9.80312 25.4319 8.8838L24.22 2.65877C23.9195 1.11465 22.5669 0 20.9938 0H19.5601C21.1332 0 22.4857 1.11465 22.7863 2.65877L23.9981 8.88386C24.1771 9.80318 24.8135 10.5672 25.6854 10.9093L26.7194 11.3151C27.7677 11.7265 28.4571 12.7377 28.4571 13.8637V28.372C28.4571 29.2711 27.7282 30 26.8291 30H28.2628C29.162 30 29.8909 29.2711 29.8909 28.372V13.8636C29.8908 12.7376 29.2014 11.7264 28.1532 11.3151Z" fill="#D4F2F6"/>
        <path d="M7.41123 28.0788V28.372C7.41123 29.2711 6.68236 30 5.7832 30H7.21699C8.11614 30 8.84502 29.2711 8.84502 28.372V28.0788C8.84502 27.2683 9.50206 26.6113 10.3125 26.6113H8.87876C8.06822 26.6113 7.41123 27.2683 7.41123 28.0788Z" fill="#D4F2F6"/>
        <path d="M20.6305 13.0181L18.1032 12.275C16.0772 11.6793 13.9226 11.6793 11.8965 12.275C9.18103 12.9793 6.6279 13.6821 5.51904 16.5702L7.77961 18.6451C8.15548 18.9901 8.6877 19.1066 9.17325 18.95L11.6244 18.1598C13.8191 17.4523 16.1806 17.4523 18.3753 18.1598L20.8265 18.95C21.312 19.1066 21.8442 18.9901 22.2201 18.6451L24.4807 16.5702C23.7819 14.8799 22.4073 13.5231 20.6305 13.0181Z" fill="#6BD9E7"/>
        <path d="M20.6304 13.0181L18.1031 12.2751C16.8046 11.8933 15.4532 11.7566 14.1167 11.8642C15.8489 11.9878 17.5829 12.4788 19.1966 13.0182C20.7433 13.4577 21.9853 14.5429 22.742 15.9316C22.9372 16.2898 22.8683 16.7342 22.5677 17.01L20.7862 18.6452C20.6997 18.7247 20.6045 18.7914 20.5038 18.8461L20.8264 18.9501C21.312 19.1066 21.8442 18.9902 22.2201 18.6452L24.4806 16.5702C23.7818 14.8799 22.4071 13.523 20.6304 13.0181Z" fill="#29C8D9"/>
        <path d="M6.6075 26.6113H10.3125C9.70106 26.6113 9.17712 26.9849 8.9568 27.5167H6.6075C6.3576 27.5167 6.15479 27.3139 6.15479 27.064C6.15479 26.8141 6.3576 26.6113 6.6075 26.6113Z" fill="#D4F2F6"/>
        <path d="M23.8448 27.064C23.8448 27.3139 23.6419 27.5167 23.392 27.5167H21.0427C20.8224 26.9849 20.2985 26.6113 19.687 26.6113H23.392C23.6419 26.6113 23.8448 26.8141 23.8448 27.064Z" fill="#D4F2F6"/>
    </g>
    <defs>
        <clipPath id="clip0_1:1084">
            <rect width="30" height="30" fill="white"/>
        </clipPath>
    </defs>
</svg>
