<svg width="30" height="30" viewBox="0 0 30 30" fill="none" xmlns="http://www.w3.org/2000/svg">
    <path d="M10.8105 10.625H8.05664L7.5 13.75L8.05664 16.875H10.8105V10.625Z" fill="#72BAFD"/>
    <path d="M5.30273 10.625H8.05664V16.875H5.30273V10.625Z" fill="#9CCEFD"/>
    <path d="M8.05664 15.9961L7.5 21.875L8.05664 30C10.2098 30 11.9616 28.2482 11.9616 26.095V15.9961H8.05664Z" fill="#FC80AA"/>
    <path d="M4.15186 15.9961V26.095C4.15186 28.2482 5.90363 30 8.05684 30V15.9961H4.15186Z" fill="#FDA0C1"/>
    <path d="M8.05664 0L7.5 6.25002L8.05664 12.3829C11.2983 12.3829 13.9355 9.60539 13.9355 6.19143C13.9355 2.77746 11.2983 0 8.05664 0Z" fill="#B0D8FD"/>
    <path d="M2.17773 6.19137C2.17773 9.60533 4.81498 12.3828 8.05662 12.3828V0C4.81498 0 2.17773 2.77746 2.17773 6.19137Z" fill="#C4E2FE"/>
    <path d="M24.6972 10.625H21.9433L21.25 13.75L21.9433 16.875H24.6972V10.625Z" fill="#72BAFD"/>
    <path d="M19.1895 10.625H21.9434V16.875H19.1895V10.625Z" fill="#9CCEFD"/>
    <path d="M26.0644 0V3.49611H22.8222V0H21.9433L21.25 7.49994L21.9433 12.3437C25.185 12.3437 27.8222 9.56625 27.8222 6.15228V0H26.0644Z" fill="#B0D8FD"/>
    <path d="M21.0644 0V3.49611H17.8223V0H16.0645V6.15228C16.0645 9.56625 18.7017 12.3437 21.9433 12.3437V0H21.0644Z" fill="#C4E2FE"/>
    <path d="M21.9433 15.9961L21.25 22.4999L21.9433 30C24.0965 30 25.8483 28.2482 25.8483 26.095V15.9961H21.9433Z" fill="#FFCD6E"/>
    <path d="M18.0386 15.9961V26.095C18.0386 28.2482 19.7904 30 21.9436 30V15.9961H18.0386Z" fill="#FFDF8E"/>
</svg>
