<svg width="30" height="30" viewBox="0 0 30 30" fill="none" xmlns="http://www.w3.org/2000/svg">
    <path d="M10.2761 5.3042C9.79266 4.86428 9.52231 4.23727 9.52189 3.58365L9.52148 2.8418C9.52148 1.62826 8.53775 0.644531 7.32422 0.644531C6.11068 0.644531 5.12695 1.62826 5.12695 2.8418L5.12654 3.58365C5.12619 4.23727 4.85578 4.86428 4.37232 5.3042C3.46629 6.12861 2.92969 7.30857 2.92969 8.55469V9.43359H11.7188V8.55469C11.7188 7.30857 11.1821 6.12861 10.2761 5.3042Z" fill="#F1F4F6"/>
    <path d="M10.2761 5.3042C9.79266 4.86428 9.52231 4.23727 9.52189 3.58365L9.52148 2.8418C9.52148 1.62826 8.53775 0.644531 7.32422 0.644531V9.43359H11.7188V8.55469C11.7188 7.30857 11.1821 6.12861 10.2761 5.3042Z" fill="#DAEAEC"/>
    <path d="M11.4258 29.3555H3.22266C1.44568 29.3555 0 27.9098 0 26.1328V17.2447C0 14.8303 1.28613 12.5588 3.35643 11.3167L3.56514 11.1914H11.0833L11.2921 11.3167C13.3623 12.5588 14.6484 14.8303 14.6484 17.2447V26.1328C14.6484 27.9098 13.2028 29.3555 11.4258 29.3555Z" fill="#ACCEFF"/>
    <path d="M11.292 11.3167L11.0833 11.1914H7.32422V29.3555H11.4258C13.2028 29.3555 14.6484 27.9098 14.6484 26.1328V17.2447C14.6484 14.8303 13.3623 12.5588 11.292 11.3167Z" fill="#8BB9FF"/>
    <path d="M11.4258 12.3633H3.22266C2.09186 12.3633 1.17188 11.4433 1.17188 10.3125C1.17188 9.1817 2.09186 8.26172 3.22266 8.26172H11.4258C12.5566 8.26172 13.4766 9.1817 13.4766 10.3125C13.4766 11.4433 12.5566 12.3633 11.4258 12.3633Z" fill="#FFD0F9"/>
    <path d="M11.4258 8.26172H7.32422V12.3633H11.4258C12.5566 12.3633 13.4766 11.4433 13.4766 10.3125C13.4766 9.1817 12.5566 8.26172 11.4258 8.26172Z" fill="#FFA2FF"/>
    <path d="M3.22266 25.8398H0V24.082H3.22266C3.70805 24.082 4.10156 24.4755 4.10156 24.9609C4.10156 25.4463 3.70805 25.8398 3.22266 25.8398Z" fill="#F1F4F6"/>
    <path d="M3.22266 22.3242H0V20.5664H3.22266C3.70805 20.5664 4.10156 20.9599 4.10156 21.4453C4.10156 21.9307 3.70805 22.3242 3.22266 22.3242Z" fill="#F1F4F6"/>
    <path d="M3.22266 18.8086H0V17.0508H3.22266C3.70805 17.0508 4.10156 17.4443 4.10156 17.9297C4.10156 18.4151 3.70805 18.8086 3.22266 18.8086Z" fill="#F1F4F6"/>
    <path d="M25.6052 18.2227H24.8677C24.6105 18.2227 24.3663 18.11 24.1993 17.9145C24.0323 17.7189 23.9594 17.4601 23.9996 17.2061L24.557 13.6905C24.6246 13.2636 24.9928 12.9492 25.425 12.9492H29.1208C29.6062 12.9492 29.9997 13.3427 29.9997 13.8281C29.9997 16.2513 28.0283 18.2227 25.6052 18.2227Z" fill="#EC8600"/>
    <path d="M11.1789 19.1573C10.2798 18.7518 9.41965 18.1361 8.67094 17.3311C8.42484 17.0665 8.04199 16.9794 7.70578 17.1117C7.36951 17.2439 7.14844 17.5684 7.14844 17.9297V22.6172C7.14844 26.3327 10.1712 29.3555 13.8867 29.3555H20.132C21.7566 29.3555 23.3091 28.7521 24.5034 27.6566C25.7239 26.5371 26.4261 25.0307 26.4807 23.4148C26.5207 22.2315 26.223 21.072 25.6199 20.0616C25.1772 19.32 25.1624 18.4546 25.5824 17.8569C26.1991 16.9791 26.5105 15.9458 26.4826 14.8688C26.4146 12.2357 24.2161 10.0605 21.5818 10.0201C20.2359 10.0014 18.9675 10.5077 18.0094 11.4512C17.0512 12.3949 16.5234 13.6552 16.5234 15C16.5234 16.0802 16.8647 17.1057 17.4969 17.9572L16.2891 22.793L11.1789 19.1573Z" fill="#FFE278"/>
    <path d="M25.5824 17.8569C26.1992 16.9791 26.5105 15.9459 26.4827 14.8688C26.4146 12.2358 24.2161 10.0606 21.5818 10.0202C20.486 10.0049 19.4416 10.3379 18.5742 10.9713V29.3554H20.132C21.7566 29.3554 23.3091 28.7521 24.5034 27.6566C25.7239 26.5371 26.4261 25.0307 26.4807 23.4148C26.5207 22.2314 26.223 21.0719 25.6199 20.0616C25.1772 19.32 25.1625 18.4546 25.5824 17.8569Z" fill="#FFD845"/>
    <path d="M22.3828 15.293C22.8682 15.293 23.2617 14.8995 23.2617 14.4141C23.2617 13.9287 22.8682 13.5352 22.3828 13.5352C21.8974 13.5352 21.5039 13.9287 21.5039 14.4141C21.5039 14.8995 21.8974 15.293 22.3828 15.293Z" fill="#595E63"/>
    <path d="M17.497 17.9572C17.0026 18.5182 16.2973 19.1105 15.3517 19.4449C14.0443 19.907 12.5653 19.7827 11.1791 19.1574C10.5613 19.9236 10.4005 20.9653 10.7702 21.8776C11.048 22.5632 11.4326 23.2819 11.9634 23.9192C13.0371 25.2084 14.4785 25.8768 16.1648 25.8768C16.4093 25.8768 16.6593 25.8628 16.9137 25.8345C18.9685 25.6062 20.2978 24.8297 20.8648 23.5265C21.3469 22.4181 21.2218 21.0312 20.4927 19.4045C20.4708 19.3557 20.4487 19.3075 20.4265 19.2598C19.9125 18.1587 18.6612 17.6088 17.497 17.9572Z" fill="#FFD845"/>
    <path d="M20.4263 19.2599C20.0708 18.4982 19.3624 18.0005 18.5742 17.8812V25.4782C19.7008 25.0891 20.4687 24.4364 20.8645 23.5265C21.3467 22.4181 21.2216 21.0312 20.4925 19.4046C20.4706 19.3558 20.4485 19.3076 20.4263 19.2599Z" fill="#FFCB00"/>
</svg>
