<svg width="30" height="30" viewBox="0 0 30 30" fill="none" xmlns="http://www.w3.org/2000/svg">
    <g clip-path="url(#clip0_1:1142)">
        <path d="M30 8.43745L15 9.04107L0 8.43745V3.38399C0 2.55057 0.675634 1.87494 1.50905 1.87494H28.4909C29.3244 1.87494 30 2.55057 30 3.38399V8.43745Z" fill="#91DAFA"/>
        <path d="M28.491 1.87494H25.8867C26.7201 1.87494 27.3958 2.55057 27.3958 3.38399L27.3634 8.43745L28.6817 9.04107L30.0001 8.43745V3.38399C30 2.55057 29.3244 1.87494 28.491 1.87494Z" fill="#6EC2FC"/>
        <path d="M0 8.43747V14.5473L0.603622 14.9852L0 15.4527V21.1098L0.603622 21.496L0 22.0152V25.9278C0 27.1413 0.983783 28.125 2.19724 28.125H9.54706L10.0114 27.5214L10.4525 28.125H19.5471L20.0652 27.5214L20.4525 28.125H27.8027C29.0162 28.125 29.9999 27.1413 29.9999 25.9278V22.0152L29.3963 21.6571L29.9999 21.1098V15.4527L29.3963 15L29.9999 14.5473V8.43747H20.4526L19.9962 9.04109L19.5471 8.43747H10.4526L10.0575 9.04109L9.54712 8.43747H0Z" fill="#F8E883"/>
        <path d="M27.3633 8.43747V26.3671C27.3633 27.338 26.5763 28.125 25.6055 28.125H27.8027C29.0162 28.125 30 27.1412 30 25.9277V22.0152L29.3963 21.703L30 21.1097V15.4527L29.3963 15L30 14.5473V8.43747H27.3633Z" fill="#FFD549"/>
        <path d="M30 21.1098H20.4526V15.4527H30V14.5473H20.4526V8.43747H19.5471V14.5473H10.4526V8.43747H9.54712V14.5473H0V15.4527H9.54712V21.1098H0V22.0152H9.54712V28.125H10.4526V22.0152H19.5471V28.125H20.4526V22.0152H30V21.1098ZM19.5471 21.1098H10.4526V15.4527H19.5471V21.1098Z" fill="#FCF5F5"/>
        <path d="M27.3633 14.5473H30V15.4527H27.3633V14.5473Z" fill="#F8E883"/>
        <path d="M27.3633 21.1098H30V22.0153H27.3633V21.1098Z" fill="#F8E883"/>
    </g>
    <defs>
        <clipPath id="clip0_1:1142">
            <rect width="30" height="30" fill="white"/>
        </clipPath>
    </defs>
</svg>
