<svg width="30" height="30" viewBox="0 0 30 30" fill="none" xmlns="http://www.w3.org/2000/svg">
    <path d="M20.1564 22.9688L20.6577 19.961C20.7113 19.639 20.6942 19.3092 20.6075 18.9945C20.5208 18.6797 20.3666 18.3877 20.1556 18.1386C19.9446 17.8895 19.6819 17.6894 19.3857 17.5521C19.0895 17.4149 18.767 17.3437 18.4405 17.3438C17.8831 17.3438 17.3456 17.5509 16.9323 17.9249C16.519 18.2989 16.2595 18.8132 16.204 19.3678L15.7208 24.2007C15.689 24.5191 15.7242 24.8406 15.8243 25.1445C15.9243 25.4484 16.0869 25.728 16.3015 25.9652C16.5162 26.2025 16.7782 26.3921 17.0707 26.5219C17.3631 26.6516 17.6795 26.7187 17.9994 26.7188C18.1867 26.7188 18.3732 26.6958 18.5549 26.6504L23.9064 25.3125L24.572 26.3108C24.6556 26.4363 24.7689 26.5392 24.9019 26.6104C25.0349 26.6815 25.1833 26.7188 25.3341 26.7188C25.5771 26.7188 25.8101 26.6222 25.9818 26.4505C26.1536 26.2787 26.2501 26.0457 26.2501 25.8028V23.9062C26.2501 23.6576 26.1514 23.4192 25.9755 23.2433C25.7997 23.0675 25.5613 22.9688 25.3126 22.9688H20.1564Z" fill="#F7A468"/>
    <path d="M5.15625 17.3438V21.0938L2.66678 24.375C2.29674 24.5126 1.97764 24.7601 1.75232 25.0843C1.52701 25.4085 1.40624 25.7938 1.40625 26.1886V26.7188H4.6875L8.90625 21.5625V16.875L5.15625 17.3438Z" fill="#FEB784"/>
    <path d="M16.875 12.1875V22.0312H13.34C12.14 22.0314 10.9621 21.7082 9.93018 21.0957C8.89827 20.4831 8.05048 19.6038 7.47598 18.5502L6.5625 16.875V12.1875H16.875Z" fill="#FEB784"/>
    <path d="M11.25 18.75V21.0938L8.76053 24.375C8.39049 24.5126 8.07139 24.7601 7.84607 25.0843C7.62076 25.4085 7.49999 25.7938 7.5 26.1886V26.7188H10.7812L14.5312 22.0312V18.75H11.25Z" fill="#FEB784"/>
    <path d="M13.5938 9.37543V11.7192C13.5938 13.3353 12.9517 14.8853 11.8089 16.0281C10.6661 17.1709 9.11616 17.8129 7.5 17.8129C5.88384 17.8129 4.33387 17.1709 3.19107 16.0281C2.04827 14.8853 1.40625 13.3353 1.40625 11.7192V9.37543C1.40625 7.75927 2.04827 6.2093 3.19107 5.0665C4.33387 3.9237 5.88384 3.28168 7.5 3.28168C9.11616 3.28168 10.6661 3.9237 11.8089 5.0665C12.9517 6.2093 13.5938 7.75927 13.5938 9.37543Z" fill="#FEC9A3"/>
    <path d="M13.5935 9.37501V11.7188C13.5928 12.7092 13.3508 13.6846 12.8885 14.5605C12.4263 15.4365 11.7576 16.1867 10.9404 16.7462C10.1231 17.3057 9.18184 17.6578 8.19799 17.7719C7.21414 17.886 6.21729 17.7588 5.29365 17.4012C6.16222 16.8159 6.87363 16.0262 7.36529 15.1014C7.85694 14.1766 8.11378 13.1452 8.11318 12.0979V9.25489C8.11367 8.15839 7.83209 7.08019 7.29552 6.12393C6.75896 5.16767 5.98544 4.36551 5.04932 3.79454C5.97692 3.38739 6.99139 3.21789 8.00097 3.30135C9.01056 3.38482 9.98341 3.71862 10.8316 4.27258C11.6797 4.82653 12.3764 5.58317 12.8586 6.47405C13.3409 7.36494 13.5934 8.36198 13.5935 9.37501Z" fill="#FEC093"/>
    <path d="M3.75 12.6562C3.56458 12.6562 3.38332 12.6013 3.22915 12.4982C3.07498 12.3952 2.95482 12.2488 2.88386 12.0775C2.81291 11.9062 2.79434 11.7177 2.83051 11.5358C2.86669 11.354 2.95598 11.1869 3.08709 11.0558C3.2182 10.9247 3.38525 10.8354 3.5671 10.7992C3.74896 10.7631 3.93746 10.7816 4.10877 10.8526C4.28007 10.9236 4.42649 11.0437 4.5295 11.1979C4.63252 11.3521 4.6875 11.5333 4.6875 11.7187C4.68721 11.9673 4.58834 12.2056 4.41259 12.3813C4.23684 12.5571 3.99855 12.6559 3.75 12.6562Z" fill="#7A432A"/>
    <path d="M9.375 12.6562C9.18958 12.6562 9.00833 12.6013 8.85415 12.4982C8.69998 12.3952 8.57982 12.2488 8.50886 12.0775C8.43791 11.9062 8.41934 11.7177 8.45551 11.5358C8.49169 11.354 8.58098 11.1869 8.71209 11.0558C8.8432 10.9247 9.01025 10.8354 9.19211 10.7992C9.37396 10.7631 9.56246 10.7816 9.73377 10.8526C9.90508 10.9236 10.0515 11.0437 10.1545 11.1979C10.2575 11.3521 10.3125 11.5333 10.3125 11.7187C10.3122 11.9673 10.2133 12.2056 10.0376 12.3813C9.86184 12.5571 9.62355 12.6559 9.375 12.6562Z" fill="#7A432A"/>
    <path d="M6.5625 15C6.18967 14.9996 5.83223 14.8513 5.56859 14.5877C5.30496 14.324 5.15667 13.9666 5.15625 13.5938H6.09375C6.09375 13.7181 6.14314 13.8373 6.23104 13.9252C6.31895 14.0131 6.43818 14.0625 6.5625 14.0625C6.68682 14.0625 6.80605 14.0131 6.89396 13.9252C6.98186 13.8373 7.03125 13.7181 7.03125 13.5938H7.96875C7.96833 13.9666 7.82004 14.324 7.55641 14.5877C7.29277 14.8513 6.93533 14.9996 6.5625 15Z" fill="#F7A468"/>
    <path d="M6.73285 9.37504C6.67652 9.37505 6.62064 9.36488 6.56791 9.34504C5.97547 9.12239 5.3651 8.84114 4.9829 8.08604C4.62928 7.38708 4.59032 6.59647 4.87842 5.9711L5.72985 6.36368C5.56286 6.7259 5.59719 7.22377 5.81944 7.66293C5.89836 7.82568 6.01134 7.96955 6.15073 8.08481C6.15397 7.55033 6.33312 7.0318 6.66049 6.6093C6.87036 6.34204 7.13485 6.12265 7.43628 5.96577C7.73771 5.80889 8.06915 5.71814 8.40846 5.69958L8.46178 6.63549C8.25538 6.64527 8.05354 6.69959 7.87011 6.79472C7.68669 6.88985 7.52601 7.02355 7.39912 7.18663C7.26642 7.35849 7.17246 7.55701 7.12367 7.76859C7.07488 7.98017 7.07242 8.19979 7.11647 8.41241L7.19352 8.81934C7.2063 8.88707 7.204 8.95679 7.18676 9.02353C7.16952 9.09027 7.13777 9.15239 7.09378 9.20545C7.04979 9.25852 6.99464 9.30123 6.93225 9.33054C6.86987 9.35986 6.80178 9.37505 6.73285 9.37504Z" fill="#FFB531"/>
    <path d="M12.4219 13.125H12.1875V12.1875H12.4219C12.7327 12.1875 13.0307 12.064 13.2505 11.8443C13.4703 11.6245 13.5938 11.3264 13.5938 11.0156C13.5938 10.7048 13.4703 10.4068 13.2505 10.187C13.0307 9.96722 12.7327 9.84375 12.4219 9.84375H12.1875V8.90625H12.4219C12.9813 8.90625 13.5178 9.12849 13.9134 9.52407C14.309 9.91966 14.5312 10.4562 14.5312 11.0156C14.5312 11.5751 14.309 12.1116 13.9134 12.5072C13.5178 12.9028 12.9813 13.125 12.4219 13.125Z" fill="#F7A468"/>
    <path d="M14.5312 22.0312C14.4069 22.0312 14.2877 21.9819 14.1998 21.894C14.1119 21.806 14.0625 21.6868 14.0625 21.5625V18.75C14.0625 18.6257 14.1119 18.5065 14.1998 18.4185C14.2877 18.3306 14.4069 18.2812 14.5312 18.2812C14.6556 18.2812 14.7748 18.3306 14.8627 18.4185C14.9506 18.5065 15 18.6257 15 18.75V21.5625C15 21.6868 14.9506 21.806 14.8627 21.894C14.7748 21.9819 14.6556 22.0312 14.5312 22.0312Z" fill="#F7A468"/>
    <path d="M11.25 21.5625C11.1257 21.5625 11.0065 21.5131 10.9185 21.4252C10.8306 21.3373 10.7812 21.2181 10.7812 21.0938V18.75C10.7812 18.6257 10.8306 18.5065 10.9185 18.4185C11.0065 18.3306 11.1257 18.2812 11.25 18.2812C11.3743 18.2812 11.4935 18.3306 11.5815 18.4185C11.6694 18.5065 11.7188 18.6257 11.7188 18.75V21.0938C11.7188 21.2181 11.6694 21.3373 11.5815 21.4252C11.4935 21.5131 11.3743 21.5625 11.25 21.5625Z" fill="#F7A468"/>
    <path d="M23.4375 16.875V22.0313H16.875V12.1875H18.75C19.1104 12.187 19.4697 12.2285 19.8205 12.3111C19.9154 12.3328 20.0092 12.3578 20.1018 12.3861C21.0663 12.6766 21.9116 13.2701 22.5124 14.0786C23.1132 14.8871 23.4376 15.8677 23.4375 16.875Z" fill="#E0E0DE"/>
    <path d="M23.4375 16.875V22.0313H16.875V15.1184C17.9407 14.2748 18.9267 13.3351 19.8205 12.3112C19.9154 12.3328 20.0092 12.3578 20.1018 12.3862C21.0663 12.6766 21.9116 13.2701 22.5124 14.0786C23.1132 14.8871 23.4376 15.8677 23.4375 16.875Z" fill="#D6D6D4"/>
    <path d="M23.4375 22.9688V19.6875C23.4375 19.0659 23.1906 18.4698 22.751 18.0302C22.3115 17.5907 21.7154 17.3438 21.0938 17.3438C20.4721 17.3438 19.876 17.5907 19.4365 18.0302C18.9969 18.4698 18.75 19.0659 18.75 19.6875V24.2662C18.75 24.9167 19.0084 25.5405 19.4683 26.0004C19.9283 26.4604 20.5521 26.7188 21.2026 26.7188C21.4412 26.7187 21.6786 26.6839 21.9073 26.6153L26.25 25.3125L26.9156 26.3108C26.9992 26.4363 27.1125 26.5392 27.2455 26.6104C27.3785 26.6815 27.5269 26.7188 27.6778 26.7188C27.9207 26.7188 28.1537 26.6222 28.3255 26.4505C28.4972 26.2787 28.5938 26.0457 28.5938 25.8028V23.9062C28.5938 23.6576 28.495 23.4192 28.3192 23.2433C28.1433 23.0675 27.9049 22.9688 27.6562 22.9688H23.4375Z" fill="#FEC9A3"/>
</svg>
