<svg width="30" height="30" viewBox="0 0 30 30" fill="none" xmlns="http://www.w3.org/2000/svg">
    <g clip-path="url(#clip0_1:1158)">
        <path d="M29.4121 18.6047L26.6582 14.2724C25.8155 13.4296 24.3171 11.9313 22.6701 10.2842L21.7997 9.93925L21.7895 9.4036C21.7895 9.4036 16.9174 4.53147 15.7278 3.34191C11.8497 -0.536239 6.08144 -1.10183 2.61496 1.97459C-0.461455 5.441 -0.430912 11.3619 3.4473 15.2401C3.98331 15.7761 14.1658 25.8782 14.5677 26.2802C18.4459 30.1584 24.5592 30.4617 28.0256 27.3853C30.0811 25.0691 30.5101 21.7256 29.4121 18.6047Z" fill="#E6F7FE"/>
        <path d="M14.9125 26.0178C14.6613 25.7665 14.3516 25.4569 13.9972 25.1024C13.7846 24.8899 13.556 24.6613 13.3142 24.4195C10.8352 21.9405 4.78094 15.8862 3.98217 15.0875C0.10402 11.2092 -0.461633 5.44103 2.61478 1.97461C2.50245 2.07433 2.39247 2.17785 2.28515 2.28517C-1.13509 5.70542 -0.661915 11.7238 3.34197 15.7277L4.87897 17.2647C6.83893 19.2247 9.14271 21.2824 9.14271 21.2824L12.1224 24.5082C13.0054 25.3912 13.7601 26.1458 14.2723 26.6581C18.2762 30.662 24.2946 31.1352 27.7149 27.7149C27.8223 27.6075 27.9257 27.4976 28.0254 27.3853C24.559 30.4616 18.7908 29.896 14.9125 26.0178Z" fill="#D3EFFD"/>
        <path d="M14.1642 11.7297C16.4741 10.8293 18.4612 9.59235 21.7892 9.40359L22.6699 10.2842C18.1655 10.2842 16.2653 12.1428 13.1395 13.0739L14.1642 11.7297ZM29.4118 18.6047C28.8665 17.0546 27.945 15.5593 26.6579 14.2723C19.8357 14.2723 13.8533 20.9166 8.23389 19.3393L10.3969 22.1398L13.3141 24.4195C18.4677 23.6861 24.1685 18.6047 29.4118 18.6047Z" fill="#D3EFFD"/>
        <path d="M8.23402 19.3393C7.10223 19.0216 5.98516 18.3709 4.87891 17.2647L12.1224 24.5081C12.516 24.5081 12.9135 24.4765 13.3142 24.4195C11.8838 22.9891 9.99092 21.0962 8.23402 19.3393Z" fill="#B2E5FB"/>
        <path d="M13.5516 6.01482L13.3811 4.20305L11.6128 3.77339C9.59124 1.43641 6.22708 1.25279 3.93078 3.22476C1.95887 5.52106 1.90122 9.12649 4.23808 11.1481L6.47939 13.0871C8.37573 14.7277 11.3148 14.6027 13.448 12.7419C15.3087 10.6088 15.1921 7.91128 13.5516 6.01482Z" fill="#FFCBCE"/>
        <path d="M6.72046 12.8457L4.47915 10.9068C2.14229 8.8851 1.95849 5.52112 3.9304 3.22482C3.81698 3.32225 3.70609 3.42486 3.59817 3.53285C1.30525 5.82577 1.38656 9.42553 3.83889 11.547C3.45722 11.9882 3.64948 12.78 4.26843 13.3154C4.88732 13.8508 5.69847 13.9272 6.0802 13.486C8.07626 15.2129 10.9605 15.2528 13.1393 13.0739C13.2481 12.9652 13.3498 12.8542 13.4476 12.7421C11.3144 14.6027 8.61686 14.4863 6.72046 12.8457Z" fill="#FFB3B7"/>
        <path d="M13.5516 6.01479C13.9929 5.63312 13.9165 4.82197 13.3811 4.20302C12.8457 3.58407 12.054 3.39169 11.6128 3.77336L13.5516 6.01479Z" fill="#FFB3B7"/>
        <path d="M6.75472 11.8599C6.68814 11.8599 6.62054 11.8452 6.55668 11.8141C6.33195 11.7045 6.23857 11.4335 6.34812 11.2087C6.66937 10.5498 7.46308 10.0149 8.19442 9.96438C8.4439 9.94821 8.66 10.1354 8.67726 10.3849C8.69452 10.6343 8.50619 10.8504 8.25678 10.8677C7.85157 10.8957 7.34 11.2404 7.16205 11.6055C7.08358 11.7664 6.92241 11.8599 6.75472 11.8599Z" fill="#C38778"/>
        <path d="M9.90155 11.071C9.87553 11.071 9.84915 11.0687 9.82265 11.064C9.57638 11.0208 9.41183 10.7861 9.45517 10.5398C9.54764 10.0139 10.0139 9.54763 10.5398 9.45521C10.7859 9.41193 11.0207 9.57642 11.064 9.8227C11.1073 10.069 10.9427 10.3037 10.6965 10.3469C10.5465 10.3733 10.3733 10.5465 10.3469 10.6966C10.3083 10.9163 10.1172 11.071 9.90155 11.071Z" fill="#FFB3B7"/>
        <path d="M10.5675 8.52692C10.557 8.52692 10.5465 8.52656 10.5358 8.52583C10.2864 8.50863 10.0981 8.29247 10.1153 8.04299C10.1658 7.31165 10.7008 6.51794 11.3597 6.19676C11.5844 6.0872 11.8555 6.18058 11.965 6.40531C12.0746 6.6301 11.9812 6.90106 11.7565 7.01062C11.3914 7.18857 11.0466 7.70014 11.0187 8.10529C11.0021 8.3442 10.8033 8.52692 10.5675 8.52692Z" fill="#C38778"/>
        <path d="M3.91852 4.3056C3.80269 4.3056 3.68679 4.26142 3.59842 4.17299C3.42162 3.99619 3.42162 3.70953 3.59842 3.53279C4.06671 3.06444 4.31697 2.12852 4.14482 1.48905C4.07981 1.2476 4.22287 0.999209 4.46426 0.934199C4.70571 0.869189 4.9541 1.01225 5.01911 1.25364C5.27347 2.19866 4.93068 3.481 4.23862 4.17299C4.15025 4.26142 4.03436 4.3056 3.91852 4.3056Z" fill="#C38778"/>
        <path d="M5.1988 5.58613C5.08296 5.58613 4.96706 5.54194 4.87869 5.45351C4.70189 5.27671 4.70189 4.99011 4.87869 4.81331C5.78214 3.90981 6.19375 2.16516 5.83604 0.755163C5.77459 0.512809 5.92121 0.266531 6.16356 0.205022C6.40586 0.143513 6.6522 0.290253 6.71371 0.532547C7.15055 2.2548 6.64809 4.32438 5.5189 5.45351C5.43053 5.54188 5.31469 5.58613 5.1988 5.58613Z" fill="#C38778"/>
        <path d="M10.9537 12.5945C10.7037 12.5945 10.501 12.3918 10.501 12.1417C10.501 11.8917 10.7037 11.689 10.9537 11.689C11.3955 11.689 11.7549 11.3296 11.7549 10.8878C11.7549 10.6378 11.9576 10.4351 12.2076 10.4351C12.4576 10.4351 12.6603 10.6378 12.6603 10.8878C12.6603 11.8289 11.8947 12.5945 10.9537 12.5945Z" fill="#FF9A9F"/>
    </g>
    <defs>
        <clipPath id="clip0_1:1158">
            <rect width="30" height="30" fill="white"/>
        </clipPath>
    </defs>
</svg>
