<svg width="30" height="30" viewBox="0 0 30 30" fill="none" xmlns="http://www.w3.org/2000/svg">
    <g clip-path="url(#clip0_1:1176)">
        <path d="M18.339 0.909472C16.1487 0.112209 13.8945 -0.143244 11.7223 0.0741201C11.4095 0.105448 11.1411 0.310136 11.0336 0.605549C10.8942 0.988546 11.0583 1.41893 11.4214 1.604C16.7753 4.33339 19.3737 10.6817 17.2647 16.4761C15.148 22.2917 9.06415 25.4566 3.22888 24.1126C2.83176 24.0211 2.42944 24.2452 2.29007 24.6282L2.28995 24.6286C2.18244 24.924 2.25644 25.2533 2.47592 25.4784C4.00013 27.041 5.89115 28.2943 8.08158 29.0915C15.835 31.9135 24.455 27.9495 27.3013 20.1292C30.1365 12.3397 26.1258 3.7436 18.339 0.909472Z" fill="#FCE3A0"/>
        <path d="M14.9659 2.18008C13.7192 1.72633 12.4481 1.48144 11.1902 1.42597C11.2541 1.49738 11.3316 1.55823 11.4215 1.60398C16.7753 4.33338 19.3737 10.6817 17.2647 16.4761C15.148 22.2917 9.06413 25.4566 3.22886 24.1126C3.13053 24.09 3.0319 24.0868 2.93701 24.1004C3.93631 24.8665 5.06755 25.4961 6.3144 25.9499C12.8539 28.3301 20.1244 24.9867 22.5251 18.3908C24.9163 11.8208 21.5336 4.57048 14.9659 2.18008Z" fill="#FFCE71"/>
        <path d="M18.1042 20.2921C19.0053 20.2921 19.7358 19.7104 19.7358 18.9928C19.7358 18.2752 19.0053 17.6934 18.1042 17.6934C17.2031 17.6934 16.4727 18.2752 16.4727 18.9928C16.4727 19.7104 17.2031 20.2921 18.1042 20.2921Z" fill="#FF8E9E"/>
        <path d="M25.741 17.6935C24.8398 17.6935 24.1094 18.2752 24.1094 18.9928C24.1094 19.7104 24.8399 20.2921 25.741 20.2921C26.642 20.2921 27.3726 19.7104 27.3726 18.9928C27.3726 18.2751 26.642 17.6935 25.741 17.6935Z" fill="#FF8E9E"/>
        <path d="M14.6228 14.8491H14.2615L14.9996 13.7421C15.0922 13.6031 15.1008 13.4245 15.022 13.2773C14.9432 13.1302 14.7898 13.0382 14.6229 13.0382H13.4157C13.1656 13.0382 12.9629 13.2409 12.9629 13.4909C12.9629 13.741 13.1656 13.9437 13.4157 13.9437H13.777L13.0389 15.0507C12.9463 15.1897 12.9376 15.3683 13.0165 15.5154C13.0953 15.6626 13.2487 15.7545 13.4156 15.7545H14.6228C14.8729 15.7545 15.0756 15.5519 15.0756 15.3018C15.0756 15.0517 14.8729 14.8491 14.6228 14.8491Z" fill="#55DAFE"/>
        <path d="M10.0956 14.0946H9.13065L10.4723 12.0821C10.5649 11.9431 10.5736 11.7645 10.4948 11.6174C10.416 11.4702 10.2626 11.3783 10.0957 11.3783H8.2848C8.03472 11.3783 7.83208 11.5809 7.83208 11.831C7.83208 12.0811 8.03472 12.2837 8.2848 12.2837H9.24975L7.90807 14.2962C7.81548 14.4351 7.80679 14.6137 7.88562 14.7609C7.96439 14.9081 8.11783 15 8.28473 15H10.0956C10.3457 15 10.5483 14.7974 10.5483 14.5473C10.5483 14.2972 10.3457 14.0946 10.0956 14.0946Z" fill="#55DAFE"/>
        <path d="M4.65583 10.3219H3.08719L5.03249 7.40402C5.12508 7.26506 5.13377 7.08651 5.05494 6.93929C4.97617 6.79213 4.82273 6.7002 4.65583 6.7002H2.24134C1.99126 6.7002 1.78862 6.90289 1.78862 7.15291C1.78862 7.40299 1.99126 7.60563 2.24134 7.60563H3.80991L1.86462 10.5235C1.77202 10.6625 1.76333 10.8411 1.84216 10.9883C1.92094 11.1354 2.07438 11.2274 2.24128 11.2274H4.65577C4.90585 11.2274 5.10848 11.0247 5.10848 10.7746C5.10848 10.5246 4.90585 10.3219 4.65583 10.3219Z" fill="#55DAFE"/>
        <path d="M20.1947 16.9552C20.0061 16.7908 19.7202 16.8105 19.5559 16.999C19.4294 17.144 19.247 17.2273 19.0553 17.2273C18.8636 17.2273 18.6812 17.144 18.5547 16.999C18.3905 16.8105 18.1045 16.7909 17.9159 16.9552C17.7275 17.1195 17.7079 17.4054 17.8722 17.594C18.1706 17.9363 18.6018 18.1327 19.0553 18.1327C19.5087 18.1327 19.94 17.9363 20.2384 17.594C20.4027 17.4054 20.3831 17.1194 20.1947 16.9552Z" fill="#313D40"/>
        <path d="M25.9294 16.9551C25.7408 16.7908 25.455 16.8105 25.2907 16.999C25.1643 17.144 24.9819 17.2272 24.7902 17.2272C24.5984 17.2272 24.416 17.144 24.2896 16.999C24.1253 16.8105 23.8393 16.7909 23.6509 16.9551C23.4624 17.1194 23.4428 17.4054 23.607 17.5939C23.9054 17.9363 24.3367 18.1327 24.7902 18.1327C25.2437 18.1327 25.6749 17.9363 25.9733 17.5939C26.1376 17.4054 26.1179 17.1194 25.9294 16.9551Z" fill="#313D40"/>
        <path d="M21.9229 17.7514C21.5634 17.7514 21.272 18.0622 21.272 18.4455C21.272 18.8289 21.5634 19.1397 21.9229 19.1397C22.2824 19.1397 22.5738 18.8289 22.5738 18.4455C22.5738 18.0621 22.2824 17.7514 21.9229 17.7514Z" fill="#313D40"/>
    </g>
    <defs>
        <clipPath id="clip0_1:1176">
            <rect width="30" height="30" fill="white"/>
        </clipPath>
    </defs>
</svg>
