<svg width="30" height="30" viewBox="0 0 30 30" fill="none" xmlns="http://www.w3.org/2000/svg">
    <g clip-path="url(#clip0_1:1106)">
        <path d="M26.1081 17.1528C26.8881 16.9288 27.4141 15.7086 27.4141 15C27.4141 13.5717 26.2562 12.4138 24.8279 12.4138C24.7187 12.4121 24.6096 12.4208 24.502 12.4397C24.9634 11.5581 24.9305 10.4995 24.4155 9.64816C23.9005 8.79682 22.9781 8.27644 21.9831 8.27587C21.7114 8.27547 21.4412 8.31556 21.1813 8.39484C20.9832 6.58368 19.4684 5.20285 17.6467 5.17264C15.825 5.14243 14.2653 6.47228 14.0072 8.27587H13.9658C12.8232 8.27587 11.8969 9.20218 11.8969 10.3448C11.896 10.4435 11.9029 10.5421 11.9175 10.6397C11.244 10.2346 10.3987 10.2478 9.73811 10.6738C9.07755 11.0997 8.71675 11.8643 8.80789 12.645C8.94341 13.8957 14.4644 16.8988 17.6682 17.7052L26.1081 17.1528Z" fill="#9FC9D3"/>
        <path d="M24.8276 6.72413C25.6846 6.72413 26.3793 6.0294 26.3793 5.17241C26.3793 4.31541 25.6846 3.62068 24.8276 3.62068C23.9706 3.62068 23.2759 4.31541 23.2759 5.17241C23.2759 6.0294 23.9706 6.72413 24.8276 6.72413Z" fill="#9FC9D3"/>
        <path d="M11.3795 6.72416C12.5222 6.72416 13.4485 5.79785 13.4485 4.65519C13.4485 3.51253 12.5222 2.58623 11.3795 2.58623C10.2369 2.58623 9.31055 3.51253 9.31055 4.65519C9.31055 5.79785 10.2369 6.72416 11.3795 6.72416Z" fill="#84B5CB"/>
        <path d="M6.72458 3.10345C7.58157 3.10345 8.2763 2.40872 8.2763 1.55172C8.2763 0.694731 7.58157 0 6.72458 0C5.86758 0 5.17285 0.694731 5.17285 1.55172C5.17285 2.40872 5.86758 3.10345 6.72458 3.10345Z" fill="#9FC9D3"/>
        <path d="M6.20733 7.24139C6.77866 7.24139 7.24181 6.77823 7.24181 6.20691C7.24181 5.63558 6.77866 5.17242 6.20733 5.17242C5.636 5.17242 5.17285 5.63558 5.17285 6.20691C5.17285 6.77823 5.636 7.24139 6.20733 7.24139Z" fill="#9FC9D3"/>
        <path d="M20.6899 3.10345C21.5469 3.10345 22.2416 2.40872 22.2416 1.55172C22.2416 0.694731 21.5469 0 20.6899 0C19.8329 0 19.1382 0.694731 19.1382 1.55172C19.1382 2.40872 19.8329 3.10345 20.6899 3.10345Z" fill="#84B5CB"/>
        <path d="M29.9951 16.0448C29.9796 16.2466 29.9589 16.4638 29.933 16.6914C29.5968 19.7638 28.5933 24.9207 25.6037 28.2362C25.1691 28.7119 24.5952 29.0378 23.964 29.1673C21.0247 29.7508 18.033 30.0299 15.0364 30C12.0701 30.0275 9.10851 29.7554 6.19679 29.188C5.50799 29.0466 4.88988 28.6698 4.44852 28.1224C1.35541 24.2638 0.398516 18.0362 0.108861 14.5604C0.0519644 13.8931 0.0209299 13.3293 0.000240276 12.9052C-0.0244948 12.3867 0.33035 11.9267 0.838171 11.819C3.42955 11.3069 6.38817 11.0793 8.82438 12.0621C9.98959 12.6184 11.1027 13.2779 12.1502 14.0328C12.2589 14.1 12.3727 14.1724 12.4864 14.2397C14.7882 15.6207 17.3382 16.8311 20.0433 17.1311C21.0908 17.2426 22.149 17.1973 23.183 16.9966H23.1882C24.6291 16.7032 26.0266 16.227 27.3468 15.5793C27.652 15.4345 27.952 15.2845 28.252 15.1345C28.3347 15.0931 28.4123 15.0517 28.4899 15.0104C28.8294 14.8389 29.2354 14.8663 29.5489 15.0817C29.8624 15.2972 30.0334 15.6664 29.9951 16.0448Z" fill="#3B97D3"/>
        <path d="M5.17294 24.8276C5.01013 24.8276 4.85683 24.7509 4.75915 24.6207C4.1307 23.7822 3.52035 22.334 2.94363 20.3141C2.893 20.1364 2.94105 19.9451 3.06969 19.8124C3.19832 19.6796 3.388 19.6256 3.56727 19.6706C3.74654 19.7157 3.88817 19.8529 3.9388 20.0307C4.27023 21.4341 4.82674 22.7745 5.58673 24C5.70428 24.1567 5.72319 24.3664 5.63557 24.5417C5.54796 24.7169 5.36886 24.8276 5.17294 24.8276Z" fill="#B0D3F0"/>
        <path d="M2.91181 18.6207C2.6709 18.6205 2.46198 18.4541 2.40802 18.2193C2.1975 17.2986 2.08216 16.6707 2.07802 16.6443C2.03869 16.3692 2.22377 16.1122 2.49714 16.0623C2.77051 16.0124 3.03448 16.1874 3.09491 16.4586C3.09491 16.4653 3.21129 17.0922 3.41612 17.9876C3.44708 18.1213 3.42358 18.2619 3.35082 18.3783C3.27805 18.4948 3.16199 18.5775 3.02819 18.6083C2.98997 18.6167 2.95094 18.6208 2.91181 18.6207Z" fill="#B0D3F0"/>
        <path d="M29.9951 16.0448C29.9796 16.2466 29.9589 16.4638 29.933 16.6914C29.3537 17.0328 28.764 17.3431 28.164 17.6431C25.583 18.9207 22.9089 19.9138 19.9864 19.5931C17.2916 19.3035 14.752 18.119 12.4606 16.769C11.2554 16.0552 10.1175 15.1604 8.80886 14.6431C6.14507 13.5828 2.85541 13.9552 0.108861 14.5604C0.0519644 13.8931 0.0209299 13.3293 0.000240276 12.9052C-0.0244948 12.3867 0.33035 11.9267 0.838171 11.819C3.42955 11.3069 6.38817 11.0793 8.82438 12.0621C9.98959 12.6184 11.1027 13.2779 12.1502 14.0328C12.2589 14.1 12.3727 14.1724 12.4864 14.2397C14.7882 15.6207 17.3382 16.831 20.0433 17.131C21.0908 17.2426 22.149 17.1973 23.183 16.9966H23.1882C24.6291 16.7032 26.0266 16.227 27.3468 15.5793C27.652 15.4345 27.952 15.2845 28.252 15.1345C28.3347 15.0931 28.4123 15.0517 28.4899 15.0104C28.8294 14.8389 29.2354 14.8663 29.5489 15.0817C29.8624 15.2972 30.0334 15.6664 29.9951 16.0448Z" fill="#2980BA"/>
    </g>
    <defs>
        <clipPath id="clip0_1:1106">
            <rect width="30" height="30" fill="white"/>
        </clipPath>
    </defs>
</svg>
