<svg width="30" height="30" viewBox="0 0 30 30" fill="none" xmlns="http://www.w3.org/2000/svg">
    <path d="M25.3404 6.47247C25.527 6.42229 25.6971 6.32392 25.8337 6.18723C25.9703 6.05055 26.0685 5.88035 26.1186 5.69372L26.3992 4.65372L26.6792 5.69372C26.7293 5.88043 26.8276 6.05067 26.9643 6.18737C27.101 6.32406 27.2712 6.42238 27.4579 6.47247L28.4998 6.74997L27.4598 7.03059C27.2724 7.08066 27.1015 7.17933 26.9644 7.31662C26.8273 7.45391 26.7289 7.62496 26.6792 7.81247L26.3992 8.8531L26.1186 7.81247C26.0684 7.62595 25.9701 7.45588 25.8336 7.31932C25.697 7.18275 25.5269 7.08447 25.3404 7.03434L24.2998 6.74997L25.3404 6.47247Z" fill="#FFD85F"/>
    <path d="M15.235 3.35626C15.4215 3.30588 15.5916 3.20746 15.7283 3.07081C15.8649 2.93417 15.9633 2.76407 16.0137 2.57751L16.2937 1.53688L16.5737 2.57751C16.624 2.76413 16.7223 2.93428 16.859 3.07095C16.9957 3.20761 17.1658 3.306 17.3525 3.35626L18.3931 3.63626L17.3525 3.91625C17.1659 3.96663 16.9958 4.06505 16.8591 4.2017C16.7225 4.33835 16.6241 4.50844 16.5737 4.69501L16.2937 5.73563L16.0137 4.69501C15.9632 4.5085 15.8648 4.33846 15.7281 4.20183C15.5915 4.0652 15.4215 3.96674 15.235 3.91625L14.1943 3.63626L15.235 3.35626Z" fill="#FFD85F"/>
    <path d="M21.6759 2.13062C21.8345 2.08795 21.9792 2.00436 22.0953 1.88819C22.2115 1.77203 22.2951 1.62738 22.3378 1.46874L22.5753 0.584991L22.8128 1.46874C22.8555 1.62746 22.9392 1.77216 23.0554 1.88832C23.1717 2.00449 23.3165 2.08805 23.4753 2.13062L24.359 2.36874L23.4753 2.60624C23.3165 2.64881 23.1717 2.73236 23.0554 2.84853C22.9392 2.9647 22.8555 3.1094 22.8128 3.26812L22.5753 4.15249L22.3378 3.26812C22.2951 3.10947 22.2115 2.96483 22.0953 2.84866C21.9792 2.7325 21.8345 2.6489 21.6759 2.60624L20.7915 2.36874L21.6759 2.13062Z" fill="#FFD85F"/>
    <path d="M23.4013 14.5525C23.2971 14.8616 23.1718 15.1631 23.0263 15.455C22.9388 15.651 22.8403 15.8419 22.7313 16.0269C21.4024 18.2387 20.7441 20.7888 20.8363 23.3675C20.8426 27.2781 19.8132 29.5344 17.4126 29.5344C14.7176 29.5344 14.5488 26.2794 14.2963 22.7056C14.276 22.044 14.074 21.4007 13.7126 20.8462C13.6028 20.6915 13.4576 20.5652 13.2891 20.4781C13.1205 20.391 12.9335 20.3455 12.7438 20.3455C12.5541 20.3455 12.3671 20.391 12.1986 20.4781C12.03 20.5652 11.8848 20.6915 11.7751 20.8462C11.4133 21.4002 11.2133 22.0442 11.1976 22.7056C10.9388 26.2794 10.7701 29.5344 8.07257 29.5344C5.67132 29.5344 4.64257 27.2781 4.64882 23.3675C4.74233 20.7891 4.08532 18.239 2.75757 16.0269C2.64898 15.8418 2.55071 15.6509 2.46319 15.455C2.31766 15.1631 2.19236 14.8616 2.08819 14.5525C1.11944 11.7069 1.96757 8.88498 4.62694 7.83811C7.75194 6.61061 10.4876 8.65623 12.7438 8.65623C15.0001 8.65623 17.7376 6.61061 20.8607 7.83811C23.5219 8.88498 24.3701 11.7069 23.4013 14.5525Z" fill="#59CEF2"/>
    <path d="M20.8375 23.3687C20.7471 20.7887 21.4067 18.2379 22.7362 16.025C24.6112 12.7506 23.9862 9.06624 20.8612 7.83749C17.7362 6.60874 14.9987 8.65624 12.7444 8.65624C10.7531 8.65624 8.38248 7.05999 5.70498 7.53124C3.30123 9.03874 2.94748 12.3437 4.64248 15.3094C5.97174 17.5224 6.63126 20.0731 6.54123 22.6531C6.53248 26.4806 7.51873 28.7194 9.8156 28.8125C10.8706 27.6606 11.0081 25.2637 11.1906 22.7025C11.2135 22.1054 11.3773 21.5222 11.6687 21.0006C11.6794 20.9837 11.69 20.9669 11.7 20.95C11.9941 20.4336 12.4464 20.0253 12.9901 19.7852C13.5338 19.5452 14.1402 19.4862 14.72 19.6169C15.065 19.6797 15.3767 19.8626 15.6 20.1331C15.9605 20.6869 16.1612 21.3295 16.18 21.99C16.4369 25.5637 16.6025 28.8175 19.2969 28.8175H19.3475C20.3825 27.8681 20.8431 25.9912 20.8375 23.3687Z" fill="#84DBF8"/>
    <path d="M20.8633 7.83811C17.7383 6.60999 15.0008 8.65624 12.7464 8.65624C10.7552 8.65624 8.38578 7.05999 5.70828 7.53124C5.31933 7.77436 4.97093 8.077 4.67578 8.42811C7.02266 8.34874 9.11641 9.63374 10.9039 9.63374C13.1583 9.63374 15.8989 7.58749 19.0202 8.81499C22.1414 10.0425 22.7664 13.7275 20.8952 17.0025C19.5657 19.2154 18.9064 21.7663 18.997 24.3462C19.065 25.8076 18.8321 27.2674 18.3127 28.635C18.6271 28.7634 18.9643 28.8272 19.3039 28.8225H19.3545C20.3858 27.8712 20.8439 25.995 20.8383 23.3706C20.7479 20.7906 21.4074 18.2397 22.737 16.0269C24.6095 12.75 23.9852 9.06624 20.8633 7.83811Z" fill="#A5E5FA"/>
    <path d="M10.0625 21.6644C9.65027 22.2637 9.4052 22.962 9.3525 23.6875C9.3178 25.328 9.08934 26.9587 8.67188 28.5456C9.03199 28.7138 9.42271 28.8065 9.82 28.8181C10.8775 27.6675 11.0125 25.2712 11.195 22.7081C11.2179 22.111 11.3817 21.5279 11.6731 21.0062C11.6838 20.9894 11.6944 20.9725 11.7044 20.9556C11.8912 20.6289 12.1424 20.3434 12.4426 20.1164C12.7428 19.8895 13.086 19.7257 13.4513 19.635H13.455C12.7816 19.7259 12.1336 19.9526 11.5504 20.3014C10.9673 20.6503 10.4611 21.114 10.0625 21.6644Z" fill="#A5E5FA"/>
</svg>
