<svg width="60" height="60" viewBox="0 0 60 60" fill="none" xmlns="http://www.w3.org/2000/svg">
    <path d="M30 0C23.8317 0 16.7796 9.58055 16.7796 21.3559C16.7796 36.5705 29.1632 58.7268 29.6038 59.6633C29.7047 59.8779 29.8487 59.9999 29.9999 59.9999C30.2884 59.9999 30.5635 59.8778 30.7561 59.6633C31.5973 58.7268 51.3558 36.5705 51.3558 21.3559C51.3559 9.58055 41.7759 0 30 0ZM30 32.5424C23.8219 32.5424 18.8135 27.5341 18.8135 21.3559C18.8135 15.1777 23.8219 10.1695 30 10.1695C36.1781 10.1695 41.1865 15.1778 41.1865 21.356C41.1865 27.5343 36.1781 32.5424 30 32.5424Z" fill="#B3E5FC"/>
    <path d="M29.6039 59.6634C29.1632 58.7269 16.7797 36.5706 16.7797 21.356C16.7796 9.58055 23.8317 0 30 0C18.2241 0 8.6441 9.58055 8.6441 21.3559C8.6441 36.5705 28.4026 58.7268 29.2438 59.6633C29.4364 59.8779 29.7116 59.9999 30 59.9999C29.8488 60 29.7048 59.8779 29.6039 59.6634Z" fill="#60B7FF"/>
</svg>
