<svg width="45" height="50" viewBox="0 0 45 50" fill="none" xmlns="http://www.w3.org/2000/svg">
    <g clip-path="url(#clip0_1:9)">
        <path d="M30.3427 6.66331C31.9121 6.56561 33.1051 5.21419 33.0074 3.64482C32.9097 2.07545 31.5583 0.882436 29.9889 0.980138C28.4195 1.07784 27.2265 2.42927 27.3242 3.99863C27.4219 5.568 28.7734 6.76102 30.3427 6.66331Z" fill="#B3E5FC"/>
        <path d="M39.7676 39.3623C40.2365 38.046 40.4944 36.6292 40.4944 35.1521C40.4944 29.582 36.857 24.866 31.8295 23.2416C35.4301 22.7124 38.1934 19.6108 38.1934 15.8628C38.1934 11.743 34.854 8.40367 30.7342 8.40367C29.7428 8.40367 28.7983 8.59794 27.9341 8.94628C26.3465 5.52653 22.8832 3.15179 18.8673 3.15179C15.558 3.15179 12.6273 4.75951 10.8086 7.23808C10.1521 7.00697 9.44872 6.87969 8.71184 6.87969C5.25525 6.87969 2.45514 9.68315 2.45514 13.1364C2.45514 15.1293 3.38628 16.9045 4.83657 18.05C3.40972 19.1955 2.49533 20.9573 2.49533 22.9301C2.49533 25.2378 3.74466 27.2508 5.60024 28.336C3.95903 30.3926 2.981 32.9951 2.981 35.8253C2.981 42.4538 8.35681 47.8296 14.9853 47.8296C17.4002 47.8296 19.651 47.1162 21.5334 45.8869C23.4158 47.019 25.6197 47.6722 27.9777 47.6722C31.4678 47.6722 34.6229 46.2453 36.8905 43.9409C37.413 44.574 38.2034 44.9759 39.0843 44.9759C40.6552 44.9759 41.9313 43.6998 41.9313 42.1289C41.9313 40.7891 41.0102 39.6671 39.7676 39.3623ZM14.9451 23.821C14.9853 23.533 15.0087 23.2349 15.0087 22.9334C15.0087 22.7358 14.9987 22.5415 14.9819 22.3473C16.1743 22.853 17.4873 23.131 18.8673 23.131C21.2721 23.131 23.4761 22.2803 25.201 20.8668C25.8742 21.6104 26.6982 22.22 27.6193 22.6454C24.9398 22.7224 22.4712 23.6401 20.4683 25.144C18.8237 24.3 16.9615 23.821 14.9886 23.821C14.9719 23.821 14.9585 23.821 14.9451 23.821Z" fill="#B3E5FC"/>
        <path d="M24.8594 3.14175C25.7269 3.14175 26.4302 2.43844 26.4302 1.57087C26.4302 0.703304 25.7269 0 24.8594 0C23.9918 0 23.2885 0.703304 23.2885 1.57087C23.2885 2.43844 23.9918 3.14175 24.8594 3.14175Z" fill="#B3E5FC"/>
        <path d="M44.3931 41.6781C44.5185 41.147 44.1896 40.6149 43.6586 40.4895C43.1275 40.3641 42.5953 40.6929 42.4699 41.224C42.3445 41.7551 42.6734 42.2872 43.2044 42.4126C43.7355 42.538 44.2677 42.2092 44.3931 41.6781Z" fill="#B3E5FC"/>
        <path d="M21.6573 48.5095C30.703 48.5095 38.0359 47.3039 38.0359 45.8166C38.0359 44.3294 30.703 43.1237 21.6573 43.1237C12.6116 43.1237 5.27866 44.3294 5.27866 45.8166C5.27866 47.3039 12.6116 48.5095 21.6573 48.5095Z" fill="#4E342E"/>
        <path d="M29.2671 37.1349C29.3978 37.7579 29.438 38.401 29.3877 39.0475C29.371 39.1714 29.3576 39.2953 29.3442 39.4226C29.2471 40.059 29.0293 40.6518 28.6944 41.1911C27.502 43.0969 24.8828 44.2357 21.6841 44.2357C21.6774 44.2357 21.674 44.2357 21.6673 44.2357C21.6606 44.2357 21.6573 44.2357 21.6506 44.2357C18.4519 44.2357 15.8326 43.0969 14.6403 41.1911C14.3053 40.6552 14.0876 40.0623 13.9905 39.4226C13.9771 39.2987 13.9637 39.1714 13.9469 39.0475C13.8967 38.401 13.9369 37.7579 14.0675 37.1349C14.0809 37.068 14.0977 37.001 14.1144 36.9239C14.1211 36.8971 14.1278 36.8703 14.1345 36.8435C14.2618 36.8235 14.3924 36.8067 14.523 36.79C15.9901 36.5957 17.4672 36.4718 18.9476 36.4148C19.8519 36.3813 20.7563 36.3746 21.664 36.3947C22.5683 36.3746 23.476 36.3813 24.3804 36.4148C25.8608 36.4684 27.3345 36.5957 28.8049 36.79C28.9356 36.8067 29.0628 36.8268 29.1935 36.8435C29.2002 36.8703 29.2069 36.8971 29.2136 36.9239C29.237 37.001 29.2538 37.068 29.2671 37.1349Z" fill="#F5F5F5"/>
        <path d="M12.4397 39.7207C12.4833 40.2499 12.4833 40.7858 12.4263 41.3083V41.3117C12.3761 41.6332 12.2991 41.9481 12.1818 42.2495C12.088 42.4505 11.9809 42.6414 11.8502 42.8223C11.7397 42.9529 11.6225 43.0768 11.4918 43.184C11.3512 43.2812 11.2038 43.3649 11.0497 43.4352C10.8722 43.5022 10.688 43.5525 10.5038 43.5859C10.3296 43.6027 10.1521 43.6027 9.97791 43.5859C9.7669 43.5491 9.56258 43.4922 9.36497 43.4151C9.08697 43.2878 8.82571 43.1271 8.5812 42.9462C8.57785 42.9462 8.57785 42.9429 8.5745 42.9429C8.18597 42.628 7.84098 42.2663 7.52949 41.8777C7.52614 41.8744 7.52279 41.8677 7.51944 41.8643C7.46585 41.794 7.41226 41.7203 7.36202 41.6466C7.35532 41.6399 7.35197 41.6332 7.34862 41.6232C6.96009 41.0538 6.6151 40.4542 6.3371 39.8212C6.3371 39.8179 6.33375 39.8179 6.33375 39.8145C6.12943 39.3087 5.96531 38.7795 5.88158 38.2403C5.84473 37.902 5.84473 37.5604 5.88158 37.2187C5.93182 36.9106 6.0122 36.6091 6.12608 36.3177C6.23326 36.0833 6.36054 35.8589 6.51127 35.6512C6.65194 35.477 6.80936 35.3196 6.98018 35.1756C6.98018 35.1756 6.98353 35.1756 6.98353 35.1722C7.1443 35.0583 7.31512 34.9579 7.49264 34.8741C7.68691 34.8004 7.88787 34.7468 8.09219 34.71C8.09219 34.71 8.09219 34.71 8.09554 34.71C8.34005 34.6866 8.58455 34.6899 8.82571 34.7134C9.10036 34.7569 9.37167 34.8339 9.63292 34.9344C9.75685 34.9914 9.87743 35.0516 9.99466 35.1186C10.1554 35.2091 10.3095 35.3095 10.4569 35.4167C10.7483 35.6545 11.0162 35.9191 11.2507 36.2139C11.2808 36.2541 11.311 36.2943 11.3378 36.3378C11.5555 36.6527 11.7431 36.9876 11.8971 37.3393C12.1249 37.902 12.2756 38.4881 12.3694 39.0877C12.3727 39.1346 12.3761 39.1815 12.3794 39.2317C12.3962 39.3992 12.4163 39.56 12.4397 39.7207ZM11.2339 36.9508C11.2339 36.9407 11.2373 36.9307 11.2373 36.9206C11.2306 36.9575 11.2272 36.9977 11.2205 37.0345C11.2272 37.0077 11.2306 36.9809 11.2339 36.9508ZM37.4632 37.2254C37.5001 37.5637 37.5001 37.9053 37.4632 38.247C37.3795 38.7862 37.2154 39.3154 37.011 39.8212C37.011 39.8246 37.0077 39.8246 37.0077 39.8279C36.7297 40.4609 36.3847 41.0571 35.9962 41.6299C35.9928 41.6366 35.9861 41.6433 35.9828 41.6533C35.9325 41.727 35.8789 41.8007 35.8253 41.871C35.822 41.8744 35.8186 41.8811 35.8153 41.8844C35.5038 42.2763 35.1588 42.6381 34.7703 42.9496C34.7703 42.9496 34.7669 42.9529 34.7636 42.9529C34.5191 43.1338 34.2578 43.2945 33.9798 43.4218C33.7822 43.4989 33.5779 43.5558 33.3669 43.5926C33.1927 43.6094 33.0152 43.6094 32.841 43.5926C32.6534 43.5592 32.4726 43.5089 32.2951 43.4419C32.141 43.3716 31.9903 43.2878 31.8529 43.1907C31.7223 43.0802 31.6017 42.9596 31.4945 42.829C31.3673 42.6481 31.2567 42.4572 31.163 42.2562C31.0457 41.9548 30.9687 41.6399 30.9184 41.3184V41.315C30.8582 40.7892 30.8615 40.2566 30.9051 39.7274C30.9318 39.5667 30.9519 39.4059 30.9653 39.2384C30.9687 39.1915 30.972 39.1446 30.9754 39.0944C31.0692 38.4948 31.2199 37.9087 31.4477 37.346C31.6017 36.9943 31.7893 36.6594 32.007 36.3445C32.0372 36.3043 32.064 36.2608 32.0941 36.2206C32.3319 35.9292 32.5965 35.6612 32.8879 35.4234C33.0353 35.3162 33.1894 35.2158 33.3501 35.1253C33.4674 35.0583 33.5879 34.998 33.7119 34.9411C33.9731 34.8406 34.2411 34.7669 34.5191 34.72C34.7636 34.6966 35.0081 34.6933 35.2492 34.7167C35.2492 34.7167 35.2492 34.7167 35.2526 34.7167C35.4569 34.7502 35.6579 34.8071 35.8521 34.8808C36.0297 34.9646 36.2005 35.0617 36.3612 35.1789C36.3612 35.1789 36.3612 35.1789 36.3646 35.1823C36.5354 35.3263 36.6928 35.4837 36.8335 35.6579C36.9842 35.8655 37.1115 36.09 37.2187 36.3244C37.3326 36.6158 37.413 36.9173 37.4632 37.2254ZM32.1108 36.9508C32.1142 36.9776 32.1175 37.0077 32.1209 37.0345C32.1142 36.9977 32.1108 36.9575 32.1041 36.9206C32.1075 36.9307 32.1108 36.9407 32.1108 36.9508ZM31.3405 34.1406C30.9553 33.2564 30.4663 32.4157 29.8835 31.6486C29.8835 31.6453 29.8801 31.6453 29.8801 31.6419C29.5318 31.1998 29.15 30.7845 28.7413 30.3993C28.6609 30.3223 28.6007 30.2251 28.5605 30.1213C28.3695 30.2084 28.1719 30.2888 27.9743 30.3658C26.236 31.0357 24.1124 31.374 21.6573 31.374C19.2022 31.374 17.0787 31.0323 15.3403 30.3625C15.1494 30.2888 14.9618 30.2117 14.781 30.128C14.7441 30.2285 14.6838 30.3223 14.6068 30.396C14.1982 30.7811 13.8197 31.1998 13.468 31.6386C13.468 31.6419 13.4647 31.6419 13.4647 31.6453C12.8785 32.4157 12.3928 33.253 12.0077 34.1373C11.9541 34.2679 11.9038 34.3985 11.8536 34.5325C11.9038 34.5794 11.9507 34.6263 12.001 34.6765C12.2488 34.9244 12.4699 35.1923 12.6675 35.477C12.7244 35.5574 12.778 35.6411 12.8316 35.7249C12.8651 35.6277 12.9053 35.5273 12.9421 35.4301C13.0058 35.2694 13.0761 35.1086 13.1498 34.9512C13.8431 33.4875 14.7441 32.6602 14.781 32.6233C15.1059 32.3286 15.6083 32.352 15.8997 32.6769C16.1944 33.0018 16.171 33.5009 15.8461 33.7956C15.8293 33.809 15.3135 34.2947 14.8245 35.1588C14.8714 35.1521 14.9216 35.1454 14.9685 35.1421C16.4691 34.9579 17.9797 34.8473 19.4902 34.8071C20.2171 34.7904 20.9439 34.787 21.6674 34.8038C22.3942 34.787 23.121 34.7904 23.8445 34.8071C25.3551 34.844 26.8657 34.9579 28.3662 35.1421C28.4131 35.1488 28.4633 35.1555 28.5102 35.1588C28.0212 34.2947 27.502 33.809 27.4886 33.7956C27.1671 33.5009 27.1437 33.0018 27.4351 32.6769C27.7298 32.352 28.2322 32.3286 28.5538 32.6233C28.5906 32.6568 29.4949 33.4875 30.1849 34.9512C30.2586 35.1086 30.329 35.2694 30.3926 35.4301C30.4294 35.5273 30.4696 35.6244 30.5031 35.7249C30.5567 35.6411 30.6103 35.5574 30.6672 35.477C30.8649 35.1923 31.0893 34.9244 31.3338 34.6765C31.3807 34.6296 31.4309 34.5794 31.4812 34.5325C31.4443 34.4052 31.3941 34.2712 31.3405 34.1406ZM33.8961 23.9148C34.0033 23.9282 34.1104 23.9383 34.221 23.9383C35.5239 23.9383 36.5823 22.8799 36.5823 21.5769C36.5823 20.4013 35.7182 19.4233 34.5928 19.2458C34.5358 21.0109 34.3081 22.5617 33.8961 23.9148ZM8.72523 19.2491C7.59983 19.4266 6.73568 20.4047 6.73568 21.5803C6.73568 22.8799 7.79409 23.9416 9.09701 23.9416C9.20754 23.9416 9.31472 23.9349 9.42191 23.9182C9.00658 22.5617 8.77882 21.0109 8.72523 19.2491ZM33.0152 18.4251C33.0152 18.5055 33.0152 18.5859 33.0152 18.663C33.0118 18.9711 33.0051 19.2692 32.9917 19.5639C32.9314 20.9071 32.7573 22.0995 32.4659 23.1512C32.3855 23.4426 32.2951 23.7239 32.1979 23.9952C32.1008 24.2598 31.997 24.5144 31.8864 24.7555C31.585 25.412 31.2199 25.9948 30.7945 26.5106C28.9791 28.7112 25.9915 29.783 21.6573 29.783C17.3232 29.783 14.3355 28.7145 12.5201 26.514C12.0947 25.9982 11.7297 25.412 11.4282 24.7589C11.3143 24.5144 11.2105 24.2598 11.1167 23.9986C11.0196 23.7273 10.9291 23.4459 10.8488 23.1545C10.5574 22.1028 10.3832 20.9071 10.3229 19.5673C10.3095 19.2759 10.3028 18.9745 10.2995 18.6663C10.2995 18.5859 10.2995 18.5089 10.2995 18.4285C10.2995 18.2242 10.3028 18.0232 10.3095 17.8256C10.5775 10.1487 15.9566 7.2448 21.1683 7.07733C21.6439 7.08403 22.2167 7.29169 22.7023 7.63668C23.2516 8.02522 23.6301 8.54772 23.7105 9.02669C23.8713 9.97792 23.1679 10.2291 22.8598 10.2961C22.4478 10.3832 21.7444 10.3095 21.6037 9.74347C21.4965 9.31809 21.0678 9.06019 20.6424 9.16737C20.2171 9.27455 19.9592 9.70327 20.0663 10.1286C20.2372 10.8086 20.6893 11.3512 21.3425 11.6526C21.7109 11.8235 22.1262 11.9139 22.5483 11.9139C22.7593 11.9139 22.9736 11.8904 23.188 11.8469C23.8478 11.7096 24.4239 11.3579 24.8058 10.8655C25.1173 10.4636 25.4522 9.77361 25.278 8.75874C25.1977 8.28312 24.99 7.8142 24.6818 7.38213C28.9758 8.31327 32.7874 11.3947 33.0118 17.8223C33.0118 18.0232 33.0152 18.2208 33.0152 18.4251ZM30.751 21.5803C30.751 21.1415 30.6505 20.7262 30.4696 20.3544C30.0141 19.4199 29.0562 18.7735 27.9475 18.7735C26.4001 18.7735 25.1441 20.0329 25.1441 21.5769C25.1441 22.0157 25.4991 22.3708 25.9379 22.3708C26.3766 22.3708 26.7317 22.0157 26.7317 21.5769C26.7317 20.9037 27.2776 20.3578 27.9509 20.3578C28.6241 20.3578 29.1701 20.9037 29.1701 21.5769C29.1701 22.0157 29.5251 22.3708 29.9639 22.3708C30.1012 22.3708 30.2285 22.3373 30.3424 22.2736C30.5835 22.143 30.751 21.8817 30.751 21.5803ZM24.4775 23.7306C24.4775 23.2918 24.1225 22.9368 23.6837 22.9368C23.2449 22.9368 22.8899 23.2918 22.8899 23.7306C22.8899 24.4039 22.344 24.9498 21.6707 24.9498C20.9975 24.9498 20.4515 24.4039 20.4515 23.7306C20.4515 23.2918 20.0965 22.9368 19.6577 22.9368C19.2189 22.9368 18.8639 23.2918 18.8639 23.7306C18.8639 25.278 20.1233 26.5341 21.6674 26.5341C23.2114 26.5341 24.4775 25.278 24.4775 23.7306ZM17.3801 22.3708C17.8189 22.3708 18.1739 22.0157 18.1739 21.5769C18.1739 20.0295 16.9145 18.7735 15.3705 18.7735C14.2618 18.7735 13.3039 19.4199 12.8484 20.3544C12.6675 20.7228 12.567 21.1415 12.567 21.5803C12.567 21.8817 12.7345 22.143 12.9823 22.277C13.0962 22.3373 13.2235 22.3741 13.3608 22.3741C13.7996 22.3741 14.1546 22.0191 14.1546 21.5803C14.1546 20.9071 14.7006 20.3611 15.3738 20.3611C16.047 20.3611 16.593 20.9071 16.593 21.5803C16.5863 22.0191 16.9413 22.3708 17.3801 22.3708Z" fill="#FFE0B2"/>
        <path d="M15.7891 30.5131C17.4471 31.0825 19.4299 31.3706 21.6874 31.3706C24.1392 31.3706 26.2661 31.0323 28.0044 30.3624C28.1953 30.2887 28.3829 30.2117 28.5638 30.1279C28.6006 30.2284 28.6609 30.3222 28.7379 30.3959C28.8418 30.493 28.9389 30.5901 29.0394 30.6906C29.0394 30.694 23.2751 33.2596 15.7891 30.5131Z" fill="#DDB687"/>
        <path d="M36.2005 20.9774C36.2005 22.2033 35.2593 23.2148 34.0602 23.3253C34.0099 23.5263 33.953 23.7239 33.8961 23.9148C34.0032 23.9316 34.1104 23.9383 34.221 23.9383C35.5239 23.9383 36.5823 22.8798 36.5823 21.5769C36.5823 20.9874 36.3646 20.4482 36.0062 20.0328C36.1301 20.3242 36.2005 20.6424 36.2005 20.9774Z" fill="#DDB687"/>
        <path d="M32.6266 17.2227C32.6333 17.4203 32.6367 17.6213 32.6367 17.8256C32.6367 17.906 32.6367 17.9863 32.6367 18.0634C32.6333 18.3715 32.6266 18.6696 32.6132 18.9644C32.553 20.3075 32.3788 21.4999 32.0874 22.5516C32.007 22.843 31.9166 23.1243 31.8194 23.3956C31.7223 23.6602 31.6185 23.9148 31.5079 24.156C31.2065 24.8124 30.8414 25.3952 30.416 25.911C28.6007 28.1116 25.613 29.1834 21.2788 29.1834C16.9447 29.1834 13.957 28.115 12.1417 25.911C12.011 25.7536 11.8904 25.5895 11.7699 25.4187C11.9943 25.8106 12.2455 26.1757 12.5201 26.5106C14.3355 28.7112 17.3232 29.783 21.6573 29.783C25.9915 29.783 28.9791 28.7145 30.7945 26.5106C31.2199 25.9948 31.585 25.4086 31.8864 24.7555C32.0003 24.511 32.1041 24.2598 32.1979 23.9952C32.2951 23.7239 32.3855 23.4425 32.4659 23.1511C32.7539 22.0994 32.9281 20.9037 32.9917 19.5639C33.0051 19.2725 33.0118 18.9711 33.0152 18.6629C33.0152 18.5825 33.0152 18.5055 33.0152 18.4251C33.0152 18.2208 33.0118 18.0198 33.0051 17.8222C32.9147 15.1728 32.2113 13.0962 31.1194 11.4985C31.9936 13.0091 32.5463 14.8948 32.6266 17.2227Z" fill="#DDB687"/>
        <path d="M10.8588 36.3177C10.8521 36.3545 10.8487 36.3947 10.842 36.4316C10.8454 36.4048 10.8487 36.3746 10.8521 36.3478C10.8554 36.3378 10.8554 36.3277 10.8588 36.3177Z" fill="#DDB687"/>
        <path d="M37.4632 37.2254C37.413 36.9172 37.3326 36.6158 37.2187 36.3244C37.1115 36.0899 36.9842 35.8655 36.8335 35.6578C36.8134 35.6344 36.7933 35.6109 36.7732 35.5875C36.7967 35.631 36.8168 35.6779 36.8402 35.7248C36.9541 36.0162 37.0345 36.3177 37.0847 36.6258C37.1216 36.9641 37.1216 37.3057 37.0847 37.6474C37.001 38.1866 36.8369 38.7158 36.6325 39.2216C36.6325 39.225 36.6292 39.225 36.6292 39.2283C36.3512 39.8613 36.0062 40.4575 35.6177 41.0303C35.6143 41.037 35.6076 41.0437 35.6009 41.0537C35.5507 41.1274 35.4971 41.2011 35.4435 41.2714C35.4402 41.2748 35.4368 41.2815 35.4335 41.2848C35.122 41.6767 34.777 42.0385 34.3884 42.35C34.3884 42.35 34.3851 42.3533 34.3817 42.3533C34.1372 42.5342 33.876 42.6949 33.598 42.8222C33.4004 42.8993 33.1961 42.9562 32.985 42.993C32.8109 43.0098 32.6334 43.0098 32.4592 42.993C32.2716 42.9595 32.0907 42.9093 31.9132 42.8423C31.7592 42.772 31.6084 42.6882 31.4711 42.5911C31.3706 42.5074 31.2768 42.4136 31.1898 42.3165C31.2768 42.494 31.3773 42.6681 31.4912 42.8289C31.6017 42.9595 31.719 43.0835 31.8496 43.1907C31.9903 43.2878 32.1376 43.3715 32.2917 43.4419C32.4692 43.5089 32.6534 43.5591 32.8377 43.5926C33.0118 43.6093 33.1894 43.6093 33.3635 43.5926C33.5745 43.5557 33.7789 43.4988 33.9765 43.4218C34.2545 43.2945 34.5157 43.1337 34.7602 42.9529C34.7636 42.9529 34.7636 42.9495 34.7669 42.9495C35.1555 42.6347 35.5004 42.2729 35.8119 41.8844C35.8153 41.881 35.8186 41.8743 35.822 41.871C35.8756 41.8007 35.9292 41.727 35.9794 41.6533C35.9861 41.6466 35.9895 41.6399 35.9928 41.6298C36.3813 41.0604 36.7263 40.4609 37.0043 39.8278C37.0043 39.8245 37.0077 39.8245 37.0077 39.8212C37.212 39.3154 37.3761 38.7862 37.4598 38.2469C37.5 37.9053 37.5 37.5636 37.4632 37.2254Z" fill="#DDB687"/>
        <path d="M12.3794 39.235C12.3761 39.1881 12.3727 39.1412 12.3694 39.091C12.2756 38.4914 12.1249 37.9053 11.8971 37.3426C11.743 36.9909 11.5555 36.656 11.3378 36.3411C11.3177 36.3143 11.2976 36.2875 11.2775 36.2574C11.3646 36.4148 11.4416 36.5756 11.5153 36.7364C11.743 37.2991 11.8938 37.8852 11.9875 38.4847C11.9909 38.5316 11.9942 38.5785 11.9976 38.6288C12.011 38.7929 12.0311 38.957 12.0579 39.1178C12.1014 39.647 12.1014 40.1829 12.0445 40.7054V40.7088C11.9942 41.0303 11.9172 41.3451 11.8 41.6466C11.7062 41.8475 11.599 42.0385 11.4684 42.2193C11.3579 42.35 11.2406 42.4739 11.11 42.5811C10.9693 42.6782 10.822 42.7619 10.6679 42.8323C10.4904 42.8993 10.3061 42.9495 10.1219 42.983C9.94776 42.9997 9.77024 42.9997 9.59607 42.983C9.38506 42.9462 9.18075 42.8892 8.98313 42.8122C8.70513 42.6849 8.44388 42.5241 8.19937 42.3433C8.19602 42.3433 8.19602 42.3399 8.19267 42.3399C7.80414 42.0251 7.45915 41.6633 7.14766 41.2748C7.14431 41.2715 7.14096 41.2648 7.13761 41.2614C7.08402 41.1911 7.03043 41.1174 6.98019 41.0437C6.97349 41.037 6.97014 41.0303 6.96679 41.0202C6.94669 40.9901 6.9266 40.9633 6.90985 40.9332C7.04718 41.1676 7.19455 41.3987 7.34862 41.6231C7.35197 41.6298 7.35867 41.6365 7.36202 41.6466C7.41226 41.7203 7.46585 41.794 7.51944 41.8643C7.52279 41.8676 7.52614 41.8743 7.52949 41.8777C7.84099 42.2696 8.18597 42.6313 8.5745 42.9428C8.5745 42.9428 8.57785 42.9462 8.5812 42.9462C8.82571 43.127 9.08696 43.2878 9.36496 43.4151C9.56258 43.4921 9.76689 43.549 9.9779 43.5859C10.1521 43.6026 10.3296 43.6026 10.5038 43.5859C10.6913 43.5524 10.8722 43.5022 11.0497 43.4352C11.2038 43.3648 11.3545 43.2811 11.4918 43.184C11.6225 43.0734 11.743 42.9529 11.8502 42.8222C11.9775 42.6414 12.088 42.4504 12.1818 42.2495C12.299 41.948 12.3761 41.6332 12.4263 41.3116V41.3083C12.4866 40.7824 12.4833 40.2499 12.4397 39.7207C12.4163 39.5599 12.3962 39.3991 12.3794 39.235Z" fill="#DDB687"/>
        <path d="M32.6702 37.6809C32.6702 37.6909 32.6735 37.701 32.6735 37.711C32.6769 37.7378 32.6802 37.768 32.6836 37.7948C32.6802 37.7579 32.6769 37.7177 32.6702 37.6809Z" fill="white"/>
        <path d="M11.7966 37.711C11.7966 37.701 11.8 37.6909 11.8 37.6809C11.7933 37.7177 11.7899 37.7579 11.7832 37.7948C11.7899 37.768 11.7933 37.7412 11.7966 37.711Z" fill="white"/>
        <path d="M29.6021 33.9027C29.7997 34.2042 30.004 34.5559 30.195 34.9578C30.2686 35.1152 30.339 35.276 30.4026 35.4368C30.4395 35.5339 30.4797 35.631 30.5132 35.7315C30.56 35.6578 30.6069 35.5841 30.6572 35.5138C30.3021 34.8037 29.9036 34.2611 29.6021 33.9027Z" fill="white"/>
        <path d="M31.7256 43.0131C31.6084 42.7117 31.5314 42.3969 31.4811 42.0753V42.072C31.4208 41.5461 31.4242 41.0135 31.4677 40.4843C31.4945 40.3236 31.5146 40.1628 31.528 39.9953C31.5314 39.9484 31.5347 39.9015 31.5381 39.8513C31.6319 39.2518 31.7826 38.6656 32.0103 38.1029C32.1644 37.7512 32.352 37.4163 32.5697 37.1014C32.5998 37.0612 32.6266 37.0177 32.6568 36.9775C32.8946 36.6861 33.1592 36.4181 33.4506 36.1803C33.598 36.0732 33.752 35.9727 33.9128 35.8822C34.03 35.8153 34.1506 35.755 34.2745 35.698C34.5358 35.5975 34.8037 35.5239 35.0817 35.477C35.3263 35.4535 35.5708 35.4502 35.8119 35.4736C35.8119 35.4736 35.8119 35.4736 35.8153 35.4736C36.0196 35.5071 36.2205 35.564 36.4148 35.6377C36.5923 35.7215 36.7632 35.8186 36.9239 35.9358C36.9239 35.9358 36.9239 35.9358 36.9273 35.9392C36.9909 35.9928 37.0546 36.0497 37.1148 36.1067C37.0311 35.9492 36.9407 35.7985 36.8368 35.6545C36.6962 35.4803 36.5387 35.3229 36.3679 35.1789C36.3679 35.1789 36.3646 35.1789 36.3646 35.1755C36.2038 35.0616 36.033 34.9612 35.8555 34.8774C35.6612 34.8037 35.4602 34.7501 35.2559 34.7133C35.2559 34.7133 35.2559 34.7133 35.2526 34.7133C35.0081 34.6898 34.7636 34.6932 34.5224 34.7166C34.2477 34.7602 33.9764 34.8372 33.7152 34.9377C33.5913 34.9946 33.4707 35.0549 33.3535 35.1219C33.1927 35.2124 33.0386 35.3128 32.8912 35.42C32.5998 35.6578 32.3319 35.9224 32.0974 36.2172C32.0673 36.2574 32.0371 36.2976 32.0103 36.3411C31.7926 36.656 31.6051 36.9909 31.451 37.3426C31.2232 37.9053 31.0725 38.4914 30.9787 39.091C30.9754 39.1379 30.972 39.1848 30.9687 39.235C30.9553 39.3991 30.9352 39.5632 30.9084 39.724C30.8648 40.2532 30.8648 40.7891 30.9218 41.3116V41.315C30.972 41.6365 31.0491 41.9514 31.1663 42.2528C31.2601 42.4538 31.3672 42.6447 31.4979 42.8256C31.585 42.9328 31.6821 43.0299 31.7826 43.1237C31.7625 43.0868 31.7424 43.05 31.7256 43.0131ZM32.1242 37.0344C32.1209 37.0076 32.1175 36.9775 32.1142 36.9507C32.1142 36.9407 32.1108 36.9306 32.1108 36.9206C32.1142 36.9574 32.1175 36.9976 32.1242 37.0344Z" fill="white"/>
        <path d="M6.89979 40.5882C6.89979 40.5848 6.89644 40.5848 6.89644 40.5815C6.69213 40.0757 6.52801 39.5465 6.44427 39.0073C6.40743 38.669 6.40743 38.3273 6.44427 37.9857C6.49452 37.6775 6.5749 37.3761 6.68878 37.0847C6.79596 36.8502 6.92324 36.6258 7.07396 36.4182C7.21464 36.244 7.37206 36.0866 7.54288 35.9425C7.54288 35.9425 7.54623 35.9425 7.54623 35.9392C7.707 35.8253 7.87782 35.7248 8.05534 35.6411C8.2496 35.5674 8.45057 35.5138 8.65488 35.477C8.65488 35.477 8.65488 35.477 8.65823 35.477C8.90274 35.4535 9.14724 35.4569 9.3884 35.4803C9.66305 35.5239 9.93435 35.6009 10.1956 35.7014C10.3195 35.7583 10.4401 35.8186 10.5573 35.8856C10.7181 35.976 10.8722 36.0765 11.0196 36.1837C11.2105 36.3378 11.3913 36.5086 11.5588 36.6895C11.4885 36.5722 11.4148 36.4583 11.3378 36.3445C11.3076 36.3043 11.2808 36.2607 11.2507 36.2205C11.0129 35.9291 10.7483 35.6612 10.4569 35.4234C10.3095 35.3162 10.1554 35.2157 9.99464 35.1253C9.87741 35.0583 9.75683 34.998 9.63291 34.9411C9.37165 34.8406 9.1037 34.7669 8.8257 34.72C8.58119 34.6966 8.33669 34.6932 8.09553 34.7167C8.09553 34.7167 8.09553 34.7167 8.09218 34.7167C7.88787 34.7501 7.6869 34.8071 7.49264 34.8808C7.31512 34.9645 7.1443 35.0616 6.98353 35.1789C6.98353 35.1789 6.98353 35.1789 6.98018 35.1822C6.80936 35.3262 6.65194 35.4837 6.51126 35.6578C6.36054 35.8655 6.23326 36.0899 6.12608 36.3244C6.0122 36.6158 5.93182 36.9172 5.88158 37.2254C5.84473 37.5637 5.84473 37.9053 5.88158 38.2469C5.96531 38.7862 6.12943 39.3154 6.33374 39.8212C6.33374 39.8245 6.33709 39.8245 6.33709 39.8279C6.61509 40.4609 6.96008 41.0571 7.34861 41.6298C7.35196 41.6365 7.35866 41.6432 7.36201 41.6533C7.41225 41.727 7.46584 41.8007 7.51943 41.871C7.52278 41.8743 7.52613 41.881 7.52948 41.8844C7.59982 41.9748 7.67351 42.0619 7.75054 42.149C7.42565 41.6499 7.1376 41.1308 6.89979 40.5882Z" fill="white"/>
        <path d="M7.51609 23.332C7.37542 23.0306 7.29503 22.6923 7.29503 22.3372C7.29503 21.3492 7.90462 20.5018 8.76542 20.1501C8.74533 19.8553 8.72858 19.5539 8.72188 19.2457C7.59648 19.4232 6.73233 20.4013 6.73233 21.5769C6.73233 22.2736 7.03713 22.8999 7.51609 23.332Z" fill="white"/>
        <path d="M38.8766 36.2775C39.168 37.289 39.1178 38.3541 38.8431 39.3623C38.5886 40.2901 38.1632 41.1576 37.6574 41.9715C37.1684 42.7586 36.6124 43.4988 35.8889 44.0883C35.6109 44.3161 35.3128 44.517 34.9946 44.6879C34.4554 44.9759 33.8759 45.1534 33.263 45.1903C32.7974 45.2171 32.3352 45.1367 31.8998 44.9793C31.8964 44.9793 31.8864 44.9726 31.8663 44.9659C31.8596 44.9625 31.8496 44.9592 31.8395 44.9558C31.8295 44.9525 31.8228 44.9491 31.8127 44.9458C31.7893 44.9357 31.7625 44.9257 31.739 44.9156C31.7357 44.9156 31.7323 44.9123 31.729 44.9123C31.2668 44.7314 29.9571 44.1855 28.882 43.4084C27.2006 44.9391 24.6383 45.8166 21.6874 45.8166C21.6807 45.8166 21.6774 45.8166 21.6707 45.8166C21.664 45.8166 21.6606 45.8166 21.6539 45.8166C18.7031 45.8166 16.1408 44.9391 14.4594 43.4084C13.3876 44.1855 12.078 44.7314 11.6124 44.9123C11.6091 44.9123 11.6057 44.9156 11.6024 44.9156C11.5789 44.9257 11.5521 44.9357 11.5287 44.9458C11.5186 44.9491 11.5119 44.9525 11.5019 44.9558C11.4918 44.9592 11.4818 44.9625 11.4751 44.9659C11.455 44.9726 11.4416 44.9793 11.4382 44.9793C11.0028 45.1333 10.5406 45.2137 10.075 45.1869C9.46209 45.1501 8.886 44.9726 8.34339 44.6845C7.84433 44.4199 7.38881 44.0548 6.99023 43.6596C6.95339 43.6228 6.91654 43.5859 6.88305 43.5491C6.75912 43.4787 6.66869 43.3749 6.5749 43.2543C6.40743 43.0366 6.23996 42.8122 6.08254 42.5878C6.06579 42.5643 6.04904 42.5409 6.0323 42.5141C6.02225 42.5007 6.01555 42.4873 6.0055 42.4773C5.97536 42.4304 5.94186 42.3868 5.91172 42.3399C5.90502 42.3299 5.89832 42.3198 5.89162 42.3098C5.89162 42.3098 5.89162 42.3064 5.88827 42.3064C5.28538 41.4021 4.78297 40.414 4.49827 39.3623C4.22362 38.3541 4.17003 37.289 4.46477 36.2775C4.5954 35.8287 4.78632 35.3832 5.04757 34.988C5.33897 34.5458 5.68396 34.1875 6.09929 33.8693C6.8663 33.2831 7.89122 33.0319 8.8458 33.1391C9.15395 33.1726 9.45874 33.2195 9.75684 33.3099C10.0147 33.3869 10.2693 33.4908 10.5105 33.608C10.7516 33.0252 11.0363 32.4592 11.3579 31.9233C11.9172 30.9955 12.5971 30.128 13.3776 29.3744C12.577 28.8552 11.8804 28.2389 11.2909 27.5255C10.7784 26.9025 10.343 26.2025 9.98125 25.4254C9.6932 25.4924 9.3951 25.5259 9.08696 25.5259C6.90984 25.5259 5.14135 23.754 5.14135 21.5803C5.14135 19.5271 6.71558 17.8356 8.72187 17.6514C8.88265 13.9704 10.1889 10.9023 12.5235 8.74532C13.6857 7.67351 15.0791 6.8462 16.6633 6.2902C17.9763 5.83133 19.3931 5.56338 20.8903 5.49639C20.9774 5.48969 21.0645 5.48634 21.1515 5.48634H21.1549C21.319 5.48634 21.4865 5.47964 21.6506 5.47964C23.4291 5.47964 25.1072 5.75095 26.6379 6.2902C28.2221 6.8462 29.6121 7.67016 30.7777 8.74532C33.1123 10.9023 34.4186 13.9671 34.5793 17.6514C36.5856 17.8356 38.1598 19.5271 38.1598 21.5803C38.1598 23.7574 36.388 25.5259 34.2142 25.5259C33.9061 25.5259 33.608 25.489 33.3199 25.4254C32.9616 26.2058 32.5261 26.9025 32.0103 27.5255C31.4242 28.2355 30.7342 28.8485 29.9437 29.3643C30.7275 30.1213 31.4141 30.9921 31.9768 31.9266C32.2984 32.4625 32.5831 33.0286 32.8242 33.6114C33.0687 33.4941 33.3199 33.3903 33.5778 33.3133C33.8759 33.2228 34.1807 33.1759 34.4889 33.1424C35.4435 33.0353 36.4684 33.2898 37.2354 33.8726C37.6541 34.1908 37.9991 34.5525 38.2871 34.9913C38.5517 35.3798 38.746 35.8287 38.8766 36.2775ZM37.4632 38.2469C37.5 37.9087 37.5 37.567 37.4632 37.2254C37.4129 36.9172 37.3325 36.6158 37.2187 36.3244C37.1115 36.0899 36.9842 35.8655 36.8335 35.6578C36.6928 35.4837 36.5354 35.3263 36.3646 35.1822C36.3646 35.1822 36.3612 35.1822 36.3612 35.1789C36.2004 35.065 36.0296 34.9645 35.8521 34.8808C35.6578 34.8071 35.4569 34.7535 35.2526 34.7167C35.2526 34.7167 35.2526 34.7167 35.2492 34.7167C35.0047 34.6932 34.7602 34.6966 34.519 34.72C34.2444 34.7636 33.9731 34.8406 33.7118 34.9411C33.5879 34.998 33.4673 35.0583 33.3501 35.1253C33.1893 35.2157 33.0352 35.3162 32.8879 35.4234C32.5965 35.6612 32.3285 35.9258 32.0941 36.2206C32.0639 36.2607 32.0338 36.3009 32.007 36.3445C31.7893 36.6593 31.6017 36.9943 31.4476 37.346C31.2199 37.9087 31.0691 38.4948 30.9754 39.0943C30.972 39.1412 30.9687 39.1881 30.9653 39.2384C30.9519 39.4025 30.9318 39.5666 30.905 39.7274C30.8615 40.2566 30.8615 40.7925 30.9184 41.315V41.3184C30.9687 41.6399 31.0457 41.9547 31.1629 42.2562C31.2567 42.4572 31.3639 42.6481 31.4945 42.8289C31.605 42.9596 31.7223 43.0835 31.8529 43.1907C31.9936 43.2878 32.141 43.3715 32.295 43.4419C32.4725 43.5089 32.6568 43.5591 32.841 43.5926C33.0151 43.6094 33.1927 43.6094 33.3668 43.5926C33.5778 43.5558 33.7822 43.4988 33.9798 43.4218C34.2578 43.2945 34.519 43.1337 34.7635 42.9529C34.7669 42.9529 34.7669 42.9495 34.7702 42.9495C35.1588 42.6347 35.5038 42.2729 35.8153 41.8844C35.8186 41.8811 35.822 41.8744 35.8253 41.871C35.8789 41.8007 35.9325 41.727 35.9827 41.6533C35.9894 41.6466 35.9928 41.6399 35.9961 41.6299C36.3847 41.0605 36.7296 40.4609 37.0076 39.8279C37.0076 39.8245 37.011 39.8245 37.011 39.8212C37.2187 39.3121 37.3794 38.7862 37.4632 38.2469ZM36.5789 21.5803C36.5789 20.4046 35.7148 19.4266 34.5894 19.2491C34.5358 21.0142 34.3047 22.565 33.896 23.9182C34.0032 23.9316 34.1104 23.9416 34.2209 23.9416C35.5205 23.9383 36.5789 22.8798 36.5789 21.5803ZM33.0151 18.6663C33.0151 18.5859 33.0151 18.5089 33.0151 18.4285C33.0151 18.2242 33.0118 18.0232 33.0051 17.8256C32.7807 11.3947 28.9691 8.31325 24.6751 7.38546C24.9833 7.81753 25.1909 8.28645 25.2713 8.76207C25.4455 9.77694 25.1105 10.4669 24.799 10.8688C24.4172 11.3612 23.8411 11.7096 23.1813 11.8502C22.9703 11.8938 22.7559 11.9172 22.5415 11.9172C22.1195 11.9172 21.7042 11.8301 21.3358 11.656C20.6826 11.3512 20.2304 10.8086 20.0596 10.132C19.9524 9.7066 20.2104 9.27788 20.6357 9.1707C21.0611 9.06352 21.4898 9.32142 21.597 9.7468C21.7377 10.3095 22.4444 10.3832 22.853 10.2994C23.1645 10.2325 23.8679 9.98125 23.7038 9.03002C23.6201 8.54771 23.2449 8.02855 22.6956 7.64002C21.7176 6.94669 20.5687 7.06727 19.4467 7.23809C18.5323 7.37876 17.628 7.60987 16.7638 7.94816C15.8997 8.28645 15.0791 8.72857 14.3321 9.28123C13.5651 9.85063 12.8885 10.5306 12.3292 11.3043C11.7162 12.1483 11.254 13.0929 10.9291 14.0843C10.5473 15.2465 10.3597 16.4691 10.3061 17.6883C10.3028 17.7351 10.3028 17.782 10.2994 17.8289C10.2927 18.0265 10.2894 18.2275 10.2894 18.4318C10.2894 18.5122 10.2894 18.5926 10.2894 18.6696C10.2927 18.9778 10.2994 19.2759 10.3128 19.5706C10.3731 20.9137 10.5473 22.1061 10.8387 23.1578C10.9191 23.4492 11.0062 23.7306 11.1067 24.0019C11.2004 24.2665 11.3043 24.5211 11.4181 24.7622C11.7196 25.4187 12.0847 26.0015 12.5101 26.5173C14.3254 28.7179 17.3131 29.7897 21.6472 29.7897C25.9814 29.7897 28.9691 28.7212 30.7844 26.5173C31.2098 26.0015 31.5749 25.4153 31.8763 24.7622C31.9902 24.5177 32.0941 24.2665 32.1878 24.0019C32.285 23.7306 32.3754 23.4492 32.4558 23.1578C32.7438 22.1061 32.918 20.9104 32.9817 19.5706C33.0051 19.2725 33.0118 18.9711 33.0151 18.6663ZM31.3471 34.6798C31.394 34.6329 31.4443 34.5827 31.4945 34.5358C31.4443 34.4018 31.394 34.2712 31.3404 34.1406C30.9553 33.2563 30.4662 32.4156 29.8834 31.6486C29.8834 31.6453 29.8801 31.6453 29.8801 31.6419C29.5318 31.1998 29.1499 30.7845 28.7413 30.3993C28.6609 30.3222 28.6006 30.2251 28.5604 30.1213C28.3695 30.2084 28.1719 30.2887 27.9743 30.3658C26.2359 31.0357 24.1124 31.3739 21.6573 31.3739C19.2022 31.3739 17.0787 31.0323 15.3403 30.3624C15.1494 30.2887 14.9618 30.2117 14.781 30.128C14.7441 30.2285 14.6838 30.3222 14.6068 30.3959C14.1982 30.7811 13.8197 31.1998 13.468 31.6386C13.468 31.6419 13.4646 31.6419 13.4646 31.6453C12.8785 32.4156 12.3928 33.253 12.0076 34.1372C11.9541 34.2678 11.9038 34.3985 11.8536 34.5324C11.9038 34.5793 11.9507 34.6262 12.0009 34.6765C12.2488 34.9243 12.4699 35.1923 12.6675 35.477C12.7244 35.5574 12.778 35.6411 12.8316 35.7248C12.8651 35.6277 12.9053 35.5272 12.9421 35.4301C13.0058 35.2693 13.0761 35.1085 13.1498 34.9511C13.8431 33.4874 14.7441 32.6601 14.781 32.6233C15.1058 32.3285 15.6083 32.352 15.8997 32.6769C16.1944 33.0018 16.171 33.5008 15.8461 33.7956C15.8293 33.809 15.3135 34.2946 14.8245 35.1588C14.8714 35.1521 14.9216 35.1454 14.9685 35.142C16.4691 34.9578 17.9796 34.8473 19.4902 34.8071C20.2171 34.7903 20.9439 34.787 21.6673 34.8037C22.3942 34.787 23.121 34.7903 23.8445 34.8071C25.355 34.8439 26.8656 34.9578 28.3662 35.142C28.4131 35.1487 28.4633 35.1554 28.5102 35.1588C28.0212 34.2946 27.502 33.809 27.4886 33.7956C27.1671 33.5008 27.1436 33.0018 27.435 32.6769C27.7298 32.352 28.2322 32.3285 28.5537 32.6233C28.5906 32.6568 29.4949 33.4874 30.1849 34.9511C30.2586 35.1085 30.3289 35.2693 30.3926 35.4301C30.4294 35.5272 30.4696 35.6244 30.5031 35.7248C30.5567 35.6411 30.6103 35.5574 30.6672 35.477C30.8782 35.1956 31.1026 34.9277 31.3471 34.6798ZM29.3877 39.0475C29.438 38.401 29.3978 37.7579 29.2672 37.1349C29.2538 37.068 29.237 37.001 29.2203 36.9239C29.2136 36.8971 29.2069 36.8703 29.2002 36.8435C29.0729 36.8234 28.9423 36.8067 28.8116 36.79C27.3446 36.5957 25.8675 36.4718 24.3871 36.4148C23.4827 36.3813 22.5784 36.3746 21.6707 36.3947C20.7664 36.3746 19.8587 36.3813 18.9543 36.4148C17.4739 36.4684 15.9968 36.5957 14.5298 36.79C14.3991 36.8067 14.2718 36.8268 14.1412 36.8435C14.1345 36.8703 14.1278 36.8971 14.1211 36.9239C14.1044 36.9976 14.0876 37.068 14.0742 37.1349C13.9436 37.7579 13.9034 38.401 13.9537 39.0475C13.9704 39.1714 13.9838 39.2953 13.9972 39.4226C14.0943 40.059 14.312 40.6518 14.647 41.1911C15.8394 43.0969 18.4586 44.2357 21.6573 44.2357C21.664 44.2357 21.6673 44.2357 21.674 44.2357C21.6807 44.2357 21.6841 44.2357 21.6908 44.2357C24.8895 44.2357 27.5087 43.0969 28.7011 41.1911C29.036 40.6552 29.2538 40.0623 29.3509 39.4226C29.3576 39.2953 29.371 39.1714 29.3877 39.0475ZM12.4263 41.3117C12.4866 40.7858 12.4833 40.2532 12.4397 39.724C12.4129 39.5633 12.3928 39.4025 12.3794 39.235C12.3761 39.1881 12.3727 39.1412 12.3694 39.091C12.2756 38.4915 12.1249 37.9053 11.8971 37.3426C11.743 36.9909 11.5555 36.656 11.3378 36.3411C11.3076 36.3009 11.2808 36.2574 11.2507 36.2172C11.0129 35.9258 10.7483 35.6579 10.4569 35.42C10.3095 35.3129 10.1554 35.2124 9.99465 35.1219C9.87742 35.055 9.75684 34.9947 9.63291 34.9377C9.37166 34.8372 9.10371 34.7636 8.82571 34.7167C8.5812 34.6932 8.33669 34.6899 8.09553 34.7133C8.09553 34.7133 8.09553 34.7133 8.09219 34.7133C7.88787 34.7468 7.68691 34.8038 7.49264 34.8774C7.31512 34.9612 7.1443 35.0583 6.98353 35.1755C6.98353 35.1755 6.98353 35.1755 6.98018 35.1789C6.80936 35.3229 6.65194 35.4803 6.51126 35.6545C6.36054 35.8622 6.23326 36.0866 6.12608 36.321C6.0122 36.6124 5.93182 36.9139 5.88157 37.222C5.84473 37.5603 5.84473 37.902 5.88157 38.2436C5.96531 38.7829 6.12943 39.3121 6.33374 39.8178C6.33374 39.8212 6.33709 39.8212 6.33709 39.8245C6.61509 40.4576 6.96008 41.0538 7.34862 41.6265C7.35197 41.6332 7.35866 41.6399 7.36201 41.6499C7.41225 41.7236 7.46585 41.7973 7.51944 41.8677C7.52279 41.871 7.52613 41.8777 7.52948 41.8811C7.84098 42.2729 8.18597 42.6347 8.5745 42.9462C8.5745 42.9462 8.57785 42.9495 8.5812 42.9495C8.82571 43.1304 9.08696 43.2912 9.36496 43.4184C9.56258 43.4955 9.76689 43.5524 9.9779 43.5893C10.1521 43.606 10.3296 43.606 10.5038 43.5893C10.6913 43.5558 10.8722 43.5055 11.0497 43.4385C11.2038 43.3682 11.3545 43.2845 11.4918 43.1873C11.6225 43.0768 11.743 42.9562 11.8502 42.8256C11.9775 42.6447 12.088 42.4538 12.1818 42.2528C12.299 41.9514 12.3761 41.6366 12.4263 41.315V41.3117ZM9.09366 23.9383C9.20419 23.9383 9.31137 23.9316 9.41855 23.9148C9.00657 22.5616 8.77881 21.0109 8.72522 19.2457C7.59982 19.4232 6.73567 20.4013 6.73567 21.5769C6.73232 22.8798 7.79074 23.9383 9.09366 23.9383Z" fill="#4E342E"/>
        <path d="M32.1242 37.0345C32.1208 37.0077 32.1175 36.9775 32.1141 36.9507C32.1141 36.9407 32.1108 36.9306 32.1108 36.9206C32.1141 36.9574 32.1175 36.9976 32.1242 37.0345Z" fill="#4E342E"/>
        <path d="M30.4696 20.3544C30.6505 20.7228 30.7509 21.1415 30.7509 21.5803C30.7509 21.8817 30.5835 22.143 30.3356 22.277C30.2217 22.3372 30.0945 22.3741 29.9571 22.3741C29.5184 22.3741 29.1633 22.0191 29.1633 21.5803C29.1633 20.907 28.6174 20.3611 27.9441 20.3611C27.2709 20.3611 26.7249 20.907 26.7249 21.5803C26.7249 22.0191 26.3699 22.3741 25.9311 22.3741C25.4924 22.3741 25.1373 22.0191 25.1373 21.5803C25.1373 20.0328 26.3967 18.7768 27.9408 18.7768C29.0528 18.7735 30.0141 19.4199 30.4696 20.3544Z" fill="#4E342E"/>
        <path d="M23.6837 22.9401C24.1225 22.9401 24.4775 23.2951 24.4775 23.7339C24.4775 25.2813 23.2181 26.5374 21.674 26.5374C20.13 26.5374 18.8706 25.278 18.8706 23.7339C18.8706 23.2951 19.2256 22.9401 19.6644 22.9401C20.1032 22.9401 20.4582 23.2951 20.4582 23.7339C20.4582 24.4071 21.0041 24.9531 21.6774 24.9531C22.3506 24.9531 22.8966 24.4071 22.8966 23.7339C22.8899 23.2918 23.2449 22.9401 23.6837 22.9401Z" fill="#4E342E"/>
        <path d="M18.1706 21.5803C18.1706 22.019 17.8155 22.3741 17.3767 22.3741C16.938 22.3741 16.5829 22.019 16.5829 21.5803C16.5829 20.907 16.037 20.3611 15.3637 20.3611C14.6905 20.3611 14.1445 20.907 14.1445 21.5803C14.1445 22.019 13.7895 22.3741 13.3507 22.3741C13.2134 22.3741 13.0861 22.3406 12.9722 22.2769C12.7244 22.143 12.5569 21.8817 12.5569 21.5803C12.5569 21.1415 12.6574 20.7262 12.8383 20.3544C13.2938 19.4199 14.2517 18.7735 15.3604 18.7735C16.9145 18.7735 18.1706 20.0328 18.1706 21.5803Z" fill="#4E342E"/>
        <path d="M11.2373 36.9206C11.2373 36.9306 11.2339 36.9407 11.2339 36.9507C11.2306 36.9775 11.2272 37.0077 11.2239 37.0345C11.2272 36.9976 11.2339 36.9574 11.2373 36.9206Z" fill="#4E342E"/>
        <path d="M18.7868 8.23954C18.7868 8.23954 19.6242 7.98833 20.964 7.88115C21.2185 7.86105 21.4764 7.84431 21.731 7.83426C21.741 7.83426 21.7511 7.83426 21.7611 7.83426C22.1396 7.82421 22.5449 7.82756 22.9736 7.84766C22.8899 7.77397 22.7994 7.70028 22.7023 7.63329C22.2166 7.28831 21.6439 7.08064 21.1683 7.07394C15.9566 7.24476 10.5774 10.1487 10.3095 17.8222C10.3028 18.0198 10.2994 18.2208 10.2994 18.4251C10.2994 18.5055 10.2994 18.5858 10.2994 18.6629C10.3028 18.971 10.3095 19.2691 10.3229 19.5639C10.3832 20.907 10.5573 22.0994 10.8487 23.1511C10.9291 23.4425 11.0162 23.7238 11.1167 23.9951C11.2105 24.2597 11.3143 24.5143 11.4282 24.7554C11.7296 25.4119 12.0947 25.9947 12.5201 26.5105C12.5368 26.5306 12.5569 26.5541 12.5737 26.5742C12.3593 26.2426 12.1651 25.8909 11.9909 25.5158C11.877 25.2713 11.7732 25.0167 11.6794 24.7554C11.5823 24.4841 11.4918 24.2028 11.4114 23.9114C11.12 22.8597 10.9459 21.6639 10.8856 20.3242C10.8722 20.0328 10.8655 19.7313 10.8621 19.4232C10.8621 19.3428 10.8621 19.2658 10.8621 19.1854C10.8621 18.9811 10.8655 18.7801 10.8722 18.5825C11.0865 12.3627 14.6637 9.27785 18.7868 8.23954Z" fill="white"/>
        <path d="M24.6751 7.38211C24.8392 7.61322 24.9766 7.85438 25.0804 8.10558L25.2378 8.14243C27.5087 8.63479 29.6456 9.73005 31.1864 11.6024C29.6322 9.26113 27.2408 7.93811 24.6751 7.38211Z" fill="white"/>
        <path d="M15.7188 32.5027C15.7021 32.5027 15.6887 32.506 15.6686 32.506C15.6686 32.506 15.625 32.4792 15.5413 32.4457C14.8245 32.1443 13.9972 32.3955 13.545 33.0285C13.2905 33.3835 13.0158 33.8257 12.768 34.3515C12.6943 34.5089 12.6239 34.6697 12.5603 34.8305C12.5235 34.9209 12.49 35.0147 12.4565 35.1051V35.1252L12.4364 35.1721C12.5168 35.2726 12.5904 35.3731 12.6641 35.4769C12.7211 35.5573 12.7747 35.641 12.8283 35.7248C12.8617 35.6276 12.9019 35.5271 12.9388 35.43C13.0024 35.2692 13.0728 35.1085 13.1464 34.951C13.8398 33.4874 14.7408 32.6601 14.7776 32.6232C15.0422 32.3821 15.4274 32.3553 15.7188 32.5295C15.7221 32.5261 15.7188 32.5161 15.7188 32.5027Z" fill="#DDB687"/>
        <path d="M27.4953 33.8022C27.435 33.7453 27.3847 33.6816 27.3445 33.6147C27.4551 33.9228 27.6359 34.5224 27.5589 35.0516L27.579 35.0583C27.8436 35.0851 28.1082 35.1152 28.3728 35.1487C28.4197 35.1554 28.47 35.1621 28.5169 35.1655C28.0278 34.3013 27.512 33.8156 27.4953 33.8022Z" fill="#DDB687"/>
        <path d="M15.3638 24.8057C16.161 24.8057 16.8074 24.4728 16.8074 24.0621C16.8074 23.6515 16.161 23.3186 15.3638 23.3186C14.5665 23.3186 13.9202 23.6515 13.9202 24.0621C13.9202 24.4728 14.5665 24.8057 15.3638 24.8057Z" fill="#FFAB91"/>
        <path d="M27.981 24.8057C28.7783 24.8057 29.4246 24.4728 29.4246 24.0621C29.4246 23.6515 28.7783 23.3186 27.981 23.3186C27.1837 23.3186 26.5374 23.6515 26.5374 24.0621C26.5374 24.4728 27.1837 24.8057 27.981 24.8057Z" fill="#FFAB91"/>
        <path d="M28.6977 41.1877C29.0327 40.6518 29.2504 40.059 29.3475 39.4192C29.3609 39.2953 29.3743 39.168 29.3911 39.0441C29.4413 38.3977 29.4011 37.7546 29.2705 37.1316C29.2571 37.0646 29.2404 36.9976 29.2236 36.9206C29.2169 36.8938 29.2102 36.867 29.2035 36.8402C29.0762 36.8201 28.9456 36.8033 28.815 36.7866C28.6676 36.7665 28.5202 36.7497 28.3729 36.7296C28.3795 36.7631 30.3189 42.1423 22.863 44.1754C25.5191 43.9342 27.6561 42.8557 28.6977 41.1877Z" fill="#CFD8DC"/>
        <path d="M22.3942 36.4315C22.3774 36.4148 22.3573 36.398 22.3339 36.3847C22.1128 36.3847 21.8918 36.388 21.6741 36.3947C20.7697 36.3746 19.862 36.3813 18.9577 36.4148C17.4773 36.4684 16.0002 36.5957 14.5331 36.7899C14.4025 36.8067 14.2752 36.8268 14.1446 36.8435C14.1379 36.8703 14.1312 36.8971 14.1245 36.9239C14.1078 36.9976 14.091 37.0679 14.0776 37.1349C13.947 37.7579 13.9068 38.401 13.957 39.0474C13.9738 39.1714 13.9872 39.2953 14.0006 39.4226C14.0977 40.0589 14.3154 40.6518 14.6504 41.191C15.2399 42.1356 16.181 42.8892 17.3701 43.4117C13.2871 41.0068 14.6135 37.1483 14.6135 37.1483C17.0753 36.733 22.3942 36.4315 22.3942 36.4315Z" fill="white"/>
    </g>
    <defs>
        <clipPath id="clip0_1:9">
            <rect width="44.4199" height="50" fill="white"/>
        </clipPath>
    </defs>
</svg>
