<svg width="60" height="60" viewBox="0 0 60 60" fill="none" xmlns="http://www.w3.org/2000/svg">
    <g clip-path="url(#clip0_1:553)">
        <path d="M11.3672 13.6521L1.75781 20.7889L11.8243 33.5155L11.3672 13.6521Z" fill="#68544F"/>
        <path d="M48.6328 13.6521L48.1757 33.5155L58.2422 20.7889L48.6328 13.6521Z" fill="#53433F"/>
        <path d="M49.3359 1.75781V44.9414C49.3359 45.9259 48.5626 46.6992 47.5781 46.6992H12.4219C11.4374 46.6992 10.6641 45.9259 10.6641 44.9414V1.75781C10.6641 0.77332 11.4374 0 12.4219 0H47.5781C48.5626 0 49.3359 0.77332 49.3359 1.75781Z" fill="#F7F0EB"/>
        <path d="M49.3359 1.75781V44.9414C49.3359 45.9259 48.5626 46.6992 47.5781 46.6992H30V0H47.5781C48.5626 0 49.3359 0.77332 49.3359 1.75781Z" fill="#EFE2DD"/>
        <path d="M42.3047 12.4219C42.3047 13.4064 41.5314 14.1797 40.5469 14.1797H19.4531C18.4686 14.1797 17.6953 13.4064 17.6953 12.4219C17.6953 11.4374 18.4686 10.6641 19.4531 10.6641H40.5469C41.5314 10.6641 42.3047 11.4374 42.3047 12.4219Z" fill="#E1D3CE"/>
        <path d="M42.3047 19.4531C42.3047 20.4376 41.5314 21.2109 40.5469 21.2109H19.4531C18.4686 21.2109 17.6953 20.4376 17.6953 19.4531C17.6953 18.4686 18.4686 17.6953 19.4531 17.6953H40.5469C41.5314 17.6953 42.3047 18.4686 42.3047 19.4531Z" fill="#E1D3CE"/>
        <path d="M31.7578 26.4844C31.7578 27.4689 30.9845 28.2422 30 28.2422H19.4531C18.4686 28.2422 17.6953 27.4689 17.6953 26.4844C17.6953 25.4999 18.4686 24.7266 19.4531 24.7266H30C30.9845 24.7266 31.7578 25.4999 31.7578 26.4844Z" fill="#E1D3CE"/>
        <path d="M30 28.2422V24.7266C30.9845 24.7266 31.7578 25.4999 31.7578 26.4844C31.7578 27.4689 30.9845 28.2422 30 28.2422Z" fill="#CDBFBA"/>
        <path d="M40.5469 21.2109H30V17.6953H40.5469C41.5314 17.6953 42.3047 18.4686 42.3047 19.4531C42.3047 20.4376 41.5314 21.2109 40.5469 21.2109Z" fill="#CDBFBA"/>
        <path d="M40.5469 14.1797H30V10.6641H40.5469C41.5314 10.6641 42.3047 11.4374 42.3047 12.4219C42.3047 13.4064 41.5314 14.1797 40.5469 14.1797Z" fill="#CDBFBA"/>
        <path d="M59.3672 21.6328C59.332 21.6328 58.2422 20.7891 58.2422 20.7891L55.3241 22.9688L31.0547 41.0743C30.7384 41.3202 30.3516 41.4611 30 41.4611C29.6484 41.4611 29.2616 41.3203 28.9453 41.0743L4.6759 22.9688L1.75781 20.7891C1.75781 20.7891 0.667969 21.6328 0.632812 21.6328C0.246094 21.9493 0 22.4413 0 22.9688V54.7266C0 57.6446 2.35535 60 5.27344 60H54.7266C57.6446 60 60 57.6446 60 54.7266V22.9688C60 22.4413 59.7539 21.9493 59.3672 21.6328Z" fill="#FDBF00"/>
        <path d="M60 22.9688V54.7266C60 57.6446 57.6446 60 54.7266 60H30V41.4609C30.3514 41.4609 30.7384 41.3202 31.0547 41.0742L55.3241 22.9688L58.2422 20.7891C58.2422 20.7891 59.332 21.6328 59.3672 21.6328C59.7539 21.9493 60 22.4413 60 22.9688Z" fill="#FF9F00"/>
    </g>
    <defs>
        <clipPath id="clip0_1:553">
            <rect width="60" height="60" fill="white"/>
        </clipPath>
    </defs>
</svg>
