<svg width="17" height="17" viewBox="0 0 17 17" fill="none" xmlns="http://www.w3.org/2000/svg">
    <path d="M15.8409 6.95459H1.15909C0.519271 6.95459 0 7.47386 0 8.11368V8.88636C0 9.52618 0.519271 10.0455 1.15909 10.0455H15.8409C16.4807 10.0455 17 9.52618 17 8.88636V8.11368C17 7.47386 16.4807 6.95459 15.8409 6.95459Z" fill="#24BE63"/>
    <path d="M6.95454 1.15909V15.8409C6.95454 16.4807 7.47381 17 8.11363 17H8.88631C9.52613 17 10.0454 16.4807 10.0454 15.8409V1.15909C10.0454 0.519271 9.52613 0 8.88631 0H8.11363C7.47381 0 6.95454 0.519271 6.95454 1.15909Z" fill="#24BE63"/>
</svg>
